<?xml version="1.0" encoding="utf-8"?>
<!-- Generator: Adobe Illustrator 16.0.3, SVG Export Plug-In . SVG Version: 6.00 Build 0)  -->
<!DOCTYPE svg PUBLIC "-//W3C//DTD SVG 1.1//EN" "http://www.w3.org/Graphics/SVG/1.1/DTD/svg11.dtd">
<svg version="1.1" id="Layer_1" xmlns="http://www.w3.org/2000/svg" xmlns:xlink="http://www.w3.org/1999/xlink" x="0px" y="0px"
	 width="449.75px" height="71.41px" viewBox="18.75 0 449.75 71.41" enable-background="new 18.75 0 449.75 71.41"
	 xml:space="preserve">
<text transform="matrix(1 0 0 1 101.2495 53.3838)" fill="#DCE8F3" font-family="'MyriadPro-Regular'" font-size="60.0813">Escapes Today</text>
<g id="Layer_1_1_">
	<g>
		
			<radialGradient id="SVGID_1_" cx="-590.5845" cy="-1212.397" r="9.0103" gradientTransform="matrix(3.425 0 0 -1.5755 2085.1309 -1854.8304)" gradientUnits="userSpaceOnUse">
			<stop  offset="0" style="stop-color:#000000"/>
			<stop  offset="1" style="stop-color:#000000;stop-opacity:0"/>
		</radialGradient>
		<path fill="url(#SVGID_1_)" d="M93.24,55.301c0,7.842-13.817,14.196-30.86,14.196c-17.042,0-30.859-6.355-30.859-14.196l0,0
			c0-7.839,13.817-14.196,30.859-14.196C79.423,41.105,93.24,47.462,93.24,55.301L93.24,55.301z"/>
		
			<radialGradient id="SVGID_2_" cx="-374.5356" cy="-958.562" r="21.9916" gradientTransform="matrix(2.0833 0 0 -2.0833 832.9888 -1975.8647)" gradientUnits="userSpaceOnUse">
			<stop  offset="0" style="stop-color:#D3E9FF"/>
			<stop  offset="0.1552" style="stop-color:#D3E9FF"/>
			<stop  offset="0.75" style="stop-color:#4074AE"/>
			<stop  offset="1" style="stop-color:#36486C"/>
		</radialGradient>
		<path fill="url(#SVGID_2_)" stroke="#39396C" stroke-width="0.8005" d="M91.999,32.978c0,16.359-13.264,29.621-29.621,29.621
			s-29.62-13.263-29.62-29.621c0-16.359,13.262-29.62,29.62-29.62C78.738,3.358,91.999,16.619,91.999,32.978z"/>
		
			<radialGradient id="SVGID_3_" cx="-374.3262" cy="-1074.3887" r="23.9491" gradientTransform="matrix(2.0542 0 0 -1.7662 826.4311 -1886.9177)" gradientUnits="userSpaceOnUse">
			<stop  offset="0" style="stop-color:#FFFFFF"/>
			<stop  offset="1" style="stop-color:#FFFFFF;stop-opacity:0"/>
		</radialGradient>
		<path opacity="0.4216" fill="url(#SVGID_3_)" enable-background="new    " d="M78.891,20.43c0,7.84-7.393,14.196-16.511,14.196
			c-9.119,0-16.509-6.356-16.509-14.196S53.261,6.233,62.38,6.233C71.498,6.233,78.891,12.589,78.891,20.43z"/>
		<g transform="matrix(.98237,0,0,.98237,.12108,.23291)">
			<path fill-opacity="0.7135" d="M92.689,28.818L92.689,28.818l-0.835,0.943c-0.51-0.602-1.085-1.107-1.663-1.636l-1.277,0.187
				l-1.165-1.318v1.632l0.997,0.757l0.665,0.753l0.89-1.005c0.225,0.419,0.445,0.838,0.667,1.257v1.256l-1.003,1.131l-1.832,1.257
				l-1.387,1.384l-0.888-1.008l0.444-1.13l-0.885-1.006L83.92,29.07l-1.279-1.445l-0.337,0.377l0.504,1.823l0.943,1.069
				c0.538,1.554,1.071,3.04,1.775,4.526c1.095,0,2.131-0.117,3.219-0.253v0.88l-1.333,3.268l-1.22,1.38l-0.999,2.142v3.517
				l0.333,1.383l-0.554,0.626l-1.222,0.756l-1.278,1.067l1.056,1.193l-1.443,1.258l0.275,0.818l-2.165,2.451h-1.444l-1.22,0.756
				h-0.78v-1.005l-0.332-2.012c-0.429-1.263-0.875-2.516-1.33-3.768c0-0.925,0.056-1.841,0.108-2.767l0.557-1.257l-0.779-1.511
				l0.058-2.073l-1.055-1.195l0.528-1.726l-0.859-0.975h-1.501l-0.499-0.565l-1.499,0.944l-0.611-0.694l-1.388,1.193l-2.832-3.204
				l-1.109-2.64l1-1.507l-0.553-0.628l1.219-2.892c1.001-1.247,2.05-2.444,3.11-3.645l1.888-0.503l2.109-0.251l1.443,0.378
				l2.054,2.072l0.721-0.816l0.999-0.126l1.888,0.627h1.444l1.001-0.88l0.444-0.627l-1.002-0.628l-1.667-0.125
				c-0.462-0.641-0.892-1.315-1.439-1.885l-0.557,0.251l-0.223,1.634l-1-1.13l-0.222-1.259l-1.111-0.877H75.31l1.111,1.256
				l-0.444,1.131l-0.887,0.252l0.553-1.131l-1.001-0.501l-0.885-1.006l-1.666,0.376l-0.224,0.502l-0.999,0.629l-0.556,1.383
				l-1.387,0.691l-0.612-0.691H67.65v-2.264l1.443-0.755h1.109l-0.223-0.878l-0.886-0.88l1.497-0.314l0.833-0.941l0.668-1.133h1.22
				l-0.334-0.877l0.78-0.504v1.007l1.665,0.377l1.664-1.382l0.111-0.629l1.442-1.005c-0.522,0.066-1.043,0.113-1.553,0.251v-1.132
				l0.554-1.257h-0.554l-1.22,1.131l-0.336,0.629l0.336,0.881l-0.557,1.508l-0.886-0.503l-0.776-0.878l-1.224,0.878l-0.442-2.01
				l2.107-1.382v-0.754l1.335-0.88l2.109-0.503l1.444,0.503l2.664,0.503l-0.665,0.753H79.53l1.446,1.508l1.109-1.256l0.336-0.553
				c0,0,4.258,3.817,6.694,7.989C91.545,22.895,92.689,27.818,92.689,28.818L92.689,28.818z"/>
			<path fill-opacity="0.7135" d="M65.191,11.284l-0.111,0.753l0.78,0.504l1.33-0.88l-0.665-0.753l-0.891,0.503L65.191,11.284"/>
			<path fill-opacity="0.7135" d="M66.414,6.131L63.525,5l-3.329,0.376l-4.11,1.132L55.31,7.262l2.552,1.759v1.006l-0.999,1.005
				l1.333,2.641l0.885-0.505l1.113-1.759c1.716-0.53,3.254-1.131,4.884-1.885L66.414,6.131"/>
			<path fill-opacity="0.7135" d="M69.411,16.69l-0.444-1.132l-0.778,0.252l0.224,1.381L69.411,16.69"/>
			<path fill-opacity="0.7135" d="M69.855,16.435l-0.223,1.511l1.221-0.252l0.888-0.879l-0.778-0.754
				c-0.261-0.694-0.562-1.345-0.887-2.011h-0.666v0.754l0.442,0.503v1.128"/>
			<path fill-opacity="0.7135" d="M53.422,40.314l-0.889-1.758l-1.665-0.377l-0.889-2.39l-2.22,0.25l-1.886-1.38l-2,1.759v0.278
				c-0.605-0.175-1.348-0.201-1.887-0.532l-0.444-1.254v-1.383l-1.332,0.125l0.334-2.638h-0.778l-0.776,1.005l-0.777,0.376
				L37.1,31.769l-0.111-1.384l0.223-1.509l1.666-1.255h1.332l0.222-0.755l1.665,0.375l1.222,1.509l0.223-2.514l2.111-1.759
				l0.776-1.886l1.554-0.629l0.889-1.256l1.999-0.379l1-1.507h-2.999l1.888-0.88h1.331l1.889-0.628l0.223-0.752l-0.667-0.629
				l-0.777-0.252l0.222-0.754l-0.553-1.131l-1.334,0.502l0.224-1.005l-1.554-0.881l-1.221,2.136l0.111,0.754l-1.222,0.505
				l-0.777,1.633L46.32,15.93l-2.109-0.88l-0.334-1.13l2.776-1.635l1.222-1.132l0.111-1.383l-0.666-0.377l-0.889-0.126l-0.555,1.383
				c0,0-0.928,0.182-1.168,0.241c-3.049,2.809-9.21,8.875-10.641,20.326c0.057,0.266,1.037,1.804,1.037,1.804l2.331,1.382
				l2.332,0.628l1,1.258l1.554,1.13l0.888-0.126l0.666,0.3v0.203l-0.888,2.388l-0.667,1.004l0.222,0.505l-0.555,1.885l1.999,3.645
				l1.999,1.762l0.889,1.255l-0.112,2.64l0.667,1.508l-0.667,2.891c0,0-0.052-0.019,0.033,0.269c0.085,0.29,3.558,2.22,3.779,2.053
				l0.408-0.312l-0.222-0.627l0.888-0.881l0.333-0.878l1.444-0.506l1.111-2.766l-0.334-0.75l0.776-1.129l1.666-0.381l0.888-2.01
				l-0.223-2.514l1.332-1.886l0.223-1.887C57.039,42.178,55.231,41.248,53.422,40.314"/>
			<path fill-opacity="0.7135" d="M50.979,11.786l1.108,0.754h0.89v-0.88l-1.11-0.503L50.979,11.786"/>
			<path fill-opacity="0.7135" d="M48.093,10.782l-0.555,1.382h1.11l0.555-1.257l1.444-1.006l1.109,0.377l2.221,1.508l1.113-1.005
				l-1.224-0.504l-0.555-1.131l-2.109-0.251L51.09,8.267l-1,0.252l-0.442,0.881l-0.556-1.133l-0.222,0.504l0.111,1.257
				L48.093,10.782"/>
			<path fill-opacity="0.7135" d="M52.088,7.64l0.557-0.503l1.11-0.251c0.761-0.369,1.525-0.619,2.331-0.88l-0.442-0.754
				l-1.434,0.206l-0.678,0.674l-1.116,0.163l-0.993,0.466L50.94,6.995L50.645,7.39L52.088,7.64"/>
			<path fill-opacity="0.7135" d="M53.975,19.58l0.669-1.006l-1.001-0.754L53.975,19.58"/>
		</g>
		<g transform="matrix(.98237,0,0,.98237,-8.095179e-2,3.088300e-2)">
			<g>
				<g>
					
						<radialGradient id="SVGID_4_" cx="-357.9434" cy="-1052.499" r="30.934" fx="-357.715" fy="-1052.27" gradientTransform="matrix(1.9061 0 0 -1.9061 737.3484 -1983.3115)" gradientUnits="userSpaceOnUse">
						<stop  offset="0" style="stop-color:#FFFFFF"/>
						<stop  offset="0.3793" style="stop-color:#FEFEFE"/>
						<stop  offset="1" style="stop-color:#1D1D1D"/>
					</radialGradient>
					<path fill="url(#SVGID_4_)" d="M92.893,28.709L92.893,28.709l-0.834,0.942c-0.51-0.602-1.082-1.107-1.662-1.635l-1.279,0.187
						l-1.165-1.319v1.633l1.002,0.756l0.664,0.754l0.889-1.003c0.225,0.418,0.442,0.838,0.668,1.257v1.256l-1.003,1.13l-1.832,1.258
						l-1.386,1.385l-0.89-1.009l0.446-1.13l-0.889-1.006l-1.499-3.204l-1.277-1.444l-0.335,0.376l0.503,1.823l0.941,1.069
						c0.54,1.554,1.071,3.039,1.779,4.526c1.096,0,2.128-0.117,3.219-0.254v0.881l-1.334,3.268L86.4,40.59L85.4,42.727v3.519
						l0.336,1.384l-0.557,0.625l-1.224,0.755l-1.275,1.066l1.055,1.193l-1.442,1.261l0.277,0.815l-2.168,2.454H78.96l-1.222,0.754
						H76.96v-1.005l-0.332-2.013c-0.43-1.262-0.877-2.513-1.332-3.769c0-0.923,0.057-1.839,0.11-2.765l0.556-1.256l-0.779-1.508
						l0.057-2.075l-1.054-1.197l0.528-1.728l-0.859-0.975h-1.5l-0.502-0.567l-1.498,0.943l-0.611-0.693l-1.389,1.194l-2.832-3.205
						l-1.111-2.64l1-1.507l-0.554-0.627l1.22-2.894c1.002-1.246,2.051-2.443,3.109-3.644l1.888-0.503l2.109-0.25l1.445,0.378
						l2.053,2.072l0.723-0.816l0.998-0.125l1.889,0.627h1.444l0.999-0.88l0.445-0.628l-1-0.628l-1.666-0.127
						c-0.463-0.641-0.892-1.315-1.444-1.884l-0.554,0.25l-0.224,1.635l-0.999-1.13l-0.221-1.259l-1.11-0.877h-0.446l1.111,1.256
						l-0.444,1.131l-0.888,0.251l0.554-1.131l-1.003-0.501l-0.886-1.006l-1.666,0.376l-0.223,0.501l-1,0.629l-0.556,1.383
						l-1.386,0.691l-0.611-0.691h-0.665v-2.263l1.441-0.755h1.114l-0.226-0.878l-0.888-0.881l1.499-0.314l0.835-0.941l0.665-1.132
						h1.222l-0.336-0.879l0.78-0.503v1.006l1.664,0.376l1.665-1.382l0.113-0.63l1.442-1.005c-0.523,0.065-1.045,0.113-1.555,0.251
						v-1.132l0.555-1.257h-0.555l-1.219,1.131l-0.334,0.629l0.334,0.881l-0.555,1.506l-0.887-0.503l-0.775-0.879l-1.222,0.879
						l-0.444-2.009l2.107-1.382V10.55l1.332-0.88l2.109-0.504l1.444,0.504l2.665,0.503l-0.666,0.754h-1.443l1.443,1.508l1.112-1.257
						l0.337-0.553c0,0,4.256,3.816,6.692,7.989C91.753,22.787,92.893,27.71,92.893,28.709L92.893,28.709z"/>
				</g>
			</g>
			<g>
				<g>
					
						<radialGradient id="SVGID_5_" cx="-357.9445" cy="-1052.4921" r="30.9239" fx="-357.7161" fy="-1052.2631" gradientTransform="matrix(1.9061 0 0 -1.9061 737.3484 -1983.3115)" gradientUnits="userSpaceOnUse">
						<stop  offset="0" style="stop-color:#FFFFFF"/>
						<stop  offset="0.3793" style="stop-color:#FEFEFE"/>
						<stop  offset="1" style="stop-color:#1D1D1D"/>
					</radialGradient>
					<path fill="url(#SVGID_5_)" d="M65.399,11.176l-0.113,0.754l0.78,0.503l1.331-0.879l-0.666-0.755l-0.89,0.503L65.399,11.176"/>
				</g>
			</g>
			<g>
				<g>
					
						<radialGradient id="SVGID_6_" cx="-357.9429" cy="-1052.5034" r="30.9435" fx="-357.7145" fy="-1052.2744" gradientTransform="matrix(1.9061 0 0 -1.9061 737.3484 -1983.3115)" gradientUnits="userSpaceOnUse">
						<stop  offset="0" style="stop-color:#FFFFFF"/>
						<stop  offset="0.3793" style="stop-color:#FEFEFE"/>
						<stop  offset="1" style="stop-color:#1D1D1D"/>
					</radialGradient>
					<path fill="url(#SVGID_6_)" d="M66.621,6.023l-2.888-1.131l-3.329,0.376l-4.11,1.13l-0.778,0.755l2.553,1.76v1.006l-1,1.004
						l1.333,2.641l0.886-0.505l1.114-1.759c1.716-0.53,3.253-1.132,4.882-1.885L66.621,6.023"/>
				</g>
			</g>
			<g>
				<g>
					
						<radialGradient id="SVGID_7_" cx="-357.9509" cy="-1052.499" r="30.9635" fx="-357.7222" fy="-1052.2697" gradientTransform="matrix(1.9061 0 0 -1.9061 737.3484 -1983.3115)" gradientUnits="userSpaceOnUse">
						<stop  offset="0" style="stop-color:#FFFFFF"/>
						<stop  offset="0.3793" style="stop-color:#FEFEFE"/>
						<stop  offset="1" style="stop-color:#1D1D1D"/>
					</radialGradient>
					<path fill="url(#SVGID_7_)" d="M69.618,16.582l-0.446-1.133l-0.778,0.252l0.223,1.381L69.618,16.582"/>
				</g>
			</g>
			<g>
				<g>
					
						<radialGradient id="SVGID_8_" cx="-357.9474" cy="-1052.4985" r="30.9485" fx="-357.7188" fy="-1052.2694" gradientTransform="matrix(1.9061 0 0 -1.9061 737.3484 -1983.3115)" gradientUnits="userSpaceOnUse">
						<stop  offset="0" style="stop-color:#FFFFFF"/>
						<stop  offset="0.3793" style="stop-color:#FEFEFE"/>
						<stop  offset="1" style="stop-color:#1D1D1D"/>
					</radialGradient>
					<path fill="url(#SVGID_8_)" d="M70.059,16.327l-0.222,1.511l1.222-0.252l0.887-0.879l-0.776-0.755
						c-0.261-0.694-0.561-1.344-0.888-2.01h-0.666v0.754l0.443,0.503V16.327"/>
				</g>
			</g>
			<g>
				<g>
					
						<radialGradient id="SVGID_9_" cx="-357.9445" cy="-1052.4995" r="30.9394" fx="-357.7161" fy="-1052.2704" gradientTransform="matrix(1.9061 0 0 -1.9061 737.3484 -1983.3115)" gradientUnits="userSpaceOnUse">
						<stop  offset="0" style="stop-color:#FFFFFF"/>
						<stop  offset="0.3793" style="stop-color:#FEFEFE"/>
						<stop  offset="1" style="stop-color:#1D1D1D"/>
					</radialGradient>
					<path fill="url(#SVGID_9_)" d="M53.627,40.208l-0.889-1.763l-1.665-0.378l-0.889-2.386l-2.221,0.252l-1.887-1.382l-2,1.76
						v0.278c-0.604-0.175-1.347-0.2-1.887-0.531l-0.444-1.257v-1.383l-1.332,0.127l0.334-2.639h-0.778l-0.776,1.005l-0.778,0.375
						l-1.111-0.626l-0.111-1.383l0.223-1.509l1.667-1.257h1.332l0.222-0.755l1.665,0.376l1.222,1.509l0.223-2.514l2.11-1.759
						l0.777-1.886l1.554-0.628l0.888-1.256l1.999-0.379l1-1.508h-2.998l1.888-0.88h1.331l1.889-0.629l0.224-0.752l-0.669-0.629
						l-0.776-0.253l0.222-0.753l-0.555-1.13l-1.332,0.5l0.222-1.005l-1.554-0.88l-1.221,2.135l0.111,0.755l-1.222,0.505
						l-0.778,1.632l-0.333-1.508l-2.111-0.88l-0.334-1.131l2.777-1.635l1.222-1.132l0.113-1.381l-0.667-0.378l-0.889-0.127
						l-0.555,1.383c0,0-0.928,0.181-1.167,0.241c-3.049,2.809-9.21,8.874-10.641,20.326c0.058,0.265,1.037,1.804,1.037,1.804
						l2.331,1.382l2.332,0.629l1,1.256l1.553,1.132l0.889-0.124l0.666,0.299v0.203l-0.887,2.388l-0.667,1.004l0.223,0.505
						l-0.556,1.884l1.999,3.644l1.999,1.762l0.889,1.256l-0.111,2.641l0.667,1.506L46.97,57.17c0,0-0.053-0.018,0.032,0.271
						c0.085,0.288,3.558,2.218,3.779,2.053l0.408-0.312l-0.222-0.629l0.887-0.878l0.334-0.877l1.444-0.507l1.111-2.767l-0.333-0.749
						l0.775-1.131l1.666-0.383l0.888-2.008l-0.222-2.512l1.331-1.888l0.222-1.885C57.244,42.07,55.437,41.139,53.627,40.208"/>
				</g>
			</g>
			<g>
				<g>
					
						<radialGradient id="SVGID_10_" cx="-357.944" cy="-1052.4905" r="30.8941" fx="-357.7157" fy="-1052.2616" gradientTransform="matrix(1.9061 0 0 -1.9061 737.3484 -1983.3115)" gradientUnits="userSpaceOnUse">
						<stop  offset="0" style="stop-color:#FFFFFF"/>
						<stop  offset="0.3793" style="stop-color:#FEFEFE"/>
						<stop  offset="1" style="stop-color:#1D1D1D"/>
					</radialGradient>
					<path fill="url(#SVGID_10_)" d="M51.185,11.678l1.11,0.753h0.888v-0.879l-1.11-0.503L51.185,11.678"/>
				</g>
			</g>
			<g>
				<g>
					
						<radialGradient id="SVGID_11_" cx="-357.9445" cy="-1052.4985" r="30.9304" fx="-357.716" fy="-1052.2694" gradientTransform="matrix(1.9061 0 0 -1.9061 737.3484 -1983.3115)" gradientUnits="userSpaceOnUse">
						<stop  offset="0" style="stop-color:#FFFFFF"/>
						<stop  offset="0.3793" style="stop-color:#FEFEFE"/>
						<stop  offset="1" style="stop-color:#1D1D1D"/>
					</radialGradient>
					<path fill="url(#SVGID_11_)" d="M48.298,10.673l-0.555,1.382h1.11l0.556-1.258l1.443-1.006l1.111,0.378l2.221,1.508
						l1.111-1.005l-1.222-0.504l-0.555-1.132l-2.11-0.251l-0.112-0.629l-0.999,0.252l-0.444,0.88l-0.555-1.132l-0.222,0.504
						l0.111,1.257L48.298,10.673"/>
				</g>
			</g>
			<g>
				<g>
					
						<radialGradient id="SVGID_12_" cx="-357.9434" cy="-1052.4911" r="30.909" fx="-357.7151" fy="-1052.2623" gradientTransform="matrix(1.9061 0 0 -1.9061 737.3484 -1983.3115)" gradientUnits="userSpaceOnUse">
						<stop  offset="0" style="stop-color:#FFFFFF"/>
						<stop  offset="0.3793" style="stop-color:#FEFEFE"/>
						<stop  offset="1" style="stop-color:#1D1D1D"/>
					</radialGradient>
					<path fill="url(#SVGID_12_)" d="M52.295,7.53l0.555-0.502l1.111-0.251c0.76-0.37,1.524-0.619,2.331-0.88L55.85,5.143
						l-1.433,0.206l-0.678,0.675l-1.117,0.163l-0.995,0.467l-0.481,0.233l-0.295,0.395L52.295,7.53"/>
				</g>
			</g>
			<g>
				<g>
					
						<radialGradient id="SVGID_13_" cx="-357.9434" cy="-1052.499" r="30.9351" fx="-357.715" fy="-1052.27" gradientTransform="matrix(1.9061 0 0 -1.9061 737.3484 -1983.3115)" gradientUnits="userSpaceOnUse">
						<stop  offset="0" style="stop-color:#FFFFFF"/>
						<stop  offset="0.3793" style="stop-color:#FEFEFE"/>
						<stop  offset="1" style="stop-color:#1D1D1D"/>
					</radialGradient>
					<path fill="url(#SVGID_13_)" d="M54.183,19.472l0.667-1.006l-1-0.754L54.183,19.472"/>
				</g>
			</g>
		</g>
		
			<radialGradient id="SVGID_14_" cx="-376.4922" cy="-955.9224" r="31.9917" gradientTransform="matrix(2.0833 0 0 -2.0833 832.9888 -1975.8647)" gradientUnits="userSpaceOnUse">
			<stop  offset="0" style="stop-color:#FFFFFF"/>
			<stop  offset="1" style="stop-color:#FFFFFF;stop-opacity:0.1649"/>
		</radialGradient>
		<path fill="none" stroke="url(#SVGID_14_)" stroke-width="0.8005" d="M90.495,32.978c0,15.529-12.587,28.116-28.114,28.116
			c-15.528,0-28.115-12.587-28.115-28.116c0-15.53,12.588-28.115,28.115-28.115C77.907,4.862,90.495,17.45,90.495,32.978z"/>
	</g>
</g>
</svg>
