<?xml version="1.0" encoding="utf-8"?>
<!-- Generator: Adobe Illustrator 16.0.0, SVG Export Plug-In . SVG Version: 6.00 Build 0)  -->
<!DOCTYPE svg PUBLIC "-//W3C//DTD SVG 1.1//EN" "http://www.w3.org/Graphics/SVG/1.1/DTD/svg11.dtd">
<svg version="1.1" id="Layer_1" xmlns="http://www.w3.org/2000/svg" xmlns:xlink="http://www.w3.org/1999/xlink" x="0px" y="0px"
	 width="100px" height="100px" viewBox="0 0 100 100" enable-background="new 0 0 100 100" xml:space="preserve">
<path d="M50.487,3.916c12.986,0,24.044,4.534,33.163,13.598c4.364,4.365,7.683,9.355,9.947,14.965
	C95.864,38.088,97,44.043,97,50.344c0,6.356-1.122,12.314-3.358,17.865c-2.238,5.554-5.542,10.462-9.906,14.716
	c-4.531,4.478-9.672,7.906-15.422,10.28c-5.746,2.378-11.688,3.565-17.824,3.565c-6.134,0-12.007-1.171-17.618-3.522
	c-5.61-2.35-10.64-5.747-15.089-10.196S9.948,73.588,7.626,68.003C5.305,62.42,4.144,56.536,4.144,50.344
	c0-6.135,1.174-12.035,3.523-17.701c2.348-5.666,5.762-10.737,10.238-15.214C26.749,8.422,37.608,3.916,50.487,3.916z M50.654,12.29
	c-10.61,0-19.538,3.705-26.779,11.11c-3.65,3.704-6.455,7.862-8.416,12.478c-1.964,4.615-2.944,9.438-2.944,14.468
	c0,4.975,0.979,9.77,2.944,14.384c1.963,4.619,4.766,8.735,8.416,12.355c3.647,3.62,7.763,6.382,12.353,8.291
	c4.587,1.907,9.397,2.859,14.426,2.859c4.973,0,9.793-0.964,14.47-2.899c4.672-1.938,8.88-4.727,12.644-8.373
	c7.237-7.077,10.855-15.946,10.855-26.616c0-5.141-0.937-10.003-2.816-14.591c-1.876-4.588-4.615-8.677-8.203-12.272
	C70.136,16.021,61.155,12.29,50.654,12.29z M50.073,42.636l-6.219,3.233c-0.665-1.379-1.48-2.349-2.446-2.901
	c-0.967-0.551-1.864-0.829-2.695-0.829c-4.143,0-6.218,2.735-6.218,8.208c0,2.487,0.526,4.475,1.574,5.968
	c1.051,1.493,2.599,2.24,4.644,2.24c2.709,0,4.615-1.328,5.722-3.979l5.72,2.901c-1.216,2.269-2.903,4.05-5.057,5.348
	c-2.154,1.301-4.531,1.95-7.13,1.95c-4.146,0-7.493-1.27-10.035-3.814c-2.542-2.542-3.812-6.081-3.812-10.612
	c0-4.421,1.284-7.93,3.854-10.528c2.57-2.597,5.818-3.896,9.743-3.896C43.468,35.92,47.586,38.159,50.073,42.636z M76.853,42.636
	l-6.136,3.233c-0.663-1.379-1.481-2.349-2.445-2.901c-0.972-0.551-1.898-0.829-2.777-0.829c-4.146,0-6.22,2.735-6.22,8.208
	c0,2.487,0.524,4.475,1.575,5.968c1.049,1.493,2.597,2.24,4.645,2.24c2.704,0,4.614-1.328,5.716-3.979l5.804,2.901
	c-1.27,2.269-2.984,4.05-5.138,5.348c-2.153,1.301-4.502,1.95-7.045,1.95c-4.202,0-7.558-1.27-10.071-3.814
	c-2.519-2.542-3.774-6.081-3.774-10.612c0-4.421,1.283-7.93,3.854-10.528c2.57-2.597,5.817-3.896,9.74-3.896
	C70.329,35.92,74.421,38.159,76.853,42.636z"/>
</svg>
