<?xml version="1.0" encoding="utf-8"?>
<!-- Generator: Adobe Illustrator 16.0.0, SVG Export Plug-In . SVG Version: 6.00 Build 0)  -->
<!DOCTYPE svg PUBLIC "-//W3C//DTD SVG 1.1//EN" "http://www.w3.org/Graphics/SVG/1.1/DTD/svg11.dtd">
<svg version="1.1" id="Layer_1" xmlns="http://www.w3.org/2000/svg" xmlns:xlink="http://www.w3.org/1999/xlink" x="0px" y="0px"
	 width="100px" height="100px" viewBox="0 0 100 100" enable-background="new 0 0 100 100" xml:space="preserve">
<path fill="#FFFFFF" d="M50.487,3.916c12.986,0,24.044,4.534,33.164,13.598c4.363,4.365,7.683,9.355,9.947,14.965
	C95.863,38.088,97,44.043,97,50.344c0,6.356-1.122,12.314-3.357,17.865c-2.238,5.555-5.543,10.462-9.906,14.716
	c-4.531,4.478-9.672,7.906-15.422,10.28c-5.746,2.378-11.688,3.564-17.824,3.564c-6.134,0-12.007-1.17-17.618-3.521
	c-5.61-2.35-10.64-5.747-15.089-10.196c-4.449-4.448-7.835-9.464-10.157-15.049C5.305,62.42,4.144,56.536,4.144,50.344
	c0-6.135,1.174-12.035,3.523-17.701c2.348-5.666,5.762-10.737,10.238-15.214C26.749,8.422,37.608,3.916,50.487,3.916z M50.654,12.29
	c-10.61,0-19.538,3.705-26.779,11.11c-3.65,3.704-6.455,7.862-8.416,12.478c-1.964,4.615-2.944,9.438-2.944,14.468
	c0,4.974,0.979,9.77,2.944,14.384c1.963,4.619,4.766,8.734,8.416,12.354c3.647,3.62,7.763,6.382,12.353,8.291
	c4.587,1.907,9.397,2.858,14.426,2.858c4.973,0,9.793-0.963,14.47-2.898c4.672-1.938,8.88-4.727,12.644-8.373
	c7.237-7.077,10.855-15.945,10.855-26.616c0-5.141-0.938-10.003-2.816-14.591c-1.875-4.588-4.615-8.677-8.203-12.272
	C70.137,16.021,61.154,12.29,50.654,12.29z M50.073,42.636l-6.219,3.233c-0.665-1.379-1.48-2.349-2.446-2.901
	c-0.967-0.551-1.864-0.829-2.695-0.829c-4.143,0-6.218,2.735-6.218,8.208c0,2.487,0.526,4.475,1.574,5.967
	c1.051,1.494,2.599,2.24,4.644,2.24c2.709,0,4.615-1.328,5.722-3.979l5.72,2.9c-1.216,2.27-2.903,4.051-5.057,5.349
	c-2.154,1.301-4.531,1.95-7.13,1.95c-4.146,0-7.493-1.271-10.035-3.814c-2.542-2.542-3.812-6.081-3.812-10.612
	c0-4.421,1.284-7.93,3.854-10.528c2.57-2.597,5.818-3.896,9.743-3.896C43.468,35.92,47.586,38.159,50.073,42.636z M76.854,42.636
	l-6.137,3.233c-0.662-1.379-1.48-2.349-2.445-2.901c-0.972-0.551-1.897-0.829-2.776-0.829c-4.146,0-6.22,2.735-6.22,8.208
	c0,2.487,0.523,4.475,1.574,5.967c1.049,1.494,2.598,2.24,4.646,2.24c2.704,0,4.614-1.328,5.716-3.979l5.805,2.9
	c-1.271,2.27-2.984,4.051-5.139,5.349c-2.152,1.301-4.502,1.95-7.045,1.95c-4.202,0-7.559-1.271-10.07-3.814
	c-2.52-2.542-3.775-6.081-3.775-10.612c0-4.421,1.283-7.93,3.854-10.528c2.57-2.597,5.817-3.896,9.74-3.896
	C70.329,35.92,74.421,38.159,76.854,42.636z"/>
</svg>
