<?xml version="1.0" encoding="utf-8"?>
<!-- Generator: Adobe Illustrator 16.0.3, SVG Export Plug-In . SVG Version: 6.00 Build 0)  -->
<!DOCTYPE svg PUBLIC "-//W3C//DTD SVG 1.1//EN" "http://www.w3.org/Graphics/SVG/1.1/DTD/svg11.dtd">
<svg version="1.1" xmlns="http://www.w3.org/2000/svg" xmlns:xlink="http://www.w3.org/1999/xlink" x="0px" y="0px" width="189px"
	 height="133px" viewBox="-114.5 -171.5 189 133" enable-background="new -114.5 -171.5 189 133" xml:space="preserve">
<g id="Layer_1">
	<g>
		
			<radialGradient id="SVGID_1_" cx="69.2598" cy="-80.6001" r="9.8367" gradientTransform="matrix(3.425 0 0 -1.5755 -257.2134 -208.5644)" gradientUnits="userSpaceOnUse">
			<stop  offset="0" style="stop-color:#000000"/>
			<stop  offset="1" style="stop-color:#000000;stop-opacity:0"/>
		</radialGradient>
		<path fill="url(#SVGID_1_)" d="M13.691-81.578c0,8.559-15.084,15.497-33.691,15.497c-18.606,0-33.69-6.938-33.69-15.497l0,0
			c0-8.56,15.084-15.498,33.69-15.498C-1.393-97.076,13.691-90.138,13.691-81.578L13.691-81.578z"/>
		
			<radialGradient id="SVGID_2_" cx="108.4795" cy="-8.2656" r="24.0084" gradientTransform="matrix(2.0833 0 0 -2.0833 -256.5423 -136.1257)" gradientUnits="userSpaceOnUse">
			<stop  offset="0" style="stop-color:#D3E9FF"/>
			<stop  offset="0.1552" style="stop-color:#D3E9FF"/>
			<stop  offset="0.75" style="stop-color:#4074AE"/>
			<stop  offset="1" style="stop-color:#36486C"/>
		</radialGradient>
		<path fill="url(#SVGID_2_)" stroke="#39396C" stroke-width="0.8005" d="M12.336-105.95c0,17.86-14.479,32.338-32.336,32.338
			S-52.336-88.09-52.336-105.95S-37.858-138.286-20-138.286C-2.141-138.286,12.336-123.809,12.336-105.95z"/>
		
			<radialGradient id="SVGID_3_" cx="102.5176" cy="-21.3394" r="26.1466" gradientTransform="matrix(2.0542 0 0 -1.7662 -235.9294 -167.9949)" gradientUnits="userSpaceOnUse">
			<stop  offset="0" style="stop-color:#FFFFFF"/>
			<stop  offset="1" style="stop-color:#FFFFFF;stop-opacity:0"/>
		</radialGradient>
		<path opacity="0.4216" fill="url(#SVGID_3_)" enable-background="new    " d="M-1.975-119.649c0,8.56-8.07,15.498-18.025,15.498
			s-18.024-6.938-18.024-15.498c0-8.559,8.069-15.498,18.024-15.498S-1.975-128.208-1.975-119.649z"/>
		<g transform="matrix(.98237,0,0,.98237,.12108,.23291)">
			<path fill-opacity="0.7135" d="M11.519-113.017L11.519-113.017l-0.909,1.029c-0.557-0.657-1.183-1.208-1.817-1.785L7.4-113.568
				l-1.273-1.439v1.782l1.091,0.826l0.726,0.823l0.971-1.097c0.244,0.457,0.485,0.915,0.728,1.372v1.371l-1.093,1.234l-2,1.373
				l-1.515,1.511l-0.97-1.1l0.485-1.234l-0.968-1.098l-1.636-3.498L0.55-114.32l-0.366,0.411l0.547,1.99l1.03,1.166
				c0.588,1.697,1.169,3.319,1.94,4.941c1.197,0,2.326-0.127,3.515-0.276v0.961l-1.455,3.568l-1.334,1.507l-1.09,2.337v3.84
				l0.364,1.51l-0.606,0.684l-1.334,0.824l-1.395,1.166L1.52-88.39l-1.577,1.375l0.302,0.89l-2.364,2.677h-1.576l-1.333,0.825h-0.85
				v-1.098l-0.363-2.198c-0.468-1.377-0.956-2.746-1.453-4.113c0-1.01,0.06-2.01,0.12-3.02l0.607-1.371l-0.85-1.649l0.063-2.263
				l-1.153-1.303l0.577-1.886l-0.938-1.064h-1.638l-0.546-0.617l-1.636,1.03l-0.667-0.757l-1.515,1.304l-3.092-3.499l-1.211-2.882
				l1.091-1.645l-0.605-0.685l1.332-3.158c1.093-1.361,2.237-2.668,3.394-3.979l2.062-0.549l2.302-0.273l1.577,0.412l2.243,2.262
				l0.787-0.891l1.09-0.137l2.062,0.685h1.577l1.092-0.961l0.485-0.685l-1.093-0.685l-1.819-0.137
				c-0.505-0.7-0.974-1.436-1.573-2.058l-0.607,0.273l-0.243,1.785l-1.091-1.234l-0.242-1.374l-1.212-0.958h-0.487l1.213,1.371
				l-0.485,1.234l-0.968,0.274l0.604-1.234l-1.092-0.547l-0.967-1.097l-1.82,0.41l-0.243,0.547l-1.09,0.687l-0.606,1.51
				l-1.515,0.754l-0.668-0.754h-0.726v-2.47l1.577-0.824h1.211l-0.244-0.959l-0.967-0.961l1.634-0.343l0.909-1.027l0.728-1.236
				h1.334l-0.364-0.959l0.85-0.549v1.098l1.817,0.411l1.818-1.509l0.121-0.687l1.575-1.097c-0.57,0.071-1.14,0.123-1.696,0.274
				v-1.236l0.604-1.372h-0.604l-1.332,1.235l-0.365,0.686l0.365,0.962l-0.608,1.645l-0.969-0.549l-0.846-0.959l-1.336,0.959
				l-0.485-2.194l2.302-1.509v-0.824l1.456-0.96l2.303-0.55l1.577,0.55l2.908,0.549l-0.726,0.823h-1.578l1.578,1.646l1.212-1.371
				l0.368-0.603c0,0,4.648,4.166,7.305,8.722C10.271-119.482,11.519-114.108,11.519-113.017L11.519-113.017z"/>
			<path fill-opacity="0.7135" d="M-18.5-132.159l-0.121,0.823l0.851,0.549l1.451-0.96l-0.726-0.823l-0.971,0.549L-18.5-132.159"/>
			<path fill-opacity="0.7135" d="M-17.166-137.784l-3.153-1.235l-3.634,0.411l-4.486,1.235l-0.848,0.824l2.787,1.92v1.098
				l-1.091,1.097l1.456,2.883l0.966-0.551l1.215-1.92c1.873-0.579,3.553-1.235,5.332-2.058L-17.166-137.784"/>
			<path fill-opacity="0.7135" d="M-13.893-126.257l-0.485-1.236l-0.85,0.275l0.245,1.508L-13.893-126.257"/>
			<path fill-opacity="0.7135" d="M-13.409-126.535l-0.243,1.649l1.334-0.275l0.968-0.959l-0.848-0.824
				c-0.285-0.758-0.613-1.467-0.969-2.195h-0.727v0.823l0.484,0.549V-126.535"/>
			<path fill-opacity="0.7135" d="M-31.349-100.465l-0.97-1.921l-1.818-0.412l-0.97-2.606l-2.424,0.274l-2.06-1.508l-2.183,1.92
				v0.303c-0.661-0.191-1.472-0.217-2.06-0.579l-0.485-1.371v-1.51l-1.454,0.137l0.364-2.881h-0.849l-0.848,1.098l-0.849,0.41
				l-1.213-0.684l-0.121-1.51l0.243-1.647l1.819-1.371h1.454l0.242-0.824l1.818,0.41l1.334,1.648l0.243-2.745l2.304-1.92
				l0.848-2.059l1.697-0.686l0.97-1.371l2.182-0.414l1.092-1.645h-3.274l2.061-0.961h1.453l2.062-0.687l0.243-0.821l-0.728-0.687
				l-0.849-0.275l0.243-0.823l-0.604-1.234l-1.456,0.547l0.244-1.097l-1.697-0.961l-1.333,2.331l0.121,0.824l-1.334,0.551
				l-0.849,1.782l-0.363-1.646l-2.304-0.961l-0.364-1.234l3.031-1.785l1.334-1.235l0.122-1.509l-0.727-0.412l-0.97-0.138
				l-0.606,1.51c0,0-1.013,0.199-1.274,0.263c-3.329,3.067-10.055,9.688-11.617,22.189c0.062,0.29,1.132,1.97,1.132,1.97
				l2.545,1.509l2.546,0.686l1.092,1.374l1.696,1.234l0.97-0.137l0.727,0.327v0.222l-0.969,2.606l-0.728,1.098l0.243,0.551
				l-0.606,2.055l2.182,3.98l2.182,1.922l0.971,1.371l-0.122,2.883l0.728,1.645l-0.728,3.156c0,0-0.057-0.019,0.036,0.296
				c0.093,0.317,3.884,2.421,4.125,2.241l0.445-0.342l-0.242-0.683l0.969-0.961l0.364-0.961l1.576-0.551l1.213-3.019l-0.364-0.821
				l0.847-1.233l1.819-0.414l0.97-2.195l-0.243-2.743l1.454-2.058l0.244-2.059C-27.4-98.432-29.374-99.448-31.349-100.465"/>
			<path fill-opacity="0.7135" d="M-34.016-131.61l1.211,0.823h0.971v-0.96l-1.212-0.549L-34.016-131.61"/>
			<path fill-opacity="0.7135" d="M-37.167-132.707l-0.606,1.509h1.212l0.606-1.372l1.576-1.098l1.212,0.412l2.424,1.646
				l1.215-1.097l-1.336-0.549l-0.606-1.235l-2.302-0.274l-0.122-0.686l-1.091,0.275l-0.484,0.961l-0.606-1.236l-0.242,0.549
				l0.121,1.372L-37.167-132.707"/>
			<path fill-opacity="0.7135" d="M-32.805-136.138l0.607-0.548l1.213-0.274c0.83-0.404,1.664-0.676,2.545-0.961l-0.483-0.823
				l-1.566,0.225l-0.74,0.737l-1.219,0.177l-1.084,0.509l-0.526,0.255l-0.322,0.431L-32.805-136.138"/>
			<path fill-opacity="0.7135" d="M-30.744-123.103l0.729-1.097l-1.093-0.823L-30.744-123.103"/>
		</g>
		<g transform="matrix(.98237,0,0,.98237,-8.095179e-2,3.088300e-2)">
			<g>
				<g>
					
						<radialGradient id="SVGID_4_" cx="113.2772" cy="-11.1324" r="33.7708" fx="113.5266" fy="-10.8823" gradientTransform="matrix(2.0466 0 0 -2.0466 -261.3843 -142.3558)" gradientUnits="userSpaceOnUse">
						<stop  offset="0" style="stop-color:#FFFFFF"/>
						<stop  offset="0.3793" style="stop-color:#FEFEFE"/>
						<stop  offset="1" style="stop-color:#1D1D1D"/>
					</radialGradient>
					<path fill="url(#SVGID_4_)" d="M11.724-113.155L11.724-113.155l-0.909,1.029c-0.557-0.657-1.182-1.208-1.817-1.785
						l-1.394,0.205l-1.273-1.439v1.782l1.093,0.826l0.726,0.823l0.97-1.097c0.245,0.457,0.485,0.915,0.728,1.372v1.371l-1.093,1.234
						l-2,1.373l-1.514,1.512l-0.971-1.101l0.486-1.234l-0.97-1.098l-1.636-3.498l-1.394-1.576l-0.365,0.411l0.548,1.99l1.028,1.166
						c0.589,1.697,1.169,3.319,1.942,4.942c1.197,0,2.326-0.128,3.515-0.277v0.961l-1.455,3.567l-1.334,1.509l-1.092,2.335v3.84
						l0.366,1.512L3.302-91.82l-1.336,0.824L0.573-89.83l1.152,1.303L0.15-87.152l0.303,0.889l-2.366,2.678h-1.575l-1.334,0.824
						h-0.85v-1.097l-0.361-2.198c-0.469-1.378-0.958-2.745-1.455-4.114c0-1.009,0.061-2.009,0.121-3.019l0.608-1.371l-0.851-1.647
						l0.062-2.264L-8.7-99.777l0.577-1.886l-0.937-1.065H-10.7l-0.545-0.617l-1.636,1.03l-0.666-0.757l-1.517,1.303l-3.09-3.498
						l-1.213-2.883l1.092-1.645l-0.606-0.685l1.332-3.158c1.095-1.361,2.239-2.668,3.394-3.979l2.062-0.549l2.303-0.273l1.577,0.412
						l2.242,2.262l0.788-0.891l1.091-0.137l2.062,0.685h1.576l1.091-0.961l0.486-0.685l-1.093-0.685l-1.819-0.137
						c-0.505-0.7-0.974-1.436-1.575-2.058l-0.606,0.273l-0.243,1.785l-1.092-1.234l-0.241-1.374l-1.211-0.958h-0.487l1.213,1.371
						l-0.485,1.234l-0.97,0.274l0.606-1.234l-1.093-0.547l-0.967-1.097l-1.82,0.41l-0.241,0.547l-1.092,0.687l-0.606,1.51
						l-1.513,0.754l-0.669-0.754h-0.726v-2.47l1.576-0.824h1.213l-0.245-0.959l-0.968-0.961l1.636-0.343l0.909-1.027l0.726-1.236
						h1.336l-0.366-0.959l0.85-0.549v1.098l1.818,0.411l1.817-1.509l0.122-0.687l1.575-1.097c-0.571,0.071-1.14,0.123-1.697,0.274
						v-1.236l0.606-1.372h-0.606l-1.332,1.235l-0.365,0.686l0.365,0.962l-0.606,1.645l-0.969-0.549l-0.847-0.959l-1.335,0.959
						l-0.485-2.194l2.302-1.509v-0.824l1.455-0.96l2.302-0.55l1.577,0.55l2.909,0.549l-0.727,0.823h-1.576l1.576,1.646l1.213-1.371
						l0.368-0.603c0,0,4.647,4.166,7.304,8.722C10.478-119.62,11.724-114.246,11.724-113.155L11.724-113.155z"/>
				</g>
			</g>
			<g>
				<g>
					
						<radialGradient id="SVGID_5_" cx="113.2763" cy="-11.1279" r="33.7649" fx="113.5256" fy="-10.8779" gradientTransform="matrix(2.0466 0 0 -2.0466 -261.3843 -142.3558)" gradientUnits="userSpaceOnUse">
						<stop  offset="0" style="stop-color:#FFFFFF"/>
						<stop  offset="0.3793" style="stop-color:#FEFEFE"/>
						<stop  offset="1" style="stop-color:#1D1D1D"/>
					</radialGradient>
					<path fill="url(#SVGID_5_)" d="M-18.293-132.296l-0.122,0.823l0.85,0.549l1.453-0.96l-0.726-0.823l-0.971,0.549
						L-18.293-132.296"/>
				</g>
			</g>
			<g>
				<g>
					
						<radialGradient id="SVGID_6_" cx="113.2782" cy="-11.1324" r="33.7724" fx="113.5276" fy="-10.8823" gradientTransform="matrix(2.0466 0 0 -2.0466 -261.3843 -142.3558)" gradientUnits="userSpaceOnUse">
						<stop  offset="0" style="stop-color:#FFFFFF"/>
						<stop  offset="0.3793" style="stop-color:#FEFEFE"/>
						<stop  offset="1" style="stop-color:#1D1D1D"/>
					</radialGradient>
					<path fill="url(#SVGID_6_)" d="M-16.959-137.921l-3.153-1.235l-3.634,0.411l-4.487,1.235l-0.849,0.824l2.788,1.92v1.098
						l-1.091,1.097l1.455,2.883l0.967-0.551l1.216-1.92c1.873-0.579,3.551-1.235,5.331-2.058L-16.959-137.921"/>
				</g>
			</g>
			<g>
				<g>
					
						<radialGradient id="SVGID_7_" cx="113.2753" cy="-11.1324" r="33.7813" fx="113.5247" fy="-10.8822" gradientTransform="matrix(2.0466 0 0 -2.0466 -261.3843 -142.3558)" gradientUnits="userSpaceOnUse">
						<stop  offset="0" style="stop-color:#FFFFFF"/>
						<stop  offset="0.3793" style="stop-color:#FEFEFE"/>
						<stop  offset="1" style="stop-color:#1D1D1D"/>
					</radialGradient>
					<path fill="url(#SVGID_7_)" d="M-13.686-126.394l-0.486-1.236l-0.85,0.275l0.244,1.508L-13.686-126.394"/>
				</g>
			</g>
			<g>
				<g>
					
						<radialGradient id="SVGID_8_" cx="113.2772" cy="-11.1324" r="33.774" fx="113.5267" fy="-10.8823" gradientTransform="matrix(2.0466 0 0 -2.0466 -261.3843 -142.3558)" gradientUnits="userSpaceOnUse">
						<stop  offset="0" style="stop-color:#FFFFFF"/>
						<stop  offset="0.3793" style="stop-color:#FEFEFE"/>
						<stop  offset="1" style="stop-color:#1D1D1D"/>
					</radialGradient>
					<path fill="url(#SVGID_8_)" d="M-13.204-126.672l-0.243,1.649l1.334-0.275l0.969-0.959l-0.848-0.824
						c-0.285-0.758-0.612-1.467-0.969-2.195h-0.726v0.823l0.482,0.549V-126.672"/>
				</g>
			</g>
			<g>
				<g>
					
						<radialGradient id="SVGID_9_" cx="113.2763" cy="-11.1329" r="33.7763" fx="113.5257" fy="-10.8827" gradientTransform="matrix(2.0466 0 0 -2.0466 -261.3843 -142.3558)" gradientUnits="userSpaceOnUse">
						<stop  offset="0" style="stop-color:#FFFFFF"/>
						<stop  offset="0.3793" style="stop-color:#FEFEFE"/>
						<stop  offset="1" style="stop-color:#1D1D1D"/>
					</radialGradient>
					<path fill="url(#SVGID_9_)" d="M-31.143-100.601l-0.97-1.922l-1.818-0.412l-0.97-2.605l-2.424,0.273l-2.06-1.509l-2.183,1.92
						v0.303c-0.661-0.191-1.472-0.216-2.06-0.579l-0.485-1.371v-1.51l-1.454,0.137l0.364-2.881h-0.849l-0.848,1.098l-0.849,0.41
						l-1.213-0.684l-0.121-1.51l0.243-1.647l1.819-1.371h1.454l0.242-0.824l1.818,0.41l1.334,1.648l0.243-2.745l2.304-1.92
						l0.848-2.059l1.697-0.686l0.97-1.371l2.182-0.414l1.091-1.645h-3.273l2.061-0.961h1.454l2.061-0.687l0.244-0.821l-0.729-0.687
						l-0.848-0.275l0.243-0.823l-0.606-1.234l-1.455,0.547l0.243-1.097l-1.697-0.961l-1.333,2.331l0.121,0.824l-1.334,0.551
						l-0.849,1.782l-0.363-1.646l-2.304-0.961l-0.364-1.234l3.031-1.785l1.334-1.235l0.122-1.509l-0.727-0.412l-0.97-0.138
						l-0.606,1.51c0,0-1.013,0.198-1.274,0.263c-3.329,3.067-10.055,9.688-11.617,22.19c0.062,0.289,1.132,1.97,1.132,1.97
						l2.545,1.509l2.546,0.687l1.092,1.372l1.696,1.235l0.97-0.137l0.727,0.328v0.221l-0.969,2.606l-0.728,1.097l0.243,0.55
						l-0.606,2.056l2.182,3.979l2.182,1.922l0.971,1.372l-0.122,2.882l0.728,1.645l-0.728,3.157c0,0-0.057-0.02,0.036,0.296
						c0.092,0.315,3.884,2.42,4.125,2.241l0.445-0.342l-0.242-0.684l0.969-0.96l0.364-0.96l1.577-0.551l1.212-3.02l-0.363-0.82
						l0.847-1.235l1.819-0.414l0.97-2.194l-0.243-2.742l1.453-2.059l0.243-2.058C-27.194-98.568-29.168-99.585-31.143-100.601"/>
				</g>
			</g>
			<g>
				<g>
					
						<radialGradient id="SVGID_10_" cx="113.2772" cy="-11.1275" r="33.7492" fx="113.5265" fy="-10.8775" gradientTransform="matrix(2.0466 0 0 -2.0466 -261.3843 -142.3558)" gradientUnits="userSpaceOnUse">
						<stop  offset="0" style="stop-color:#FFFFFF"/>
						<stop  offset="0.3793" style="stop-color:#FEFEFE"/>
						<stop  offset="1" style="stop-color:#1D1D1D"/>
					</radialGradient>
					<path fill="url(#SVGID_10_)" d="M-33.81-131.748l1.212,0.823h0.97v-0.96l-1.212-0.549L-33.81-131.748"/>
				</g>
			</g>
			<g>
				<g>
					
						<radialGradient id="SVGID_11_" cx="113.2772" cy="-11.1309" r="33.767" fx="113.5266" fy="-10.8808" gradientTransform="matrix(2.0466 0 0 -2.0466 -261.3843 -142.3558)" gradientUnits="userSpaceOnUse">
						<stop  offset="0" style="stop-color:#FFFFFF"/>
						<stop  offset="0.3793" style="stop-color:#FEFEFE"/>
						<stop  offset="1" style="stop-color:#1D1D1D"/>
					</radialGradient>
					<path fill="url(#SVGID_11_)" d="M-36.961-132.845l-0.606,1.509h1.212l0.606-1.372l1.576-1.098l1.213,0.412l2.424,1.646
						l1.213-1.097l-1.334-0.549l-0.606-1.235l-2.303-0.274l-0.122-0.686l-1.091,0.275l-0.484,0.961l-0.606-1.236l-0.242,0.549
						l0.121,1.372L-36.961-132.845"/>
				</g>
			</g>
			<g>
				<g>
					
						<radialGradient id="SVGID_12_" cx="113.2772" cy="-11.1284" r="33.7589" fx="113.5266" fy="-10.8784" gradientTransform="matrix(2.0466 0 0 -2.0466 -261.3843 -142.3558)" gradientUnits="userSpaceOnUse">
						<stop  offset="0" style="stop-color:#FFFFFF"/>
						<stop  offset="0.3793" style="stop-color:#FEFEFE"/>
						<stop  offset="1" style="stop-color:#1D1D1D"/>
					</radialGradient>
					<path fill="url(#SVGID_12_)" d="M-32.598-136.276l0.606-0.548l1.213-0.274c0.83-0.404,1.664-0.676,2.545-0.961l-0.483-0.823
						l-1.565,0.225l-0.74,0.737l-1.219,0.177l-1.085,0.509l-0.526,0.255l-0.322,0.431L-32.598-136.276"/>
				</g>
			</g>
			<g>
				<g>
					
						<radialGradient id="SVGID_13_" cx="113.2772" cy="-11.1309" r="33.7591" fx="113.5266" fy="-10.8809" gradientTransform="matrix(2.0466 0 0 -2.0466 -261.3843 -142.3558)" gradientUnits="userSpaceOnUse">
						<stop  offset="0" style="stop-color:#FFFFFF"/>
						<stop  offset="0.3793" style="stop-color:#FEFEFE"/>
						<stop  offset="1" style="stop-color:#1D1D1D"/>
					</radialGradient>
					<path fill="url(#SVGID_13_)" d="M-30.537-123.24l0.728-1.097l-1.092-0.823L-30.537-123.24"/>
				</g>
			</g>
		</g>
		
			<radialGradient id="SVGID_14_" cx="106.3613" cy="-5.4043" r="34.8414" gradientTransform="matrix(2.0833 0 0 -2.0833 -256.5423 -136.1257)" gradientUnits="userSpaceOnUse">
			<stop  offset="0" style="stop-color:#FFFFFF"/>
			<stop  offset="1" style="stop-color:#FFFFFF;stop-opacity:0.1649"/>
		</radialGradient>
		<path fill="none" stroke="url(#SVGID_14_)" stroke-width="0.8005" d="M10.694-105.95c0,16.953-13.743,30.695-30.693,30.695
			c-16.952,0-30.694-13.742-30.694-30.695c0-16.953,13.743-30.693,30.694-30.693C-3.049-136.644,10.694-122.902,10.694-105.95z"/>
		<g>
		</g>
	</g>
</g>
<g id="Layer_2">
	<g>
		<g>
			<path d="M-103.118-137.069c-2.077-6.393-3.117-9.589-5.193-15.982c4.84-1.573,7.273-2.305,12.162-3.656
				c0.329,1.188,0.493,1.783,0.822,2.972c-3.468,0.958-5.196,1.467-8.639,2.538c0.419,1.347,0.628,2.02,1.047,3.367
				c2-0.622,3.003-0.923,5.012-1.507c0.343,1.179,0.515,1.769,0.857,2.948c-1.987,0.578-2.979,0.876-4.958,1.492
				c0.482,1.549,0.723,2.322,1.205,3.871c3.517-1.094,5.283-1.611,8.826-2.583c0.325,1.184,0.486,1.778,0.812,2.962
				C-95.97-139.33-98.363-138.614-103.118-137.069z"/>
			<path d="M-83.633-151.732c-0.149-0.085-0.317-0.17-0.505-0.254s-0.395-0.149-0.622-0.195s-0.476-0.069-0.748-0.067
				s-0.56,0.038-0.862,0.112c-0.49,0.12-0.867,0.295-1.131,0.522s-0.359,0.484-0.287,0.772c0.04,0.159,0.145,0.29,0.317,0.391
				s0.389,0.182,0.648,0.238s0.552,0.098,0.877,0.127s0.663,0.054,1.01,0.075c0.583,0.035,1.152,0.1,1.708,0.193
				s1.061,0.251,1.514,0.467s0.845,0.51,1.171,0.884s0.555,0.861,0.688,1.456c0.132,0.587,0.133,1.132,0.004,1.634
				s-0.371,0.954-0.724,1.359s-0.807,0.759-1.364,1.06s-1.201,0.541-1.933,0.72c-0.504,0.123-1.01,0.193-1.519,0.212
				s-1.004-0.009-1.484-0.083s-0.933-0.197-1.356-0.369s-0.802-0.388-1.133-0.647c0.656-0.896,0.988-1.343,1.656-2.236
				c0.167,0.086,0.366,0.178,0.599,0.276s0.49,0.181,0.772,0.247s0.583,0.104,0.903,0.118s0.647-0.021,0.981-0.103
				c0.548-0.134,0.981-0.321,1.298-0.562s0.43-0.555,0.338-0.942c-0.045-0.19-0.147-0.347-0.308-0.469s-0.373-0.222-0.637-0.299
				s-0.581-0.14-0.949-0.187s-0.784-0.089-1.244-0.129c-0.643-0.056-1.237-0.135-1.775-0.232s-1.013-0.243-1.425-0.438
				s-0.757-0.458-1.038-0.788s-0.492-0.76-0.631-1.289c-0.143-0.544-0.148-1.055-0.012-1.535s0.379-0.917,0.728-1.31
				s0.791-0.734,1.326-1.022s1.131-0.514,1.782-0.674c0.553-0.135,1.081-0.206,1.585-0.213s0.972,0.029,1.405,0.113
				s0.833,0.206,1.199,0.366s0.696,0.339,0.991,0.537C-82.549-153.033-82.913-152.6-83.633-151.732z"/>
			<path d="M-70.924-145.071c-0.865,0.167-1.675,0.178-2.436,0.033s-1.444-0.434-2.051-0.87s-1.129-1.011-1.568-1.728
				s-0.766-1.564-0.976-2.542s-0.261-1.885-0.15-2.724s0.365-1.584,0.762-2.234s0.935-1.193,1.61-1.629s1.468-0.743,2.374-0.918
				c1.33-0.257,2.518-0.184,3.554,0.213s1.872,1.178,2.504,2.337c-1.188,0.604-1.779,0.91-2.955,1.527
				c-0.273-0.426-0.622-0.749-1.046-0.968s-0.896-0.278-1.414-0.178c-0.403,0.078-0.751,0.229-1.044,0.455s-0.522,0.505-0.689,0.841
				s-0.27,0.724-0.309,1.162s-0.007,0.914,0.097,1.427s0.259,0.962,0.463,1.347s0.444,0.701,0.72,0.949s0.581,0.419,0.917,0.517
				s0.692,0.11,1.069,0.037c0.545-0.105,0.978-0.343,1.3-0.713s0.52-0.855,0.593-1.457c1.297,0.123,1.945,0.189,3.235,0.328
				c-0.16,1.336-0.624,2.399-1.39,3.2S-69.575-145.331-70.924-145.071z"/>
			<path d="M-55.573-147.872c-0.047-0.353-0.07-0.53-0.117-0.883c-0.125,0.167-0.281,0.333-0.466,0.5s-0.406,0.326-0.663,0.476
				s-0.546,0.28-0.868,0.393s-0.687,0.2-1.094,0.259c-0.646,0.094-1.261,0.099-1.846,0.014s-1.112-0.261-1.582-0.535
				s-0.866-0.641-1.188-1.099s-0.539-1.019-0.647-1.682c-0.114-0.694-0.065-1.317,0.146-1.87s0.53-1.031,0.958-1.434
				s0.935-0.729,1.523-0.977s1.204-0.418,1.845-0.511c0.617-0.089,1.175-0.114,1.67-0.076s0.951,0.121,1.369,0.246
				c-0.034-0.251-0.048-0.377-0.082-0.628c-0.089-0.666-0.358-1.126-0.806-1.381s-1.05-0.33-1.804-0.223
				c-0.771,0.109-1.462,0.319-2.076,0.624s-1.195,0.702-1.743,1.191c-0.562-0.932-0.845-1.397-1.414-2.326
				c0.276-0.242,0.594-0.481,0.954-0.716s0.756-0.452,1.187-0.651s0.897-0.375,1.4-0.524s1.036-0.263,1.596-0.342
				c0.393-0.056,0.802-0.093,1.226-0.111s0.842,0.005,1.254,0.068s0.811,0.182,1.194,0.353s0.73,0.413,1.04,0.725
				s0.573,0.709,0.788,1.19s0.361,1.068,0.445,1.758c0.377,3.108,0.566,4.662,0.944,7.771
				C-53.687-148.12-54.315-148.04-55.573-147.872z M-58.56-149.93c0.589-0.084,1.086-0.255,1.496-0.513s0.755-0.542,1.035-0.855
				c-0.07-0.525-0.106-0.788-0.176-1.313c-0.35-0.072-0.735-0.116-1.157-0.133s-0.848,0.005-1.28,0.066
				c-0.334,0.047-0.646,0.119-0.936,0.212s-0.539,0.214-0.746,0.359s-0.362,0.315-0.465,0.512s-0.135,0.421-0.097,0.668
				c0.06,0.394,0.289,0.682,0.688,0.867S-59.254-149.83-58.56-149.93z"/>
			<path d="M-43.065-148.95c-0.618,0.053-1.16-0.008-1.629-0.184s-0.858-0.425-1.166-0.749c0.164,1.703,0.245,2.554,0.409,4.257
				c-1.21,0.687-1.811,1.035-3.007,1.735c-0.736-6.79-1.104-10.186-1.839-16.977c1.338-0.145,2.006-0.213,3.346-0.342
				c0.034,0.354,0.052,0.532,0.086,0.886c0.251-0.377,0.604-0.694,1.059-0.952s1.01-0.416,1.666-0.473
				c0.815-0.07,1.572,0.009,2.266,0.237s1.296,0.596,1.808,1.104s0.922,1.155,1.234,1.936s0.5,1.69,0.569,2.727
				c0.066,0.998-0.006,1.9-0.217,2.709s-0.531,1.505-0.96,2.088s-0.951,1.044-1.567,1.387S-42.311-149.015-43.065-148.95z
				 M-43.821-151.894c0.811-0.071,1.412-0.419,1.808-1.043s0.553-1.479,0.468-2.569c-0.041-0.522-0.133-0.989-0.278-1.4
				s-0.339-0.757-0.583-1.035s-0.534-0.487-0.872-0.623s-0.719-0.185-1.144-0.147c-0.541,0.047-0.987,0.174-1.336,0.379
				s-0.629,0.476-0.839,0.81c0.186,1.932,0.28,2.898,0.466,4.83c0.093,0.109,0.213,0.216,0.362,0.323s0.323,0.201,0.519,0.281
				s0.413,0.138,0.654,0.175S-44.097-151.869-43.821-151.894z"/>
			<path d="M-29.46-149.773c-0.917,0.032-1.745-0.082-2.486-0.342s-1.383-0.653-1.925-1.181s-0.975-1.18-1.296-1.96
				s-0.513-1.669-0.57-2.668s0.033-1.9,0.271-2.708s0.609-1.502,1.116-2.08s1.137-1.03,1.885-1.356s1.6-0.51,2.552-0.543
				c0.817-0.029,1.588,0.066,2.31,0.281s1.348,0.556,1.878,1.021s0.951,1.059,1.262,1.776s0.473,1.569,0.487,2.554
				c0.003,0.242,0.003,0.53,0,0.862s-0.028,0.661-0.072,0.989c-3.356,0.049-5.034,0.102-8.387,0.254
				c0.051,0.396,0.166,0.743,0.342,1.04s0.393,0.546,0.65,0.746s0.547,0.348,0.868,0.445s0.66,0.141,1.018,0.128
				c0.585-0.021,1.094-0.138,1.527-0.35s0.827-0.544,1.183-0.999c0.823,0.753,1.232,1.13,2.044,1.89
				c-0.524,0.642-1.167,1.16-1.932,1.554S-28.406-149.811-29.46-149.773z M-29.816-159.882c-0.784,0.028-1.417,0.237-1.897,0.625
				s-0.751,0.972-0.816,1.75c2.125-0.096,3.187-0.135,5.313-0.19c-0.126-0.724-0.423-1.274-0.893-1.651
				S-29.149-159.905-29.816-159.882z"/>
			<path d="M-14.146-159.055c-0.123-0.12-0.264-0.245-0.424-0.373s-0.344-0.243-0.551-0.344s-0.44-0.185-0.702-0.251
				s-0.548-0.101-0.857-0.104c-0.501-0.006-0.907,0.069-1.217,0.223s-0.465,0.378-0.467,0.675c-0.001,0.164,0.069,0.315,0.209,0.457
				s0.329,0.273,0.564,0.392s0.504,0.234,0.81,0.343s0.624,0.216,0.953,0.323c0.552,0.179,1.085,0.384,1.597,0.613
				s0.959,0.509,1.342,0.831s0.685,0.704,0.906,1.148s0.322,0.972,0.303,1.581c-0.019,0.601-0.154,1.129-0.402,1.583
				s-0.593,0.832-1.033,1.137s-0.964,0.533-1.575,0.685s-1.291,0.225-2.039,0.215c-0.515-0.006-1.019-0.065-1.514-0.174
				s-0.963-0.258-1.406-0.45s-0.847-0.424-1.212-0.696s-0.673-0.576-0.927-0.91c0.852-0.704,1.28-1.056,2.144-1.753
				c0.139,0.125,0.308,0.266,0.507,0.419s0.426,0.295,0.681,0.43s0.537,0.249,0.841,0.341s0.626,0.141,0.967,0.146
				c0.561,0.007,1.022-0.067,1.387-0.221s0.551-0.428,0.559-0.826c0.004-0.195-0.056-0.373-0.179-0.532s-0.304-0.308-0.539-0.448
				s-0.524-0.28-0.866-0.417s-0.732-0.283-1.164-0.436c-0.604-0.214-1.155-0.438-1.648-0.666s-0.914-0.489-1.261-0.782
				s-0.614-0.633-0.802-1.023s-0.285-0.859-0.288-1.406c-0.003-0.563,0.119-1.058,0.369-1.489s0.591-0.794,1.023-1.087
				s0.942-0.514,1.528-0.659s1.213-0.213,1.879-0.205c0.565,0.007,1.091,0.069,1.578,0.188s0.928,0.271,1.323,0.459
				s0.75,0.408,1.062,0.654s0.587,0.502,0.823,0.767C-12.782-160.044-13.239-159.715-14.146-159.055z"/>
			<path d="M5.771-162.732c-0.499,5.447-0.747,8.171-1.246,13.619c-1.33-0.122-1.996-0.178-3.326-0.283
				c0.431-5.453,0.647-8.181,1.079-13.634c-2.077-0.164-3.117-0.237-5.196-0.363c0.076-1.25,0.112-1.873,0.188-3.123
				c5.62,0.34,8.429,0.581,14.031,1.198c-0.137,1.244-0.205,1.864-0.342,3.108C8.884-162.439,7.846-162.542,5.771-162.732z"/>
			<path d="M15.452-147.592c-0.887-0.118-1.668-0.366-2.346-0.746s-1.235-0.87-1.675-1.476s-0.754-1.319-0.941-2.138
				s-0.226-1.726-0.115-2.719s0.35-1.871,0.72-2.631s0.848-1.385,1.433-1.875s1.27-0.836,2.05-1.034s1.637-0.237,2.567-0.114
				s1.748,0.385,2.45,0.781s1.272,0.908,1.709,1.534s0.733,1.354,0.889,2.185s0.154,1.74,0,2.728s-0.429,1.852-0.82,2.594
				s-0.878,1.348-1.461,1.817s-1.25,0.798-2.003,0.987S16.339-147.474,15.452-147.592z M15.846-150.565
				c0.404,0.054,0.78,0.025,1.125-0.085s0.648-0.296,0.912-0.555s0.486-0.588,0.668-0.988s0.31-0.864,0.385-1.39
				c0.076-0.534,0.083-1.018,0.019-1.453s-0.188-0.816-0.374-1.142s-0.434-0.589-0.743-0.789s-0.672-0.329-1.086-0.384
				s-0.798-0.025-1.149,0.087s-0.659,0.301-0.923,0.567s-0.484,0.601-0.66,1.004s-0.295,0.872-0.361,1.407
				c-0.065,0.527-0.062,1.008,0.009,1.442s0.198,0.809,0.385,1.128s0.431,0.577,0.735,0.773S15.441-150.619,15.846-150.565z"/>
			<path d="M28.815-145.468c-0.778-0.144-1.461-0.411-2.049-0.801s-1.062-0.889-1.423-1.501s-0.603-1.333-0.722-2.165
				s-0.096-1.76,0.073-2.785c0.163-0.987,0.442-1.849,0.844-2.586s0.891-1.338,1.464-1.799s1.214-0.778,1.927-0.949
				s1.464-0.187,2.246-0.042c0.641,0.119,1.174,0.33,1.599,0.63s0.744,0.651,0.958,1.051c0.348-1.78,0.521-2.67,0.869-4.45
				c1.451-0.294,2.18-0.438,3.642-0.714c-1.41,6.788-2.114,10.182-3.524,16.97c-1.265-0.263-1.898-0.389-3.166-0.637
				c0.068-0.35,0.103-0.525,0.171-0.875c-0.327,0.318-0.735,0.536-1.223,0.653S29.451-145.351,28.815-145.468z M29.878-148.324
				c0.522,0.098,0.976,0.096,1.361-0.005s0.726-0.281,1.019-0.542c0.372-1.905,0.557-2.857,0.929-4.762
				c-0.06-0.131-0.147-0.27-0.264-0.416s-0.261-0.285-0.436-0.418s-0.375-0.25-0.599-0.353s-0.474-0.179-0.754-0.231
				c-0.832-0.155-1.522,0.017-2.069,0.514s-0.917,1.29-1.109,2.375c-0.091,0.516-0.119,0.989-0.083,1.424s0.134,0.82,0.295,1.154
				s0.384,0.608,0.668,0.823S29.468-148.4,29.878-148.324z"/>
			<path d="M45.405-142.161c0.086-0.346,0.131-0.519,0.217-0.865c-0.178,0.108-0.387,0.207-0.622,0.293s-0.5,0.15-0.794,0.194
				s-0.615,0.06-0.957,0.045s-0.714-0.069-1.116-0.165c-0.638-0.152-1.214-0.375-1.729-0.67s-0.938-0.656-1.274-1.084
				s-0.571-0.914-0.701-1.459s-0.125-1.146,0.019-1.802c0.151-0.687,0.423-1.248,0.825-1.683s0.876-0.762,1.424-0.979
				s1.143-0.333,1.783-0.345s1.277,0.059,1.91,0.21c0.609,0.146,1.138,0.327,1.587,0.545s0.844,0.466,1.188,0.737
				c0.062-0.246,0.092-0.369,0.153-0.614c0.164-0.652,0.084-1.18-0.239-1.583s-0.857-0.695-1.601-0.875
				c-0.76-0.184-1.486-0.247-2.171-0.19s-1.373,0.211-2.064,0.463c-0.179-1.074-0.27-1.611-0.457-2.685
				c0.347-0.123,0.731-0.227,1.154-0.312s0.871-0.141,1.347-0.167s0.976-0.017,1.5,0.031s1.063,0.138,1.616,0.272
				c0.388,0.094,0.783,0.212,1.186,0.352s0.786,0.317,1.148,0.529s0.692,0.468,0.987,0.77s0.527,0.655,0.702,1.06
				c0.174,0.404,0.272,0.869,0.295,1.396s-0.053,1.128-0.229,1.801c-0.797,3.028-1.197,4.542-1.995,7.571
				C47.261-141.691,46.642-141.851,45.405-142.161z M43.375-145.182c0.581,0.14,1.11,0.167,1.588,0.079s0.903-0.225,1.281-0.412
				c0.129-0.514,0.193-0.771,0.322-1.285c-0.3-0.196-0.643-0.379-1.031-0.551s-0.794-0.311-1.22-0.413
				c-0.33-0.08-0.647-0.129-0.952-0.149s-0.582,0-0.829,0.059s-0.455,0.16-0.624,0.305s-0.28,0.339-0.337,0.583
				c-0.09,0.388,0.017,0.743,0.32,1.063S42.691-145.346,43.375-145.182z"/>
			<path d="M55.318-134.624c-1.27-0.377-1.906-0.562-3.18-0.923c1.259-1.646,1.895-2.465,3.18-4.098
				c-0.487-5.186-0.775-7.782-1.437-12.981c1.343,0.366,2.015,0.553,3.354,0.935c0.345,3.048,0.5,4.57,0.785,7.613
				c0.039,0.395,0.047,1.189,0.047,1.189c0.007,0.002,0.217-0.341,0.334-0.501s0.233-0.317,0.349-0.47
				c1.911-2.388,2.881-3.575,4.846-5.933c1.327,0.413,1.99,0.625,3.313,1.055C62.117-143.178,59.8-140.353,55.318-134.624z"/>
		</g>
	</g>
	<g>
		<g>
			<path d="M-81.058-63.999c-1.867,3.555-2.816,5.327-4.752,8.854c-0.724-0.205-1.086-0.31-1.81-0.52
				c0.036-2.393,0.063-3.588,0.129-5.977c0.003-0.161,0.014-0.301,0.031-0.422s0.044-0.325,0.044-0.325
				c-0.001,0-0.09,0.186-0.147,0.294s-0.125,0.227-0.204,0.356c-1.239,2.044-1.866,3.063-3.133,5.094
				c-0.721-0.221-1.081-0.332-1.8-0.559c0.321-4.01,0.5-6.01,0.893-10.005c0.761,0.247,1.142,0.369,1.904,0.609
				c-0.236,2.24-0.349,3.359-0.564,5.603c-0.013,0.172-0.029,0.313-0.045,0.423s-0.047,0.313-0.047,0.313
				c0.001,0,0.091-0.187,0.142-0.288s0.123-0.227,0.215-0.379c1.189-1.937,1.779-2.908,2.945-4.855
				c0.644,0.195,0.966,0.291,1.61,0.48c-0.084,2.27-0.122,3.406-0.18,5.68c-0.002,0.18-0.008,0.325-0.021,0.438
				s-0.039,0.32-0.039,0.32c0.001,0,0.085-0.189,0.132-0.29s0.11-0.228,0.193-0.379c1.049-1.995,1.568-2.993,2.597-4.996
				C-82.203-64.313-81.822-64.207-81.058-63.999z"/>
			<path d="M-77.338-52.917c0.397-1.631,0.597-2.446,0.995-4.078c0.057-0.235,0.073-0.444,0.049-0.628s-0.081-0.344-0.169-0.48
				s-0.202-0.25-0.341-0.338s-0.299-0.154-0.479-0.199c-0.188-0.047-0.371-0.069-0.548-0.064s-0.342,0.044-0.493,0.116
				s-0.282,0.181-0.396,0.328s-0.202,0.341-0.263,0.579c-0.419,1.637-0.628,2.455-1.047,4.092c-0.75-0.192-1.125-0.287-1.874-0.485
				c0.948-3.584,1.423-5.378,2.371-8.962c0.807-0.135,1.208-0.205,2.01-0.346c-0.36,1.407-0.54,2.111-0.899,3.518
				c0.286-0.205,0.608-0.337,0.966-0.397s0.744-0.038,1.159,0.065c0.306,0.076,0.599,0.194,0.879,0.356s0.514,0.377,0.702,0.646
				s0.313,0.596,0.377,0.981s0.037,0.839-0.086,1.362c-0.413,1.754-0.621,2.632-1.033,4.386
				C-76.21-52.644-76.586-52.734-77.338-52.917z"/>
			<path d="M-70.281-51.134c-0.54-0.115-1.006-0.302-1.398-0.563s-0.7-0.582-0.929-0.965s-0.372-0.819-0.429-1.309
				s-0.019-1.018,0.11-1.586s0.324-1.061,0.583-1.476s0.572-0.748,0.937-0.995s0.772-0.409,1.225-0.485s0.937-0.058,1.456,0.053
				c0.445,0.094,0.849,0.248,1.212,0.462s0.661,0.487,0.893,0.817s0.388,0.718,0.473,1.165s0.072,0.952-0.04,1.515
				c-0.027,0.139-0.061,0.302-0.103,0.492s-0.096,0.374-0.162,0.556c-1.919-0.38-2.877-0.579-4.79-0.999
				c-0.031,0.231-0.02,0.443,0.037,0.638s0.143,0.368,0.26,0.519s0.26,0.277,0.43,0.379s0.359,0.176,0.566,0.22
				c0.339,0.072,0.647,0.075,0.925,0.014s0.55-0.197,0.813-0.408c0.372,0.537,0.559,0.806,0.936,1.341
				c-0.384,0.3-0.827,0.509-1.325,0.63S-69.66-51.002-70.281-51.134z M-69.057-56.904c-0.435-0.092-0.812-0.063-1.132,0.086
				s-0.557,0.437-0.709,0.866c1.193,0.261,1.789,0.388,2.984,0.634c0.025-0.428-0.067-0.778-0.275-1.055
				S-68.687-56.826-69.057-56.904z"/>
			<path d="M-65.2-50.286c0.534-2.813,0.802-4.219,1.336-7.031c0.736,0.14,1.104,0.208,1.84,0.342
				c-0.045,0.25-0.068,0.375-0.113,0.625c0.143-0.206,0.336-0.364,0.583-0.475s0.548-0.135,0.903-0.073
				c0.3,0.053,0.561,0.147,0.783,0.282s0.421,0.306,0.601,0.512c-0.211,0.638-0.316,0.957-0.529,1.594
				c-0.157-0.147-0.335-0.277-0.533-0.393s-0.441-0.198-0.729-0.249c-0.163-0.029-0.323-0.035-0.482-0.017s-0.308,0.073-0.444,0.164
				s-0.257,0.229-0.363,0.414s-0.187,0.428-0.241,0.729c-0.286,1.571-0.428,2.354-0.714,3.926
				C-64.062-50.074-64.442-50.142-65.2-50.286z"/>
			<path d="M-55.815-48.521c-0.545-0.082-1.02-0.241-1.425-0.478s-0.734-0.537-0.984-0.905s-0.418-0.795-0.504-1.28
				s-0.081-1.015,0.014-1.591s0.258-1.079,0.491-1.51s0.526-0.779,0.874-1.049s0.744-0.456,1.189-0.56s0.931-0.115,1.454-0.037
				c0.449,0.067,0.86,0.197,1.234,0.389s0.687,0.444,0.938,0.76s0.431,0.694,0.542,1.135s0.129,0.946,0.052,1.515
				c-0.019,0.14-0.045,0.305-0.076,0.497s-0.071,0.379-0.125,0.565c-1.934-0.262-2.9-0.402-4.829-0.704
				c-0.017,0.232,0.008,0.444,0.075,0.635s0.164,0.357,0.29,0.501s0.276,0.261,0.452,0.353s0.368,0.152,0.577,0.183
				c0.342,0.051,0.648,0.037,0.921-0.041s0.534-0.229,0.784-0.455c0.402,0.513,0.605,0.77,1.012,1.281
				c-0.365,0.322-0.791,0.559-1.28,0.71S-55.189-48.428-55.815-48.521z M-54.942-54.355c-0.438-0.065-0.812-0.015-1.122,0.154
				s-0.529,0.473-0.655,0.91c1.203,0.188,1.805,0.277,3.009,0.449c-0.001-0.428-0.113-0.772-0.337-1.035S-54.569-54.3-54.942-54.355
				z"/>
			<path d="M-50.462-54.433c0.072-0.046,0.159-0.112,0.26-0.2s0.205-0.187,0.31-0.292s0.205-0.216,0.297-0.333
				s0.23-0.307,0.222-0.33c-0.021-0.063-0.399-0.253-0.531-0.457s-0.18-0.447-0.143-0.732c0.023-0.176,0.076-0.331,0.158-0.462
				s0.186-0.242,0.31-0.33s0.259-0.15,0.408-0.187s0.303-0.045,0.459-0.025c0.165,0.021,0.315,0.071,0.453,0.147
				s0.255,0.177,0.353,0.301s0.167,0.272,0.209,0.445s0.051,0.367,0.025,0.584c-0.032,0.271-0.112,0.534-0.239,0.79
				s-0.285,0.497-0.475,0.719s-0.402,0.423-0.637,0.6s-0.479,0.32-0.73,0.431C-50.038-54.032-50.179-54.165-50.462-54.433z"/>
			<path d="M-42.66-52.299c-0.064-0.075-0.139-0.154-0.224-0.235s-0.182-0.155-0.293-0.224s-0.24-0.128-0.384-0.179
				s-0.303-0.086-0.476-0.104c-0.281-0.029-0.511-0.007-0.694,0.065s-0.286,0.195-0.304,0.368c-0.01,0.095,0.022,0.187,0.093,0.277
				s0.17,0.176,0.297,0.258s0.275,0.163,0.442,0.242s0.343,0.159,0.526,0.236c0.306,0.131,0.598,0.273,0.88,0.429
				s0.529,0.335,0.736,0.537s0.369,0.436,0.481,0.702s0.153,0.577,0.121,0.931c-0.031,0.35-0.127,0.652-0.291,0.907
				s-0.382,0.462-0.656,0.622s-0.597,0.272-0.968,0.332s-0.78,0.067-1.226,0.021c-0.307-0.031-0.605-0.093-0.894-0.186
				s-0.56-0.208-0.811-0.348s-0.476-0.302-0.673-0.484s-0.357-0.379-0.483-0.591c0.55-0.347,0.823-0.522,1.369-0.872
				c0.073,0.081,0.163,0.172,0.27,0.273s0.231,0.198,0.373,0.292s0.3,0.174,0.473,0.245s0.36,0.116,0.56,0.137
				c0.329,0.034,0.606,0.014,0.827-0.058s0.342-0.224,0.365-0.455c0.011-0.113-0.015-0.22-0.08-0.318s-0.164-0.193-0.294-0.286
				s-0.29-0.19-0.481-0.287s-0.408-0.2-0.649-0.313c-0.337-0.157-0.642-0.319-0.911-0.481s-0.492-0.339-0.671-0.531
				s-0.311-0.406-0.391-0.645s-0.102-0.517-0.066-0.834c0.037-0.326,0.14-0.606,0.308-0.839s0.382-0.422,0.641-0.566
				s0.553-0.239,0.885-0.29s0.685-0.059,1.052-0.021c0.312,0.032,0.598,0.093,0.862,0.183s0.501,0.196,0.713,0.322
				s0.399,0.267,0.564,0.422s0.309,0.312,0.431,0.474C-41.848-52.819-42.118-52.645-42.66-52.299z"/>
			<path d="M-33.233-46.393c0.083-1.526,0.127-2.289,0.21-3.815c-1.377-2.472-2.048-3.712-3.349-6.203
				c0.869,0.062,1.303,0.09,2.172,0.143c0.882,1.659,1.332,2.487,2.248,4.138c1.078-1.55,1.609-2.328,2.654-3.89
				c0.87,0.035,1.305,0.05,2.175,0.077c-1.545,2.346-2.335,3.513-3.956,5.833c-0.071,1.527-0.105,2.29-0.177,3.817
				C-32.045-46.329-32.442-46.35-33.233-46.393z"/>
			<path d="M-23.878-45.892c-0.535-0.009-1.017-0.104-1.441-0.284s-0.782-0.435-1.073-0.764c-0.292-0.329-0.512-0.729-0.661-1.195
				s-0.213-0.991-0.196-1.574s0.113-1.106,0.288-1.566s0.413-0.846,0.714-1.162c0.301-0.316,0.662-0.553,1.081-0.715
				s0.889-0.239,1.407-0.23s0.984,0.101,1.398,0.275s0.768,0.425,1.057,0.749c0.291,0.325,0.515,0.722,0.671,1.186
				c0.157,0.465,0.237,0.99,0.236,1.573s-0.083,1.107-0.245,1.568c-0.162,0.461-0.392,0.852-0.692,1.172
				c-0.3,0.318-0.669,0.564-1.099,0.73S-23.343-45.883-23.878-45.892z M-23.85-47.642c0.239,0.004,0.454-0.038,0.646-0.127
				s0.355-0.217,0.488-0.387c0.134-0.169,0.238-0.377,0.312-0.622s0.112-0.523,0.115-0.833c0.003-0.314-0.03-0.595-0.098-0.842
				s-0.166-0.457-0.294-0.632c-0.127-0.175-0.285-0.311-0.473-0.404s-0.398-0.142-0.633-0.146s-0.447,0.038-0.637,0.126
				s-0.352,0.217-0.485,0.388c-0.134,0.17-0.238,0.377-0.314,0.622s-0.119,0.524-0.125,0.839c-0.007,0.31,0.022,0.588,0.088,0.836
				s0.163,0.457,0.291,0.631c0.127,0.173,0.286,0.309,0.476,0.403S-24.088-47.646-23.85-47.642z"/>
			<path d="M-13.952-46.106c-0.007-0.268-0.009-0.403-0.016-0.671c-0.224,0.275-0.506,0.489-0.843,0.642
				c-0.339,0.153-0.729,0.234-1.167,0.242c-0.324,0.005-0.643-0.037-0.959-0.126s-0.602-0.243-0.853-0.458
				c-0.252-0.216-0.458-0.506-0.616-0.865s-0.239-0.804-0.242-1.337c-0.01-1.805-0.014-2.707-0.024-4.512
				c0.749-0.004,1.124-0.008,1.873-0.019c0.023,1.681,0.034,2.522,0.057,4.203c0.003,0.242,0.039,0.45,0.108,0.622
				c0.068,0.171,0.163,0.314,0.281,0.423c0.12,0.11,0.259,0.189,0.418,0.239s0.332,0.073,0.519,0.069
				c0.195-0.004,0.379-0.032,0.553-0.084s0.324-0.131,0.45-0.241s0.225-0.252,0.294-0.425s0.101-0.382,0.095-0.628
				c-0.042-1.692-0.063-2.538-0.105-4.229c0.746-0.019,1.119-0.03,1.864-0.055c0.094,2.861,0.141,4.291,0.235,7.152
				C-12.799-46.139-13.184-46.125-13.952-46.106z"/>
			<path d="M-9.813-46.246c-0.12-2.86-0.181-4.291-0.301-7.151c0.745-0.031,1.117-0.049,1.862-0.086
				c0.013,0.254,0.02,0.381,0.032,0.635c0.091-0.233,0.244-0.43,0.458-0.594s0.499-0.256,0.858-0.276
				c0.302-0.017,0.578,0.015,0.823,0.096c0.248,0.081,0.48,0.202,0.701,0.362c-0.06,0.669-0.091,1.003-0.152,1.673
				c-0.185-0.107-0.388-0.195-0.606-0.262s-0.475-0.092-0.765-0.076c-0.165,0.009-0.323,0.04-0.474,0.094
				c-0.149,0.053-0.28,0.141-0.393,0.261c-0.111,0.119-0.197,0.282-0.257,0.486s-0.083,0.458-0.068,0.763
				c0.08,1.595,0.12,2.392,0.199,3.987C-8.663-46.296-9.045-46.278-9.813-46.246z"/>
			<path d="M0.139-46.871c-0.326-3.907-0.49-5.86-0.815-9.768c2.707-0.226,4.06-0.358,6.76-0.664
				c0.081,0.714,0.122,1.071,0.202,1.786c-1.952,0.22-2.928,0.32-4.883,0.5c0.075,0.819,0.111,1.23,0.187,2.049
				c1.161-0.106,1.74-0.164,2.9-0.285c0.074,0.712,0.112,1.069,0.186,1.782c-1.168,0.122-1.753,0.18-2.922,0.287
				c0.086,0.942,0.129,1.414,0.216,2.355c2.13-0.195,3.194-0.305,5.321-0.548c0.082,0.712,0.123,1.066,0.205,1.778
				C4.555-47.263,3.084-47.116,0.139-46.871z"/>
			<path d="M12.603-53.466c-0.08-0.058-0.171-0.117-0.272-0.177c-0.1-0.059-0.213-0.11-0.337-0.15
				c-0.126-0.041-0.264-0.067-0.415-0.084c-0.153-0.016-0.313-0.014-0.487,0.009c-0.28,0.037-0.5,0.112-0.661,0.225
				c-0.163,0.113-0.23,0.254-0.208,0.426c0.012,0.095,0.063,0.178,0.153,0.25c0.089,0.07,0.206,0.131,0.35,0.182
				c0.142,0.05,0.303,0.095,0.484,0.133c0.183,0.038,0.372,0.073,0.568,0.107c0.327,0.056,0.648,0.128,0.959,0.213
				s0.591,0.204,0.841,0.352s0.458,0.339,0.629,0.572c0.17,0.232,0.284,0.525,0.335,0.876c0.05,0.347,0.023,0.666-0.076,0.951
				c-0.099,0.285-0.263,0.538-0.493,0.757c-0.228,0.219-0.516,0.401-0.864,0.545s-0.747,0.249-1.192,0.308
				c-0.306,0.041-0.611,0.048-0.912,0.025c-0.303-0.023-0.591-0.073-0.869-0.151c-0.276-0.078-0.534-0.182-0.769-0.314
				s-0.435-0.288-0.607-0.464c0.455-0.465,0.682-0.698,1.132-1.165c0.09,0.062,0.198,0.13,0.325,0.203
				c0.128,0.073,0.271,0.139,0.43,0.197c0.161,0.058,0.331,0.101,0.517,0.129c0.184,0.029,0.379,0.03,0.579,0.003
				c0.328-0.043,0.593-0.127,0.791-0.248c0.199-0.121,0.281-0.297,0.25-0.527c-0.016-0.113-0.066-0.209-0.152-0.29
				s-0.203-0.151-0.352-0.211c-0.146-0.061-0.322-0.117-0.531-0.167s-0.447-0.1-0.708-0.153c-0.363-0.075-0.698-0.162-0.998-0.257
				s-0.561-0.215-0.779-0.36s-0.395-0.325-0.528-0.538c-0.133-0.212-0.216-0.479-0.254-0.795c-0.04-0.326-0.006-0.623,0.104-0.889
				s0.273-0.499,0.492-0.698s0.484-0.362,0.795-0.489c0.313-0.127,0.65-0.214,1.016-0.263c0.312-0.042,0.605-0.049,0.884-0.022
				c0.277,0.027,0.534,0.075,0.769,0.148s0.453,0.168,0.647,0.28c0.196,0.113,0.372,0.232,0.529,0.361
				C13.273-54.16,13.051-53.929,12.603-53.466z"/>
			<path d="M19.745-49.143c-0.519,0.086-1.006,0.079-1.454-0.022c-0.45-0.101-0.847-0.288-1.19-0.559
				c-0.343-0.271-0.631-0.624-0.862-1.056c-0.23-0.431-0.39-0.939-0.478-1.516s-0.087-1.108,0.002-1.591
				c0.089-0.483,0.254-0.907,0.491-1.271c0.238-0.365,0.549-0.664,0.933-0.898c0.382-0.234,0.826-0.393,1.329-0.476
				c0.741-0.123,1.396-0.067,1.975,0.172c0.577,0.239,1.05,0.695,1.417,1.37c-0.669,0.354-1.006,0.528-1.679,0.877
				c-0.152-0.251-0.349-0.442-0.587-0.575s-0.503-0.175-0.796-0.126c-0.228,0.038-0.426,0.119-0.596,0.244
				c-0.168,0.125-0.302,0.282-0.403,0.474s-0.167,0.415-0.198,0.669s-0.023,0.532,0.025,0.833s0.126,0.567,0.236,0.796
				s0.242,0.418,0.397,0.569s0.331,0.257,0.527,0.32c0.193,0.063,0.402,0.076,0.623,0.04c0.323-0.054,0.582-0.187,0.775-0.4
				c0.191-0.213,0.31-0.496,0.355-0.846c0.753,0.082,1.131,0.121,1.887,0.196c-0.087,0.78-0.362,1.405-0.822,1.872
				S20.557-49.277,19.745-49.143z"/>
			<path d="M28.899-51.02c-0.042-0.204-0.061-0.305-0.103-0.508c-0.068,0.102-0.155,0.206-0.259,0.311
				c-0.105,0.105-0.229,0.206-0.377,0.303c-0.149,0.098-0.32,0.187-0.51,0.264c-0.188,0.077-0.404,0.14-0.646,0.188
				c-0.385,0.076-0.752,0.097-1.105,0.063c-0.351-0.034-0.668-0.127-0.953-0.278c-0.283-0.15-0.524-0.356-0.72-0.619
				s-0.33-0.587-0.401-0.972c-0.075-0.403-0.054-0.768,0.06-1.092s0.288-0.607,0.526-0.85c0.236-0.242,0.522-0.441,0.85-0.598
				c0.33-0.157,0.676-0.271,1.04-0.344c0.349-0.069,0.666-0.101,0.949-0.096c0.286,0.005,0.552,0.034,0.796,0.09
				c-0.03-0.145-0.045-0.217-0.075-0.362c-0.079-0.384-0.251-0.641-0.514-0.772c-0.264-0.132-0.606-0.156-1.027-0.072
				c-0.431,0.086-0.814,0.226-1.152,0.417s-0.658,0.433-0.96,0.727c-0.339-0.534-0.508-0.801-0.844-1.336
				c0.151-0.144,0.326-0.287,0.52-0.428c0.197-0.142,0.41-0.273,0.644-0.398s0.49-0.235,0.764-0.333
				c0.276-0.099,0.567-0.179,0.875-0.241c0.217-0.043,0.442-0.077,0.677-0.102c0.233-0.024,0.466-0.026,0.699-0.005
				s0.46,0.075,0.682,0.158s0.428,0.21,0.617,0.377c0.188,0.166,0.358,0.387,0.505,0.655c0.147,0.269,0.263,0.6,0.348,0.997
				c0.383,1.786,0.574,2.679,0.957,4.465C30.017-51.251,29.645-51.174,28.899-51.02z M27.057-52.104
				c0.346-0.069,0.632-0.187,0.863-0.353s0.421-0.344,0.572-0.538c-0.063-0.303-0.094-0.455-0.156-0.758
				c-0.205-0.028-0.428-0.038-0.674-0.032s-0.494,0.034-0.741,0.083c-0.193,0.039-0.371,0.089-0.538,0.152
				c-0.165,0.063-0.303,0.139-0.421,0.229c-0.116,0.09-0.202,0.195-0.257,0.313c-0.055,0.116-0.07,0.246-0.042,0.39
				c0.044,0.228,0.187,0.392,0.426,0.489S26.652-52.023,27.057-52.104z"/>
			<path d="M36.301-52.491c-0.362,0.086-0.692,0.1-0.984,0.037c-0.294-0.062-0.542-0.175-0.748-0.337
				c0.226,0.972,0.337,1.458,0.563,2.43c-0.685,0.499-1.03,0.747-1.721,1.24c-0.869-3.888-1.304-5.833-2.172-9.722
				c0.732-0.164,1.098-0.246,1.829-0.416c0.047,0.203,0.07,0.304,0.117,0.506c0.109-0.236,0.281-0.445,0.51-0.628
				c0.23-0.183,0.523-0.315,0.88-0.4c0.445-0.106,0.869-0.125,1.274-0.056c0.403,0.07,0.775,0.228,1.108,0.47
				c0.335,0.243,0.634,0.572,0.891,0.988c0.256,0.416,0.458,0.92,0.607,1.508c0.143,0.566,0.194,1.092,0.156,1.578
				c-0.038,0.485-0.153,0.92-0.347,1.298c-0.195,0.379-0.46,0.699-0.795,0.957C37.135-52.78,36.746-52.598,36.301-52.491z
				 M35.609-54.125c0.468-0.111,0.787-0.365,0.96-0.76c0.174-0.396,0.186-0.905,0.034-1.525c-0.072-0.296-0.17-0.56-0.29-0.782
				c-0.121-0.223-0.263-0.404-0.427-0.543s-0.344-0.233-0.546-0.283s-0.42-0.046-0.655,0.01c-0.3,0.071-0.54,0.18-0.72,0.325
				c-0.179,0.145-0.319,0.322-0.411,0.53c0.256,1.103,0.384,1.655,0.64,2.758c0.062,0.056,0.141,0.109,0.235,0.159
				c0.095,0.051,0.206,0.09,0.325,0.121c0.122,0.03,0.253,0.046,0.396,0.048C35.296-54.068,35.448-54.087,35.609-54.125z"/>
			<path d="M44.268-54.537c-0.535,0.147-1.038,0.195-1.506,0.144s-0.893-0.195-1.272-0.43s-0.707-0.558-0.982-0.965
				c-0.275-0.408-0.485-0.895-0.631-1.46s-0.2-1.093-0.16-1.581c0.04-0.487,0.166-0.924,0.376-1.312
				c0.21-0.387,0.497-0.721,0.865-0.997c0.37-0.276,0.809-0.482,1.323-0.624c0.44-0.121,0.872-0.171,1.296-0.148
				c0.422,0.023,0.813,0.129,1.169,0.315c0.358,0.187,0.679,0.457,0.96,0.814s0.504,0.814,0.664,1.365
				c0.04,0.136,0.085,0.297,0.134,0.484s0.087,0.375,0.113,0.567c-1.889,0.547-2.837,0.813-4.734,1.32
				c0.08,0.219,0.186,0.403,0.324,0.549c0.138,0.146,0.297,0.261,0.471,0.341s0.362,0.127,0.561,0.14s0.4-0.011,0.606-0.067
				c0.335-0.092,0.611-0.229,0.831-0.412s0.4-0.428,0.538-0.737c0.579,0.305,0.869,0.458,1.452,0.76
				c-0.205,0.443-0.503,0.833-0.892,1.171S44.88-54.706,44.268-54.537z M42.705-60.227c-0.431,0.119-0.755,0.318-0.973,0.599
				c-0.215,0.28-0.294,0.646-0.233,1.097c1.183-0.317,1.773-0.479,2.953-0.812c-0.174-0.391-0.418-0.661-0.731-0.811
				C43.409-60.301,43.069-60.327,42.705-60.227z"/>
			<path d="M49.91-59.106c-0.059-0.193-0.087-0.29-0.146-0.483c-0.126-0.414-0.178-0.781-0.152-1.097
				c0.026-0.317,0.09-0.605,0.193-0.861s0.228-0.49,0.374-0.699c0.147-0.21,0.279-0.413,0.399-0.608s0.211-0.392,0.271-0.586
				c0.061-0.196,0.056-0.408-0.018-0.638c-0.096-0.304-0.279-0.523-0.545-0.654c-0.266-0.131-0.593-0.136-0.984-0.015
				c-0.458,0.142-0.77,0.388-0.932,0.737c-0.162,0.349-0.166,0.774-0.014,1.275c-0.723,0.219-1.085,0.327-1.81,0.541
				c-0.154-0.524-0.212-1.013-0.174-1.462c0.038-0.45,0.159-0.857,0.362-1.217s0.478-0.671,0.825-0.934
				c0.349-0.263,0.754-0.467,1.223-0.612c0.482-0.149,0.932-0.213,1.347-0.191c0.417,0.021,0.791,0.112,1.119,0.275
				c0.326,0.162,0.612,0.388,0.848,0.674c0.236,0.287,0.416,0.622,0.54,1.003c0.089,0.273,0.135,0.526,0.14,0.753
				c0.005,0.228-0.022,0.442-0.075,0.638c-0.053,0.195-0.126,0.381-0.219,0.554s-0.19,0.341-0.295,0.501
				c-0.104,0.159-0.207,0.317-0.305,0.473c-0.097,0.154-0.179,0.316-0.244,0.483s-0.107,0.34-0.12,0.519
				c-0.013,0.18,0.016,0.379,0.082,0.592c0.059,0.188,0.087,0.283,0.146,0.471C51.012-59.443,50.646-59.331,49.91-59.106z
				 M51.675-56.702c-0.172,0.053-0.34,0.075-0.505,0.063c-0.163-0.012-0.315-0.051-0.451-0.116
				c-0.137-0.065-0.255-0.158-0.356-0.273c-0.102-0.116-0.178-0.251-0.225-0.404c-0.048-0.157-0.061-0.314-0.041-0.467
				c0.019-0.152,0.067-0.295,0.142-0.428c0.075-0.131,0.176-0.249,0.303-0.35c0.129-0.102,0.28-0.179,0.45-0.231
				c0.172-0.053,0.336-0.073,0.5-0.062c0.162,0.011,0.316,0.049,0.454,0.115c0.14,0.066,0.261,0.155,0.365,0.27
				c0.104,0.114,0.183,0.253,0.232,0.41c0.048,0.152,0.062,0.306,0.041,0.458c-0.021,0.154-0.072,0.298-0.15,0.43
				c-0.077,0.13-0.181,0.251-0.309,0.353C51.996-56.832,51.849-56.756,51.675-56.702z"/>
		</g>
	</g>
</g>
</svg>
