<?xml version="1.0" encoding="utf-8"?>
<!-- Generator: Adobe Illustrator 16.0.3, SVG Export Plug-In . SVG Version: 6.00 Build 0)  -->
<!DOCTYPE svg PUBLIC "-//W3C//DTD SVG 1.1//EN" "http://www.w3.org/Graphics/SVG/1.1/DTD/svg11.dtd">
<svg version="1.1" id="Layer_1" xmlns="http://www.w3.org/2000/svg" xmlns:xlink="http://www.w3.org/1999/xlink" x="0px" y="0px"
	 width="189px" height="133px" viewBox="0 0 189 133" enable-background="new 0 0 189 133" xml:space="preserve">
<g id="Layer_1_1_">
	<g>
		
			<radialGradient id="SVGID_1_" cx="-46.6729" cy="860.6533" r="9.8369" gradientTransform="matrix(3.425 0 0 1.5755 254.4621 -1267.021)" gradientUnits="userSpaceOnUse">
			<stop  offset="0" style="stop-color:#000000"/>
			<stop  offset="1" style="stop-color:#000000;stop-opacity:0"/>
		</radialGradient>
		<path fill="url(#SVGID_1_)" d="M128.301,88.938c0,8.561-15.084,15.498-33.691,15.498c-18.606,0-33.69-6.938-33.69-15.498l0,0
			c0-8.559,15.084-15.498,33.69-15.498C113.217,73.439,128.301,80.379,128.301,88.938L128.301,88.938z"/>
		
			<radialGradient id="SVGID_2_" cx="53.7744" cy="711.0371" r="24.0084" gradientTransform="matrix(2.0833 0 0 2.0833 -27.9666 -1429.6948)" gradientUnits="userSpaceOnUse">
			<stop  offset="0" style="stop-color:#D3E9FF"/>
			<stop  offset="0.1552" style="stop-color:#D3E9FF"/>
			<stop  offset="0.75" style="stop-color:#4074AE"/>
			<stop  offset="1" style="stop-color:#36486C"/>
		</radialGradient>
		<path fill="url(#SVGID_2_)" stroke="#39396C" stroke-width="0.8005" d="M126.945,64.566c0,17.86-14.479,32.338-32.336,32.338
			c-17.857,0-32.336-14.479-32.336-32.338S76.751,32.23,94.609,32.23C112.469,32.23,126.945,46.707,126.945,64.566z"/>
		
			<radialGradient id="SVGID_3_" cx="50.0264" cy="767.1602" r="26.1455" gradientTransform="matrix(2.0542 0 0 1.7662 -13.4925 -1314.7456)" gradientUnits="userSpaceOnUse">
			<stop  offset="0" style="stop-color:#FFFFFF"/>
			<stop  offset="1" style="stop-color:#FFFFFF;stop-opacity:0"/>
		</radialGradient>
		<path opacity="0.4216" fill="url(#SVGID_3_)" enable-background="new    " d="M112.635,50.867c0,8.56-8.07,15.498-18.025,15.498
			s-18.024-6.938-18.024-15.498c0-8.559,8.069-15.498,18.024-15.498S112.635,42.308,112.635,50.867z"/>
		<g transform="matrix(.98237,0,0,.98237,.12108,.23291)">
			<path fill-opacity="0.7135" d="M128.186,60.559L128.186,60.559l-0.911,1.029c-0.557-0.657-1.183-1.208-1.815-1.785l-1.394,0.205
				l-1.272-1.439v1.782l1.09,0.826L124.609,62l0.972-1.097c0.245,0.457,0.485,0.915,0.728,1.372v1.371l-1.094,1.234l-2,1.373
				l-1.515,1.511l-0.97-1.1l0.485-1.234l-0.966-1.098l-1.636-3.498l-1.396-1.578l-0.368,0.411l0.549,1.99l1.03,1.166
				c0.587,1.697,1.169,3.319,1.938,4.941c1.197,0,2.326-0.127,3.515-0.276v0.961l-1.455,3.568l-1.332,1.507l-1.092,2.338v3.839
				l0.364,1.509l-0.604,0.684l-1.334,0.825l-1.396,1.165l1.153,1.302l-1.577,1.374l0.302,0.891l-2.364,2.676h-1.577l-1.332,0.825
				h-0.851v-1.097l-0.362-2.197c-0.469-1.378-0.956-2.748-1.453-4.114c0-1.01,0.06-2.01,0.119-3.02l0.608-1.372l-0.851-1.648
				l0.064-2.263l-1.153-1.304l0.577-1.885l-0.938-1.065h-1.638l-0.545-0.617l-1.636,1.03l-0.667-0.757l-1.515,1.303l-3.092-3.498
				l-1.212-2.882l1.091-1.645l-0.604-0.685l1.332-3.158c1.093-1.361,2.237-2.668,3.394-3.979l2.062-0.549l2.302-0.273l1.577,0.412
				l2.243,2.262l0.787-0.891l1.09-0.137l2.062,0.685h1.577l1.093-0.961l0.485-0.685l-1.094-0.685l-1.819-0.137
				c-0.505-0.7-0.974-1.436-1.573-2.058l-0.608,0.273l-0.243,1.785l-1.092-1.234l-0.241-1.374l-1.213-0.958h-0.487l1.213,1.371
				l-0.485,1.234l-0.968,0.274l0.604-1.234l-1.092-0.547l-0.966-1.097l-1.82,0.41l-0.244,0.547l-1.09,0.687l-0.606,1.51
				l-1.515,0.754l-0.668-0.754h-0.726v-2.47l1.577-0.824h1.211l-0.244-0.959l-0.967-0.961l1.634-0.343l0.909-1.027l0.729-1.236
				h1.333l-0.364-0.959l0.851-0.549V46.5l1.817,0.411l1.817-1.509l0.121-0.687l1.575-1.097c-0.571,0.071-1.139,0.123-1.696,0.274
				v-1.236l0.604-1.372h-0.604l-1.332,1.235l-0.366,0.686l0.366,0.962l-0.608,1.645l-0.968-0.549l-0.847-0.959l-1.336,0.959
				l-0.484-2.194l2.301-1.509v-0.824l1.457-0.96l2.302-0.55l1.577,0.55l2.909,0.549l-0.726,0.823h-1.579l1.579,1.646l1.211-1.371
				l0.368-0.603c0,0,4.648,4.166,7.307,8.722C126.937,54.094,128.186,59.468,128.186,60.559L128.186,60.559z"/>
			<path fill-opacity="0.7135" d="M98.166,41.417l-0.121,0.823l0.851,0.549l1.451-0.96l-0.726-0.823l-0.971,0.549L98.166,41.417"/>
			<path fill-opacity="0.7135" d="M99.5,35.792l-3.153-1.235l-3.634,0.411l-4.486,1.235l-0.848,0.824l2.787,1.92v1.098l-1.091,1.097
				l1.456,2.883l0.966-0.551l1.215-1.92c1.873-0.579,3.553-1.235,5.332-2.058L99.5,35.792"/>
			<path fill-opacity="0.7135" d="M102.773,47.319l-0.485-1.236l-0.849,0.275l0.245,1.508L102.773,47.319"/>
			<path fill-opacity="0.7135" d="M103.257,47.041l-0.243,1.649l1.333-0.275l0.968-0.959l-0.847-0.824
				c-0.285-0.758-0.613-1.467-0.97-2.195h-0.726v0.823l0.483,0.549v1.232"/>
			<path fill-opacity="0.7135" d="M85.317,73.111l-0.97-1.921l-1.818-0.412l-0.97-2.607l-2.424,0.274l-2.06-1.508l-2.183,1.92v0.303
				c-0.661-0.191-1.472-0.218-2.06-0.58l-0.485-1.37v-1.51l-1.454,0.137l0.364-2.881h-0.849l-0.848,1.098l-0.849,0.41l-1.213-0.684
				l-0.121-1.51l0.243-1.647l1.819-1.371h1.454l0.242-0.824l1.818,0.41l1.334,1.648l0.243-2.745l2.304-1.92l0.848-2.059l1.697-0.686
				l0.97-1.371l2.182-0.414l1.092-1.645h-3.274l2.061-0.961h1.453L85.925,48l0.243-0.821l-0.728-0.687l-0.849-0.275l0.243-0.823
				l-0.604-1.234l-1.456,0.547l0.244-1.097l-1.697-0.961l-1.333,2.331l0.121,0.824l-1.334,0.551l-0.849,1.782l-0.363-1.646
				l-2.304-0.961l-0.364-1.234l3.031-1.785l1.334-1.235l0.122-1.509l-0.727-0.412l-0.97-0.138l-0.606,1.51
				c0,0-1.013,0.199-1.274,0.263c-3.329,3.067-10.055,9.688-11.617,22.189c0.062,0.29,1.132,1.97,1.132,1.97l2.545,1.509
				l2.546,0.686l1.092,1.373l1.696,1.235l0.97-0.137l0.727,0.327v0.222l-0.969,2.607l-0.728,1.097l0.243,0.551l-0.606,2.056
				l2.182,3.98l2.182,1.923l0.971,1.37l-0.122,2.883l0.728,1.646l-0.728,3.155c0,0-0.057-0.02,0.036,0.296
				c0.093,0.316,3.884,2.422,4.125,2.241l0.445-0.342l-0.242-0.684l0.969-0.96l0.364-0.96l1.576-0.551l1.213-3.02l-0.364-0.821
				l0.847-1.233l1.819-0.414l0.97-2.195l-0.243-2.744l1.454-2.058l0.244-2.06C89.266,75.145,87.292,74.129,85.317,73.111"/>
			<path fill-opacity="0.7135" d="M82.65,41.966l1.211,0.823h0.971v-0.96l-1.212-0.549L82.65,41.966"/>
			<path fill-opacity="0.7135" d="M79.499,40.869l-0.606,1.509h1.212l0.606-1.372l1.576-1.098l1.212,0.412l2.424,1.646l1.215-1.097
				l-1.336-0.549l-0.606-1.235l-2.302-0.274l-0.122-0.686L81.681,38.4l-0.484,0.961l-0.606-1.236l-0.242,0.549l0.121,1.372
				L79.499,40.869"/>
			<path fill-opacity="0.7135" d="M83.861,37.438l0.607-0.548l1.213-0.274c0.83-0.404,1.664-0.676,2.545-0.961l-0.483-0.823
				l-1.566,0.225l-0.74,0.737l-1.219,0.177l-1.084,0.509l-0.526,0.255l-0.322,0.431L83.861,37.438"/>
			<path fill-opacity="0.7135" d="M85.922,50.473l0.729-1.097l-1.093-0.823L85.922,50.473"/>
		</g>
		<g transform="matrix(.98237,0,0,.98237,-8.095179e-2,3.088300e-2)">
			<g>
				<g>
					
						<radialGradient id="SVGID_4_" cx="65.4661" cy="735.5203" r="33.7702" fx="65.7155" fy="735.7704" gradientTransform="matrix(2.0105 0 0 2.0105 -44.5044 -1424.772)" gradientUnits="userSpaceOnUse">
						<stop  offset="0" style="stop-color:#FFFFFF"/>
						<stop  offset="0.3793" style="stop-color:#FEFEFE"/>
						<stop  offset="1" style="stop-color:#1D1D1D"/>
					</radialGradient>
					<path fill="url(#SVGID_4_)" d="M128.389,60.421L128.389,60.421l-0.909,1.029c-0.557-0.657-1.181-1.208-1.817-1.785
						l-1.394,0.205l-1.272-1.439v1.782l1.094,0.826l0.726,0.823l0.97-1.096c0.245,0.457,0.483,0.915,0.728,1.372v1.371l-1.094,1.234
						l-2,1.373l-1.513,1.512l-0.972-1.101l0.487-1.234l-0.97-1.098l-1.636-3.498l-1.394-1.576l-0.366,0.411l0.549,1.99l1.028,1.166
						c0.589,1.697,1.169,3.319,1.942,4.942c1.197,0,2.324-0.128,3.515-0.277v0.961l-1.455,3.568l-1.334,1.509l-1.094,2.334v3.841
						l0.368,1.511l-0.608,0.68l-1.336,0.825l-1.392,1.165l1.151,1.302l-1.575,1.376l0.302,0.889l-2.366,2.678h-1.575l-1.334,0.825
						h-0.849v-1.097l-0.362-2.199c-0.469-1.378-0.958-2.744-1.455-4.114c0-1.008,0.062-2.008,0.121-3.018l0.608-1.372l-0.851-1.646
						l0.062-2.265l-1.151-1.306l0.577-1.887l-0.938-1.065h-1.638l-0.546-0.617l-1.635,1.03l-0.666-0.757l-1.517,1.303l-3.091-3.498
						l-1.213-2.883l1.092-1.645l-0.606-0.685l1.332-3.158c1.095-1.361,2.239-2.668,3.394-3.979l2.062-0.549l2.302-0.273l1.579,0.413
						l2.241,2.262l0.789-0.891l1.09-0.137l2.062,0.685h1.577l1.091-0.961l0.485-0.685l-1.092-0.685L114.878,55
						c-0.505-0.7-0.974-1.436-1.577-2.058l-0.604,0.273L112.452,55l-1.092-1.234l-0.241-1.374l-1.211-0.958h-0.487l1.213,1.371
						l-0.485,1.234l-0.97,0.274l0.606-1.234l-1.094-0.547l-0.966-1.097l-1.82,0.411l-0.242,0.547l-1.092,0.687l-0.606,1.51
						l-1.513,0.754l-0.668-0.754h-0.726v-2.47l1.575-0.824h1.214l-0.246-0.959l-0.968-0.961l1.636-0.343l0.91-1.027l0.726-1.236
						h1.335l-0.366-0.959l0.851-0.549v1.098l1.817,0.411l1.817-1.509l0.123-0.687l1.575-1.097c-0.571,0.071-1.141,0.123-1.698,0.274
						v-1.236l0.606-1.372h-0.606l-1.332,1.235l-0.364,0.686l0.364,0.962l-0.606,1.645l-0.968-0.549l-0.847-0.959l-1.334,0.959
						l-0.485-2.194l2.3-1.509v-0.824l1.455-0.96l2.302-0.55l1.577,0.55l2.909,0.549l-0.726,0.823h-1.577l1.577,1.646l1.213-1.371
						l0.368-0.603c0,0,4.646,4.166,7.305,8.722C127.145,53.956,128.389,59.33,128.389,60.421L128.389,60.421z"/>
				</g>
			</g>
			<g>
				<g>
					
						<radialGradient id="SVGID_5_" cx="65.4646" cy="735.5094" r="33.7501" fx="65.7138" fy="735.7593" gradientTransform="matrix(2.0105 0 0 2.0105 -44.5044 -1424.772)" gradientUnits="userSpaceOnUse">
						<stop  offset="0" style="stop-color:#FFFFFF"/>
						<stop  offset="0.3793" style="stop-color:#FEFEFE"/>
						<stop  offset="1" style="stop-color:#1D1D1D"/>
					</radialGradient>
					<path fill="url(#SVGID_5_)" d="M98.374,41.28l-0.123,0.823l0.851,0.549l1.453-0.96l-0.727-0.823l-0.971,0.549L98.374,41.28"/>
				</g>
			</g>
			<g>
				<g>
					
						<radialGradient id="SVGID_6_" cx="65.4666" cy="735.5233" r="33.7776" fx="65.716" fy="735.7734" gradientTransform="matrix(2.0105 0 0 2.0105 -44.5044 -1424.772)" gradientUnits="userSpaceOnUse">
						<stop  offset="0" style="stop-color:#FFFFFF"/>
						<stop  offset="0.3793" style="stop-color:#FEFEFE"/>
						<stop  offset="1" style="stop-color:#1D1D1D"/>
					</radialGradient>
					<path fill="url(#SVGID_6_)" d="M99.708,35.655l-3.153-1.235l-3.634,0.411l-4.487,1.235l-0.849,0.824l2.788,1.92v1.098
						l-1.091,1.096l1.455,2.883l0.967-0.551l1.216-1.92c1.873-0.579,3.551-1.235,5.331-2.058L99.708,35.655"/>
				</g>
			</g>
			<g>
				<g>
					
						<radialGradient id="SVGID_7_" cx="65.4636" cy="735.5203" r="33.7813" fx="65.713" fy="735.7705" gradientTransform="matrix(2.0105 0 0 2.0105 -44.5044 -1424.772)" gradientUnits="userSpaceOnUse">
						<stop  offset="0" style="stop-color:#FFFFFF"/>
						<stop  offset="0.3793" style="stop-color:#FEFEFE"/>
						<stop  offset="1" style="stop-color:#1D1D1D"/>
					</radialGradient>
					<path fill="url(#SVGID_7_)" d="M102.98,47.182l-0.486-1.236l-0.85,0.275l0.244,1.508L102.98,47.182"/>
				</g>
			</g>
			<g>
				<g>
					
						<radialGradient id="SVGID_8_" cx="65.4586" cy="735.5193" r="33.7966" fx="65.7083" fy="735.7695" gradientTransform="matrix(2.0105 0 0 2.0105 -44.5044 -1424.772)" gradientUnits="userSpaceOnUse">
						<stop  offset="0" style="stop-color:#FFFFFF"/>
						<stop  offset="0.3793" style="stop-color:#FEFEFE"/>
						<stop  offset="1" style="stop-color:#1D1D1D"/>
					</radialGradient>
					<path fill="url(#SVGID_8_)" d="M103.462,46.904l-0.243,1.649l1.334-0.275l0.969-0.959l-0.848-0.824
						c-0.285-0.758-0.612-1.467-0.969-2.195h-0.727v0.823l0.483,0.549V46.904"/>
				</g>
			</g>
			<g>
				<g>
					
						<radialGradient id="SVGID_9_" cx="65.4646" cy="735.5203" r="33.7763" fx="65.714" fy="735.7705" gradientTransform="matrix(2.0105 0 0 2.0105 -44.5044 -1424.772)" gradientUnits="userSpaceOnUse">
						<stop  offset="0" style="stop-color:#FFFFFF"/>
						<stop  offset="0.3793" style="stop-color:#FEFEFE"/>
						<stop  offset="1" style="stop-color:#1D1D1D"/>
					</radialGradient>
					<path fill="url(#SVGID_9_)" d="M85.523,72.975l-0.97-1.922l-1.818-0.413l-0.97-2.605l-2.424,0.273l-2.06-1.509l-2.183,1.92
						v0.304c-0.661-0.191-1.472-0.217-2.06-0.58l-0.485-1.371v-1.51L71.099,65.7l0.364-2.881h-0.849l-0.848,1.098l-0.849,0.41
						l-1.213-0.684l-0.121-1.51l0.243-1.647l1.819-1.371h1.454l0.242-0.824l1.818,0.41l1.334,1.648l0.243-2.745l2.304-1.92
						l0.848-2.059l1.697-0.686l0.97-1.371l2.182-0.414l1.091-1.645h-3.273l2.061-0.961h1.454l2.061-0.687l0.244-0.821l-0.729-0.687
						l-0.848-0.275l0.243-0.823l-0.606-1.234l-1.455,0.547l0.243-1.097l-1.697-0.961l-1.333,2.331l0.121,0.824l-1.334,0.551
						l-0.849,1.782l-0.363-1.646l-2.304-0.961L75.1,44.157l3.031-1.785l1.334-1.235l0.122-1.509l-0.727-0.412l-0.97-0.138
						l-0.606,1.51c0,0-1.013,0.198-1.274,0.263c-3.329,3.067-10.055,9.688-11.617,22.19c0.062,0.289,1.132,1.97,1.132,1.97
						l2.545,1.509l2.546,0.687l1.092,1.371l1.696,1.236l0.97-0.136l0.727,0.327v0.222l-0.969,2.606l-0.728,1.096l0.243,0.551
						l-0.606,2.056l2.182,3.978l2.182,1.923l0.971,1.372l-0.122,2.883l0.728,1.644l-0.728,3.157c0,0-0.057-0.02,0.036,0.296
						c0.092,0.314,3.884,2.42,4.125,2.241l0.445-0.342l-0.242-0.684l0.969-0.96l0.364-0.96l1.577-0.551l1.212-3.02l-0.363-0.819
						l0.847-1.235l1.819-0.416l0.97-2.193l-0.243-2.742l1.453-2.06l0.243-2.058C89.472,75.008,87.498,73.991,85.523,72.975"/>
				</g>
			</g>
			<g>
				<g>
					
						<radialGradient id="SVGID_10_" cx="65.4656" cy="735.5154" r="33.7492" fx="65.7149" fy="735.7654" gradientTransform="matrix(2.0105 0 0 2.0105 -44.5044 -1424.772)" gradientUnits="userSpaceOnUse">
						<stop  offset="0" style="stop-color:#FFFFFF"/>
						<stop  offset="0.3793" style="stop-color:#FEFEFE"/>
						<stop  offset="1" style="stop-color:#1D1D1D"/>
					</radialGradient>
					<path fill="url(#SVGID_10_)" d="M82.856,41.828l1.212,0.823h0.97v-0.96l-1.212-0.549L82.856,41.828"/>
				</g>
			</g>
			<g>
				<g>
					
						<radialGradient id="SVGID_11_" cx="65.4651" cy="735.5193" r="33.7671" fx="65.7145" fy="735.7694" gradientTransform="matrix(2.0105 0 0 2.0105 -44.5044 -1424.772)" gradientUnits="userSpaceOnUse">
						<stop  offset="0" style="stop-color:#FFFFFF"/>
						<stop  offset="0.3793" style="stop-color:#FEFEFE"/>
						<stop  offset="1" style="stop-color:#1D1D1D"/>
					</radialGradient>
					<path fill="url(#SVGID_11_)" d="M79.705,40.731l-0.606,1.509h1.212l0.606-1.372l1.576-1.098l1.213,0.412l2.424,1.646
						l1.213-1.097l-1.334-0.549l-0.606-1.235L83.1,38.673l-0.122-0.686l-1.091,0.275l-0.484,0.961l-0.606-1.236l-0.242,0.549
						l0.121,1.372L79.705,40.731"/>
				</g>
			</g>
			<g>
				<g>
					
						<radialGradient id="SVGID_12_" cx="65.4656" cy="735.5154" r="33.7589" fx="65.715" fy="735.7654" gradientTransform="matrix(2.0105 0 0 2.0105 -44.5044 -1424.772)" gradientUnits="userSpaceOnUse">
						<stop  offset="0" style="stop-color:#FFFFFF"/>
						<stop  offset="0.3793" style="stop-color:#FEFEFE"/>
						<stop  offset="1" style="stop-color:#1D1D1D"/>
					</radialGradient>
					<path fill="url(#SVGID_12_)" d="M84.068,37.3l0.606-0.548l1.213-0.274c0.83-0.404,1.664-0.676,2.545-0.961l-0.483-0.823
						l-1.565,0.225l-0.74,0.737l-1.219,0.177l-1.085,0.509l-0.526,0.255l-0.322,0.431L84.068,37.3"/>
				</g>
			</g>
			<g>
				<g>
					
						<radialGradient id="SVGID_13_" cx="65.4656" cy="735.5183" r="33.7591" fx="65.715" fy="735.7683" gradientTransform="matrix(2.0105 0 0 2.0105 -44.5044 -1424.772)" gradientUnits="userSpaceOnUse">
						<stop  offset="0" style="stop-color:#FFFFFF"/>
						<stop  offset="0.3793" style="stop-color:#FEFEFE"/>
						<stop  offset="1" style="stop-color:#1D1D1D"/>
					</radialGradient>
					<path fill="url(#SVGID_13_)" d="M86.129,50.337l0.728-1.097l-1.092-0.823L86.129,50.337"/>
				</g>
			</g>
		</g>
		
			<radialGradient id="SVGID_14_" cx="51.6563" cy="708.1758" r="34.8414" gradientTransform="matrix(2.0833 0 0 2.0833 -27.9666 -1429.6948)" gradientUnits="userSpaceOnUse">
			<stop  offset="0" style="stop-color:#FFFFFF"/>
			<stop  offset="1" style="stop-color:#FFFFFF;stop-opacity:0.1649"/>
		</radialGradient>
		<path fill="none" stroke="url(#SVGID_14_)" stroke-width="0.8005" d="M125.303,64.566c0,16.954-13.742,30.696-30.692,30.696
			c-16.952,0-30.694-13.742-30.694-30.696c0-16.953,13.743-30.693,30.694-30.693C111.561,33.872,125.303,47.614,125.303,64.566z"/>
	</g>
</g>
<g id="Layer_2">
	<g>
		<g>
			<path fill="#1A3275" d="M12.193,33.447C10.116,27.054,9.076,23.858,7,17.465c4.84-1.573,7.273-2.305,12.162-3.656
				c0.329,1.188,0.493,1.783,0.822,2.972c-3.468,0.958-5.196,1.467-8.639,2.538c0.419,1.347,0.628,2.021,1.047,3.367
				c2-0.622,3.003-0.923,5.012-1.507c0.343,1.179,0.515,1.769,0.857,2.948c-1.987,0.578-2.979,0.876-4.958,1.492
				c0.482,1.549,0.723,2.322,1.205,3.871c3.517-1.094,5.283-1.611,8.826-2.583c0.325,1.184,0.486,1.778,0.812,2.962
				C19.341,31.186,16.948,31.902,12.193,33.447z"/>
			<path fill="#1A3275" d="M31.678,18.784c-0.149-0.085-0.317-0.17-0.505-0.254s-0.395-0.149-0.622-0.195
				c-0.227-0.046-0.476-0.069-0.748-0.067s-0.56,0.038-0.862,0.112c-0.49,0.12-0.867,0.295-1.131,0.521
				c-0.264,0.228-0.359,0.484-0.287,0.772c0.04,0.159,0.145,0.29,0.317,0.391c0.172,0.101,0.389,0.182,0.648,0.238
				c0.259,0.056,0.552,0.098,0.877,0.127c0.325,0.029,0.663,0.054,1.01,0.075c0.583,0.035,1.152,0.1,1.708,0.193
				c0.556,0.093,1.061,0.251,1.514,0.467c0.453,0.216,0.845,0.51,1.171,0.884s0.555,0.861,0.688,1.456
				c0.132,0.587,0.133,1.132,0.004,1.634s-0.371,0.954-0.724,1.359s-0.807,0.759-1.364,1.06s-1.201,0.541-1.933,0.72
				c-0.504,0.123-1.01,0.193-1.519,0.212c-0.509,0.019-1.004-0.009-1.484-0.083c-0.48-0.074-0.933-0.197-1.356-0.369
				s-0.802-0.388-1.133-0.647c0.656-0.896,0.988-1.343,1.656-2.236c0.167,0.086,0.366,0.178,0.599,0.276s0.49,0.181,0.772,0.247
				c0.282,0.066,0.583,0.104,0.903,0.118c0.32,0.014,0.647-0.021,0.981-0.104c0.548-0.134,0.981-0.321,1.298-0.562
				c0.317-0.241,0.43-0.555,0.338-0.942c-0.045-0.19-0.147-0.347-0.308-0.469s-0.373-0.222-0.637-0.299
				c-0.264-0.077-0.581-0.14-0.949-0.188c-0.368-0.047-0.784-0.089-1.244-0.129c-0.643-0.056-1.237-0.135-1.775-0.232
				s-1.013-0.243-1.425-0.438c-0.412-0.195-0.757-0.458-1.038-0.788c-0.281-0.33-0.492-0.76-0.631-1.289
				c-0.143-0.544-0.148-1.055-0.012-1.535c0.136-0.48,0.379-0.917,0.728-1.31s0.791-0.734,1.326-1.022
				c0.535-0.288,1.131-0.514,1.782-0.674c0.553-0.135,1.081-0.206,1.585-0.213c0.504-0.007,0.972,0.029,1.405,0.113
				c0.433,0.084,0.833,0.206,1.199,0.366c0.366,0.16,0.696,0.339,0.991,0.537C32.762,17.483,32.398,17.916,31.678,18.784z"/>
			<path fill="#1A3275" d="M44.387,25.445c-0.865,0.167-1.675,0.178-2.436,0.033c-0.761-0.145-1.444-0.434-2.051-0.87
				c-0.607-0.436-1.129-1.011-1.568-1.728c-0.439-0.717-0.766-1.564-0.976-2.542c-0.21-0.979-0.261-1.885-0.15-2.724
				c0.111-0.839,0.365-1.584,0.762-2.234c0.397-0.65,0.935-1.193,1.61-1.629c0.675-0.436,1.468-0.743,2.374-0.918
				c1.33-0.257,2.518-0.184,3.554,0.213c1.036,0.396,1.872,1.178,2.504,2.337c-1.188,0.604-1.779,0.91-2.955,1.527
				c-0.273-0.426-0.622-0.749-1.046-0.968c-0.424-0.219-0.896-0.278-1.414-0.178c-0.403,0.078-0.751,0.229-1.044,0.455
				c-0.293,0.226-0.522,0.505-0.689,0.841s-0.27,0.724-0.309,1.162c-0.039,0.438-0.007,0.914,0.097,1.427
				c0.104,0.513,0.259,0.962,0.463,1.347c0.204,0.385,0.444,0.701,0.72,0.949c0.276,0.248,0.581,0.419,0.917,0.517
				c0.336,0.098,0.692,0.11,1.069,0.037c0.545-0.105,0.978-0.343,1.3-0.713c0.322-0.37,0.52-0.855,0.593-1.457
				c1.297,0.123,1.945,0.189,3.235,0.328c-0.16,1.336-0.624,2.399-1.39,3.2C46.791,24.658,45.736,25.185,44.387,25.445z"/>
			<path fill="#1A3275" d="M59.738,22.644c-0.047-0.353-0.07-0.53-0.117-0.883c-0.125,0.167-0.281,0.333-0.466,0.5
				c-0.185,0.167-0.406,0.326-0.663,0.476c-0.257,0.15-0.546,0.28-0.868,0.393c-0.322,0.113-0.687,0.2-1.094,0.259
				c-0.646,0.094-1.261,0.099-1.846,0.014c-0.585-0.085-1.112-0.261-1.582-0.535s-0.866-0.641-1.188-1.099
				c-0.322-0.458-0.539-1.019-0.647-1.682c-0.114-0.694-0.065-1.317,0.146-1.87c0.211-0.553,0.53-1.031,0.958-1.434
				c0.428-0.403,0.935-0.729,1.523-0.977s1.204-0.418,1.845-0.511c0.617-0.089,1.175-0.114,1.67-0.076
				c0.495,0.038,0.951,0.121,1.369,0.246c-0.034-0.251-0.048-0.377-0.082-0.628c-0.089-0.666-0.358-1.126-0.806-1.381
				c-0.448-0.255-1.05-0.33-1.804-0.223c-0.771,0.109-1.462,0.319-2.076,0.624c-0.614,0.305-1.195,0.702-1.743,1.191
				c-0.562-0.932-0.845-1.397-1.414-2.326c0.276-0.242,0.594-0.481,0.954-0.716c0.36-0.235,0.756-0.452,1.187-0.651
				c0.431-0.199,0.897-0.375,1.4-0.524s1.036-0.263,1.596-0.342c0.393-0.056,0.802-0.093,1.226-0.111
				c0.424-0.018,0.842,0.005,1.254,0.068c0.412,0.063,0.811,0.182,1.194,0.353c0.383,0.171,0.73,0.413,1.04,0.725
				s0.573,0.709,0.788,1.19c0.215,0.48,0.361,1.068,0.445,1.758c0.377,3.108,0.566,4.662,0.944,7.771
				C61.624,22.396,60.996,22.476,59.738,22.644z M56.751,20.586c0.589-0.084,1.086-0.255,1.496-0.513
				c0.41-0.258,0.755-0.542,1.035-0.855c-0.07-0.525-0.106-0.788-0.176-1.313c-0.35-0.072-0.735-0.116-1.157-0.133
				c-0.422-0.017-0.848,0.005-1.28,0.066c-0.334,0.047-0.646,0.119-0.936,0.212c-0.29,0.093-0.539,0.214-0.746,0.359
				c-0.207,0.145-0.362,0.315-0.465,0.512c-0.103,0.197-0.135,0.421-0.097,0.668c0.06,0.394,0.289,0.682,0.688,0.867
				C55.512,20.641,56.057,20.686,56.751,20.586z"/>
			<path fill="#1A3275" d="M72.246,21.566c-0.618,0.053-1.16-0.008-1.629-0.184c-0.469-0.176-0.858-0.425-1.166-0.749
				c0.164,1.703,0.245,2.554,0.409,4.257c-1.21,0.687-1.811,1.035-3.007,1.735c-0.736-6.79-1.104-10.186-1.839-16.977
				c1.338-0.145,2.006-0.213,3.346-0.342c0.034,0.354,0.052,0.532,0.086,0.886c0.251-0.377,0.604-0.694,1.059-0.952
				c0.455-0.258,1.01-0.416,1.666-0.473c0.815-0.07,1.572,0.009,2.266,0.237c0.694,0.228,1.296,0.596,1.808,1.104
				c0.512,0.508,0.922,1.155,1.234,1.936c0.312,0.781,0.5,1.69,0.569,2.727c0.066,0.998-0.006,1.9-0.217,2.709
				c-0.211,0.809-0.531,1.505-0.96,2.088c-0.429,0.583-0.951,1.044-1.567,1.387C73.688,21.298,73,21.501,72.246,21.566z
				 M71.49,18.622c0.811-0.071,1.412-0.419,1.808-1.043s0.553-1.479,0.468-2.569c-0.041-0.522-0.133-0.989-0.278-1.4
				c-0.145-0.411-0.339-0.757-0.583-1.035c-0.244-0.278-0.534-0.487-0.872-0.623c-0.338-0.136-0.719-0.185-1.144-0.147
				c-0.541,0.047-0.987,0.174-1.336,0.379c-0.349,0.205-0.629,0.476-0.839,0.81c0.186,1.932,0.28,2.898,0.466,4.83
				c0.093,0.109,0.213,0.216,0.362,0.323s0.323,0.201,0.519,0.281s0.413,0.138,0.654,0.175C70.956,18.64,71.214,18.647,71.49,18.622
				z"/>
			<path fill="#1A3275" d="M85.851,20.743c-0.917,0.032-1.745-0.082-2.486-0.342c-0.741-0.26-1.383-0.653-1.925-1.181
				c-0.542-0.528-0.975-1.18-1.296-1.96c-0.321-0.78-0.513-1.669-0.57-2.668c-0.057-0.999,0.033-1.9,0.271-2.708
				c0.238-0.808,0.609-1.502,1.116-2.08c0.507-0.578,1.137-1.03,1.885-1.356c0.748-0.326,1.6-0.51,2.552-0.543
				c0.817-0.029,1.588,0.066,2.31,0.281s1.348,0.556,1.878,1.021c0.53,0.465,0.951,1.059,1.262,1.776
				c0.311,0.717,0.473,1.569,0.487,2.554c0.003,0.242,0.003,0.53,0,0.862s-0.028,0.661-0.072,0.989
				c-3.356,0.049-5.034,0.102-8.387,0.254c0.051,0.396,0.166,0.743,0.342,1.04c0.176,0.297,0.393,0.546,0.65,0.746
				c0.257,0.2,0.547,0.348,0.868,0.445c0.321,0.097,0.66,0.141,1.018,0.128c0.585-0.021,1.094-0.138,1.527-0.35
				c0.433-0.212,0.827-0.544,1.183-0.999c0.823,0.753,1.232,1.13,2.044,1.89c-0.524,0.642-1.167,1.16-1.932,1.554
				C87.811,20.49,86.905,20.705,85.851,20.743z M85.495,10.634c-0.784,0.028-1.417,0.237-1.897,0.625
				c-0.48,0.388-0.751,0.972-0.816,1.75c2.125-0.096,3.187-0.135,5.313-0.19c-0.126-0.724-0.423-1.274-0.893-1.651
				C86.732,10.791,86.162,10.611,85.495,10.634z"/>
			<path fill="#1A3275" d="M101.165,11.461c-0.123-0.12-0.265-0.245-0.424-0.373c-0.16-0.128-0.345-0.243-0.552-0.344
				s-0.439-0.185-0.701-0.251s-0.549-0.101-0.857-0.104c-0.501-0.006-0.906,0.069-1.217,0.223c-0.311,0.154-0.465,0.378-0.467,0.675
				c-0.002,0.164,0.068,0.315,0.209,0.457c0.14,0.142,0.328,0.273,0.564,0.392c0.234,0.119,0.504,0.234,0.81,0.343
				c0.306,0.109,0.624,0.216,0.952,0.323c0.553,0.179,1.086,0.384,1.598,0.613s0.959,0.509,1.342,0.831s0.686,0.704,0.906,1.148
				c0.221,0.444,0.322,0.972,0.303,1.581c-0.02,0.601-0.154,1.129-0.402,1.583s-0.592,0.832-1.033,1.137
				c-0.439,0.305-0.963,0.533-1.574,0.686c-0.611,0.152-1.291,0.225-2.039,0.215c-0.516-0.006-1.02-0.065-1.514-0.174
				c-0.495-0.109-0.963-0.258-1.406-0.45s-0.848-0.424-1.212-0.696c-0.365-0.272-0.673-0.576-0.927-0.91
				c0.852-0.704,1.28-1.056,2.144-1.753c0.14,0.125,0.308,0.266,0.507,0.419c0.199,0.153,0.426,0.295,0.682,0.43
				c0.254,0.135,0.537,0.249,0.84,0.341c0.305,0.092,0.627,0.141,0.968,0.146c0.562,0.007,1.022-0.067,1.387-0.221
				c0.365-0.154,0.552-0.428,0.56-0.826c0.004-0.195-0.057-0.373-0.18-0.532c-0.123-0.159-0.304-0.308-0.539-0.448
				c-0.234-0.14-0.523-0.28-0.865-0.417c-0.342-0.137-0.732-0.283-1.164-0.436c-0.604-0.214-1.155-0.438-1.648-0.666
				c-0.492-0.228-0.914-0.489-1.261-0.782s-0.614-0.633-0.802-1.023c-0.188-0.39-0.285-0.859-0.289-1.406
				c-0.003-0.563,0.119-1.058,0.369-1.489c0.25-0.431,0.592-0.794,1.023-1.087s0.941-0.514,1.528-0.659
				c0.586-0.145,1.213-0.213,1.879-0.205c0.565,0.007,1.091,0.069,1.578,0.188s0.928,0.271,1.323,0.459
				c0.395,0.188,0.75,0.408,1.062,0.654s0.587,0.502,0.823,0.767C102.529,10.472,102.072,10.801,101.165,11.461z"/>
			<path fill="#1A3275" d="M121.082,7.784c-0.5,5.447-0.748,8.171-1.246,13.619c-1.33-0.122-1.996-0.178-3.326-0.283
				c0.432-5.453,0.646-8.181,1.078-13.634c-2.076-0.164-3.115-0.237-5.195-0.363c0.076-1.25,0.111-1.873,0.188-3.123
				c5.621,0.34,8.43,0.581,14.031,1.198c-0.137,1.244-0.205,1.864-0.342,3.108C124.195,8.077,123.156,7.974,121.082,7.784z"/>
			<path fill="#1A3275" d="M130.764,22.924c-0.889-0.118-1.668-0.366-2.348-0.746c-0.678-0.38-1.234-0.87-1.674-1.476
				s-0.754-1.319-0.941-2.138c-0.188-0.819-0.227-1.726-0.115-2.719s0.35-1.871,0.721-2.631c0.369-0.76,0.848-1.385,1.432-1.875
				c0.586-0.49,1.271-0.836,2.051-1.034c0.779-0.198,1.637-0.237,2.566-0.114c0.932,0.123,1.748,0.385,2.451,0.781
				c0.701,0.396,1.271,0.908,1.709,1.534s0.732,1.354,0.889,2.185s0.154,1.74,0,2.728c-0.154,0.988-0.43,1.852-0.82,2.594
				s-0.877,1.348-1.461,1.817c-0.582,0.469-1.25,0.798-2.002,0.987C132.467,23.006,131.65,23.042,130.764,22.924z M131.156,19.951
				c0.404,0.054,0.781,0.025,1.125-0.085c0.346-0.11,0.648-0.296,0.912-0.555s0.486-0.588,0.668-0.988s0.311-0.864,0.385-1.39
				c0.076-0.534,0.084-1.018,0.02-1.453s-0.188-0.816-0.373-1.142c-0.188-0.326-0.436-0.589-0.744-0.789
				c-0.309-0.2-0.672-0.329-1.086-0.384s-0.797-0.025-1.148,0.087c-0.352,0.112-0.66,0.301-0.924,0.567
				c-0.264,0.266-0.484,0.601-0.66,1.004c-0.176,0.403-0.295,0.872-0.359,1.407c-0.066,0.527-0.063,1.008,0.008,1.442
				c0.07,0.434,0.199,0.809,0.385,1.128c0.188,0.319,0.432,0.577,0.736,0.773C130.402,19.769,130.752,19.897,131.156,19.951z"/>
			<path fill="#1A3275" d="M144.125,25.048c-0.777-0.144-1.461-0.411-2.049-0.801s-1.061-0.889-1.422-1.501
				s-0.604-1.333-0.723-2.165s-0.096-1.76,0.072-2.785c0.164-0.987,0.443-1.849,0.846-2.586c0.4-0.737,0.891-1.338,1.463-1.799
				c0.574-0.461,1.215-0.778,1.928-0.949c0.713-0.171,1.463-0.187,2.246-0.042c0.641,0.119,1.174,0.33,1.598,0.63
				c0.426,0.3,0.744,0.651,0.959,1.051c0.348-1.78,0.521-2.67,0.869-4.45c1.451-0.294,2.18-0.438,3.643-0.714
				c-1.41,6.788-2.115,10.182-3.525,16.97c-1.264-0.263-1.898-0.389-3.166-0.637c0.068-0.35,0.104-0.525,0.172-0.875
				c-0.328,0.318-0.736,0.536-1.223,0.653C145.324,25.165,144.762,25.165,144.125,25.048z M145.189,22.192
				c0.521,0.098,0.975,0.096,1.359-0.005c0.387-0.101,0.727-0.281,1.02-0.542c0.373-1.905,0.557-2.857,0.93-4.762
				c-0.061-0.131-0.146-0.27-0.264-0.416s-0.262-0.285-0.438-0.418c-0.174-0.133-0.375-0.25-0.598-0.353
				c-0.225-0.103-0.475-0.179-0.754-0.231c-0.832-0.155-1.523,0.017-2.07,0.514s-0.916,1.29-1.107,2.375
				c-0.092,0.516-0.119,0.989-0.084,1.424c0.037,0.436,0.135,0.82,0.295,1.154c0.162,0.334,0.385,0.608,0.668,0.823
				C144.432,21.97,144.779,22.116,145.189,22.192z"/>
			<path fill="#1A3275" d="M160.715,28.355c0.088-0.346,0.133-0.519,0.219-0.865c-0.18,0.108-0.389,0.207-0.623,0.293
				s-0.5,0.15-0.793,0.194c-0.295,0.044-0.615,0.06-0.957,0.045c-0.342-0.015-0.715-0.069-1.117-0.165
				c-0.637-0.152-1.213-0.375-1.729-0.67s-0.938-0.656-1.273-1.084c-0.336-0.428-0.572-0.914-0.701-1.459
				c-0.131-0.545-0.125-1.146,0.02-1.802c0.15-0.687,0.422-1.248,0.824-1.683s0.875-0.762,1.424-0.979s1.143-0.333,1.783-0.345
				c0.641-0.012,1.277,0.059,1.91,0.21c0.609,0.146,1.137,0.327,1.586,0.545c0.449,0.218,0.844,0.466,1.189,0.737
				c0.061-0.246,0.092-0.369,0.152-0.614c0.164-0.652,0.084-1.18-0.238-1.583c-0.324-0.403-0.857-0.695-1.602-0.875
				c-0.76-0.184-1.486-0.247-2.172-0.19c-0.684,0.057-1.373,0.211-2.063,0.463c-0.18-1.074-0.271-1.611-0.457-2.685
				c0.346-0.123,0.73-0.227,1.152-0.312c0.424-0.085,0.871-0.141,1.348-0.167s0.977-0.017,1.5,0.031s1.063,0.138,1.615,0.272
				c0.389,0.094,0.783,0.212,1.188,0.352c0.402,0.14,0.785,0.317,1.146,0.529c0.363,0.212,0.693,0.468,0.988,0.77
				c0.295,0.302,0.527,0.655,0.701,1.061c0.174,0.404,0.273,0.869,0.295,1.396c0.023,0.527-0.053,1.128-0.229,1.801
				c-0.797,3.028-1.197,4.542-1.994,7.571C162.572,28.825,161.953,28.665,160.715,28.355z M158.686,25.334
				c0.582,0.14,1.109,0.167,1.588,0.079s0.904-0.225,1.281-0.412c0.129-0.514,0.193-0.771,0.322-1.285
				c-0.301-0.196-0.643-0.379-1.031-0.551s-0.793-0.311-1.221-0.413c-0.33-0.08-0.646-0.129-0.951-0.149s-0.582,0-0.828,0.059
				c-0.248,0.059-0.455,0.16-0.625,0.305c-0.168,0.145-0.279,0.339-0.336,0.583c-0.092,0.388,0.016,0.743,0.318,1.063
				C157.506,24.933,158.002,25.17,158.686,25.334z"/>
			<path fill="#1A3275" d="M170.629,35.892c-1.27-0.377-1.906-0.562-3.18-0.923c1.258-1.646,1.895-2.465,3.18-4.098
				c-0.486-5.186-0.775-7.782-1.438-12.981c1.344,0.366,2.016,0.553,3.354,0.935c0.346,3.048,0.5,4.57,0.785,7.613
				c0.039,0.395,0.047,1.189,0.047,1.189c0.008,0.002,0.219-0.341,0.334-0.501c0.117-0.16,0.234-0.317,0.35-0.47
				c1.912-2.388,2.881-3.575,4.846-5.933c1.328,0.413,1.99,0.625,3.314,1.055C177.428,27.338,175.111,30.163,170.629,35.892z"/>
		</g>
	</g>
	<g>
		<g>
			<path fill="#1A3275" d="M34.253,106.518c-1.867,3.555-2.816,5.326-4.752,8.854c-0.724-0.205-1.086-0.311-1.81-0.52
				c0.036-2.393,0.063-3.588,0.129-5.977c0.003-0.162,0.014-0.301,0.031-0.422s0.044-0.326,0.044-0.326
				c-0.001,0-0.09,0.186-0.147,0.295c-0.057,0.107-0.125,0.227-0.204,0.355c-1.239,2.045-1.866,3.063-3.133,5.094
				c-0.721-0.221-1.081-0.332-1.8-0.559c0.321-4.01,0.5-6.01,0.893-10.006c0.761,0.248,1.142,0.369,1.904,0.609
				c-0.236,2.24-0.349,3.359-0.564,5.604c-0.013,0.172-0.029,0.313-0.045,0.422c-0.016,0.111-0.047,0.314-0.047,0.314
				c0.001,0,0.091-0.188,0.142-0.289c0.051-0.1,0.123-0.227,0.215-0.379c1.189-1.938,1.779-2.908,2.945-4.855
				c0.644,0.195,0.966,0.291,1.61,0.48c-0.084,2.27-0.122,3.406-0.18,5.68c-0.002,0.182-0.008,0.326-0.021,0.439
				c-0.013,0.111-0.039,0.318-0.039,0.318c0.001,0,0.085-0.188,0.132-0.289c0.047-0.102,0.11-0.229,0.193-0.379
				c1.049-1.994,1.568-2.992,2.597-4.996C33.108,106.203,33.489,106.309,34.253,106.518z"/>
			<path fill="#1A3275" d="M37.973,117.6c0.397-1.631,0.597-2.445,0.995-4.078c0.057-0.234,0.073-0.443,0.049-0.629
				c-0.024-0.184-0.081-0.344-0.169-0.479c-0.088-0.137-0.202-0.25-0.341-0.338c-0.139-0.088-0.299-0.154-0.479-0.199
				c-0.188-0.047-0.371-0.07-0.548-0.064c-0.177,0.004-0.342,0.043-0.493,0.115c-0.151,0.072-0.282,0.182-0.396,0.328
				c-0.114,0.148-0.202,0.342-0.263,0.58c-0.419,1.637-0.628,2.455-1.047,4.092c-0.75-0.193-1.125-0.287-1.874-0.486
				c0.948-3.584,1.423-5.377,2.371-8.961c0.807-0.135,1.208-0.205,2.01-0.346c-0.36,1.406-0.54,2.111-0.899,3.518
				c0.286-0.205,0.608-0.338,0.966-0.396c0.358-0.061,0.744-0.039,1.159,0.064c0.306,0.076,0.599,0.193,0.879,0.355
				s0.514,0.377,0.702,0.646s0.313,0.596,0.377,0.98s0.037,0.84-0.086,1.363c-0.413,1.754-0.621,2.631-1.033,4.385
				C39.101,117.873,38.725,117.783,37.973,117.6z"/>
			<path fill="#1A3275" d="M45.03,119.383c-0.54-0.115-1.006-0.303-1.398-0.564c-0.392-0.26-0.7-0.58-0.929-0.965
				c-0.229-0.383-0.372-0.818-0.429-1.309s-0.019-1.018,0.11-1.586c0.129-0.568,0.324-1.061,0.583-1.477
				c0.259-0.414,0.572-0.748,0.937-0.994c0.365-0.246,0.772-0.408,1.225-0.484c0.453-0.076,0.937-0.059,1.456,0.053
				c0.445,0.094,0.849,0.248,1.212,0.461c0.363,0.215,0.661,0.488,0.893,0.818s0.388,0.717,0.473,1.164s0.072,0.953-0.04,1.516
				c-0.027,0.139-0.061,0.301-0.103,0.492c-0.042,0.189-0.096,0.373-0.162,0.555c-1.919-0.379-2.877-0.578-4.79-0.998
				c-0.031,0.23-0.02,0.443,0.037,0.639c0.057,0.193,0.143,0.367,0.26,0.518c0.117,0.152,0.26,0.277,0.43,0.379
				c0.17,0.104,0.359,0.176,0.566,0.221c0.339,0.072,0.647,0.074,0.925,0.014c0.278-0.061,0.55-0.197,0.813-0.408
				c0.372,0.537,0.559,0.807,0.936,1.342c-0.384,0.299-0.827,0.508-1.325,0.629S45.651,119.514,45.03,119.383z M46.254,113.613
				c-0.435-0.094-0.812-0.064-1.132,0.086c-0.32,0.148-0.557,0.436-0.709,0.865c1.193,0.262,1.789,0.389,2.984,0.635
				c0.025-0.43-0.067-0.779-0.275-1.057C46.914,113.867,46.624,113.689,46.254,113.613z"/>
			<path fill="#1A3275" d="M50.111,120.23c0.534-2.813,0.802-4.219,1.336-7.031c0.736,0.141,1.104,0.209,1.84,0.342
				c-0.045,0.25-0.068,0.375-0.113,0.625c0.143-0.205,0.336-0.363,0.583-0.475c0.247-0.111,0.548-0.135,0.903-0.072
				c0.3,0.053,0.561,0.146,0.783,0.281c0.222,0.135,0.421,0.307,0.601,0.512c-0.211,0.639-0.316,0.957-0.529,1.594
				c-0.157-0.146-0.335-0.277-0.533-0.393c-0.198-0.115-0.441-0.197-0.729-0.248c-0.163-0.029-0.323-0.035-0.482-0.018
				s-0.308,0.072-0.444,0.164c-0.136,0.09-0.257,0.229-0.363,0.414c-0.106,0.184-0.187,0.428-0.241,0.729
				c-0.286,1.57-0.428,2.354-0.714,3.926C51.249,120.441,50.869,120.375,50.111,120.23z"/>
			<path fill="#1A3275" d="M59.496,121.996c-0.545-0.082-1.02-0.242-1.425-0.479c-0.405-0.236-0.734-0.537-0.984-0.904
				c-0.25-0.369-0.418-0.797-0.504-1.281s-0.081-1.016,0.014-1.59c0.095-0.576,0.258-1.08,0.491-1.512
				c0.233-0.43,0.526-0.777,0.874-1.049c0.348-0.27,0.744-0.455,1.189-0.559c0.445-0.105,0.931-0.115,1.454-0.037
				c0.449,0.066,0.86,0.197,1.234,0.389s0.687,0.443,0.938,0.76s0.431,0.693,0.542,1.135c0.111,0.441,0.129,0.945,0.052,1.516
				c-0.019,0.139-0.045,0.305-0.076,0.496c-0.031,0.193-0.071,0.379-0.125,0.566c-1.934-0.264-2.9-0.402-4.829-0.705
				c-0.017,0.232,0.008,0.443,0.075,0.635s0.164,0.357,0.29,0.502c0.126,0.143,0.276,0.26,0.452,0.352
				c0.176,0.094,0.368,0.152,0.577,0.184c0.342,0.051,0.648,0.037,0.921-0.041c0.273-0.078,0.534-0.229,0.784-0.455
				c0.402,0.514,0.605,0.77,1.012,1.281c-0.365,0.322-0.791,0.559-1.28,0.711C60.683,122.061,60.122,122.088,59.496,121.996z
				 M60.369,116.162c-0.438-0.066-0.812-0.016-1.122,0.152c-0.31,0.17-0.529,0.475-0.655,0.91c1.203,0.189,1.805,0.277,3.009,0.449
				c-0.001-0.428-0.113-0.771-0.337-1.035C61.04,116.377,60.742,116.217,60.369,116.162z"/>
			<path fill="#1A3275" d="M64.849,116.084c0.072-0.047,0.159-0.113,0.26-0.201s0.205-0.186,0.31-0.291s0.205-0.217,0.297-0.334
				c0.092-0.117,0.23-0.307,0.222-0.33c-0.021-0.063-0.399-0.252-0.531-0.457c-0.132-0.203-0.18-0.447-0.143-0.73
				c0.023-0.178,0.076-0.332,0.158-0.463s0.186-0.242,0.31-0.33s0.259-0.15,0.408-0.188s0.303-0.045,0.459-0.025
				c0.165,0.021,0.315,0.072,0.453,0.148c0.138,0.076,0.255,0.176,0.353,0.301c0.098,0.123,0.167,0.271,0.209,0.445
				c0.042,0.172,0.051,0.367,0.025,0.584c-0.032,0.27-0.112,0.533-0.239,0.789s-0.285,0.498-0.475,0.719
				c-0.19,0.223-0.402,0.424-0.637,0.602c-0.235,0.176-0.479,0.318-0.73,0.43C65.273,116.484,65.132,116.352,64.849,116.084z"/>
			<path fill="#1A3275" d="M72.651,118.217c-0.064-0.074-0.139-0.154-0.224-0.234c-0.085-0.082-0.182-0.154-0.293-0.225
				c-0.111-0.068-0.24-0.127-0.384-0.178s-0.303-0.086-0.476-0.105c-0.281-0.027-0.511-0.006-0.694,0.066s-0.286,0.193-0.304,0.367
				c-0.01,0.096,0.022,0.188,0.093,0.277c0.071,0.09,0.17,0.176,0.297,0.258s0.275,0.162,0.442,0.242
				c0.167,0.078,0.343,0.158,0.526,0.236c0.306,0.131,0.598,0.271,0.88,0.428c0.282,0.156,0.529,0.336,0.736,0.537
				c0.207,0.203,0.369,0.438,0.481,0.703c0.112,0.266,0.153,0.576,0.121,0.93c-0.031,0.352-0.127,0.652-0.291,0.908
				c-0.164,0.254-0.382,0.461-0.656,0.621c-0.274,0.16-0.597,0.273-0.968,0.332c-0.371,0.061-0.78,0.068-1.226,0.021
				c-0.307-0.031-0.605-0.094-0.894-0.186c-0.289-0.094-0.56-0.209-0.811-0.348c-0.251-0.141-0.476-0.303-0.673-0.484
				c-0.197-0.182-0.357-0.379-0.483-0.592c0.55-0.346,0.823-0.521,1.369-0.871c0.073,0.08,0.163,0.172,0.27,0.271
				c0.107,0.102,0.231,0.199,0.373,0.293c0.142,0.094,0.3,0.174,0.473,0.244c0.173,0.072,0.36,0.117,0.56,0.139
				c0.329,0.033,0.606,0.014,0.827-0.059c0.221-0.072,0.342-0.225,0.365-0.455c0.011-0.113-0.015-0.221-0.08-0.318
				c-0.065-0.098-0.164-0.193-0.294-0.285c-0.13-0.094-0.29-0.191-0.481-0.287c-0.191-0.098-0.408-0.201-0.649-0.314
				c-0.337-0.156-0.642-0.318-0.911-0.48s-0.492-0.338-0.671-0.531c-0.179-0.191-0.311-0.406-0.391-0.645
				c-0.08-0.238-0.102-0.518-0.066-0.834c0.037-0.326,0.14-0.605,0.308-0.838c0.168-0.234,0.382-0.424,0.641-0.566
				c0.259-0.145,0.553-0.24,0.885-0.291s0.685-0.059,1.052-0.021c0.312,0.033,0.598,0.094,0.862,0.184s0.501,0.197,0.713,0.322
				c0.212,0.127,0.399,0.268,0.564,0.422s0.309,0.313,0.431,0.475C73.463,117.697,73.193,117.871,72.651,118.217z"/>
			<path fill="#1A3275" d="M82.078,124.123c0.083-1.525,0.127-2.289,0.21-3.814c-1.377-2.473-2.048-3.713-3.349-6.203
				c0.869,0.063,1.303,0.09,2.172,0.143c0.882,1.66,1.332,2.486,2.248,4.139c1.078-1.551,1.609-2.328,2.654-3.891
				c0.87,0.035,1.305,0.051,2.175,0.078c-1.545,2.346-2.335,3.512-3.956,5.832c-0.071,1.527-0.105,2.291-0.177,3.816
				C83.266,124.188,82.869,124.166,82.078,124.123z"/>
			<path fill="#1A3275" d="M91.433,124.625c-0.535-0.01-1.017-0.105-1.441-0.285c-0.424-0.18-0.782-0.434-1.073-0.764
				c-0.292-0.328-0.512-0.729-0.661-1.195c-0.149-0.465-0.213-0.99-0.196-1.574c0.017-0.582,0.113-1.105,0.288-1.564
				c0.175-0.461,0.413-0.848,0.714-1.162c0.301-0.316,0.662-0.555,1.081-0.715c0.419-0.162,0.889-0.24,1.407-0.23
				c0.518,0.008,0.984,0.1,1.398,0.275c0.414,0.174,0.768,0.424,1.057,0.748c0.291,0.324,0.515,0.723,0.671,1.186
				c0.157,0.465,0.237,0.99,0.236,1.574c-0.001,0.582-0.083,1.105-0.245,1.566c-0.162,0.463-0.392,0.854-0.692,1.174
				c-0.3,0.316-0.669,0.563-1.099,0.729C92.448,124.553,91.968,124.633,91.433,124.625z M91.461,122.875
				c0.239,0.004,0.454-0.039,0.646-0.127c0.192-0.09,0.355-0.217,0.488-0.389c0.134-0.168,0.238-0.377,0.312-0.621
				c0.074-0.244,0.112-0.523,0.115-0.832c0.003-0.314-0.03-0.596-0.098-0.844c-0.068-0.246-0.166-0.457-0.294-0.631
				c-0.127-0.176-0.285-0.311-0.473-0.404s-0.398-0.143-0.633-0.146c-0.235-0.004-0.447,0.039-0.637,0.127s-0.352,0.217-0.485,0.387
				c-0.134,0.17-0.238,0.377-0.314,0.623c-0.076,0.244-0.119,0.523-0.125,0.838c-0.007,0.311,0.022,0.588,0.088,0.836
				c0.066,0.248,0.163,0.457,0.291,0.633c0.127,0.172,0.286,0.309,0.476,0.402S91.223,122.871,91.461,122.875z"/>
			<path fill="#1A3275" d="M101.359,124.41c-0.008-0.268-0.01-0.402-0.016-0.67c-0.225,0.273-0.507,0.488-0.844,0.641
				c-0.339,0.154-0.729,0.234-1.167,0.242c-0.323,0.006-0.644-0.037-0.959-0.125c-0.315-0.09-0.603-0.244-0.853-0.459
				c-0.252-0.215-0.459-0.506-0.616-0.865c-0.158-0.359-0.239-0.803-0.242-1.336c-0.011-1.805-0.015-2.707-0.024-4.512
				c0.75-0.004,1.125-0.01,1.873-0.02c0.023,1.682,0.034,2.521,0.057,4.203c0.004,0.242,0.039,0.449,0.109,0.621
				c0.067,0.172,0.162,0.314,0.28,0.424c0.12,0.109,0.259,0.189,0.418,0.238c0.159,0.051,0.332,0.074,0.519,0.07
				c0.195-0.006,0.379-0.033,0.554-0.086c0.174-0.051,0.323-0.131,0.45-0.24c0.125-0.109,0.225-0.252,0.293-0.424
				c0.07-0.174,0.102-0.383,0.096-0.629c-0.042-1.691-0.063-2.537-0.105-4.229c0.746-0.02,1.119-0.031,1.864-0.055
				c0.095,2.859,0.142,4.291,0.235,7.15C102.512,124.377,102.127,124.391,101.359,124.41z"/>
			<path fill="#1A3275" d="M105.498,124.27c-0.121-2.859-0.182-4.291-0.301-7.15c0.744-0.031,1.117-0.049,1.861-0.086
				c0.014,0.254,0.02,0.381,0.031,0.635c0.092-0.232,0.244-0.43,0.459-0.594s0.498-0.256,0.857-0.275
				c0.303-0.018,0.578,0.014,0.824,0.096c0.248,0.08,0.479,0.201,0.701,0.361c-0.061,0.67-0.092,1.004-0.152,1.674
				c-0.186-0.107-0.389-0.195-0.607-0.262c-0.217-0.068-0.475-0.092-0.764-0.076c-0.166,0.008-0.324,0.039-0.475,0.094
				c-0.148,0.053-0.279,0.141-0.393,0.262c-0.111,0.117-0.197,0.281-0.258,0.484c-0.059,0.205-0.082,0.459-0.068,0.764
				c0.08,1.596,0.121,2.393,0.199,3.986C106.648,124.221,106.266,124.238,105.498,124.27z"/>
			<path fill="#1A3275" d="M115.449,123.645c-0.326-3.906-0.49-5.859-0.814-9.768c2.707-0.227,4.061-0.357,6.76-0.664
				c0.082,0.715,0.123,1.072,0.203,1.787c-1.953,0.219-2.93,0.318-4.885,0.5c0.076,0.818,0.111,1.229,0.188,2.049
				c1.162-0.107,1.74-0.164,2.9-0.285c0.074,0.711,0.111,1.068,0.186,1.781c-1.168,0.123-1.752,0.18-2.922,0.287
				c0.086,0.941,0.129,1.414,0.217,2.355c2.129-0.195,3.193-0.305,5.32-0.549c0.082,0.713,0.123,1.066,0.205,1.779
				C119.865,123.254,118.395,123.4,115.449,123.645z"/>
			<path fill="#1A3275" d="M127.914,117.051c-0.08-0.059-0.172-0.117-0.271-0.178c-0.102-0.059-0.213-0.109-0.338-0.15
				s-0.264-0.066-0.414-0.084c-0.154-0.016-0.314-0.014-0.488,0.01c-0.279,0.037-0.5,0.111-0.66,0.225
				c-0.164,0.113-0.23,0.254-0.209,0.426c0.012,0.096,0.064,0.178,0.154,0.25c0.088,0.07,0.205,0.131,0.35,0.182
				c0.143,0.051,0.303,0.096,0.484,0.135c0.182,0.037,0.371,0.072,0.566,0.105c0.328,0.057,0.648,0.129,0.959,0.213
				c0.313,0.086,0.592,0.205,0.842,0.354c0.25,0.146,0.459,0.338,0.629,0.57s0.285,0.525,0.336,0.877
				c0.049,0.348,0.021,0.666-0.076,0.951c-0.1,0.285-0.264,0.537-0.494,0.756c-0.227,0.221-0.516,0.402-0.863,0.547
				c-0.348,0.143-0.748,0.248-1.191,0.307c-0.307,0.041-0.611,0.049-0.912,0.025c-0.303-0.023-0.592-0.072-0.869-0.15
				s-0.535-0.182-0.77-0.314s-0.436-0.289-0.607-0.465c0.455-0.465,0.682-0.697,1.133-1.164c0.09,0.063,0.197,0.129,0.324,0.203
				c0.129,0.072,0.271,0.139,0.43,0.197c0.162,0.057,0.332,0.1,0.518,0.129c0.184,0.029,0.379,0.029,0.58,0.002
				c0.326-0.043,0.592-0.127,0.791-0.248c0.197-0.121,0.279-0.297,0.25-0.527c-0.018-0.111-0.066-0.209-0.152-0.289
				s-0.203-0.15-0.354-0.211c-0.145-0.061-0.32-0.117-0.529-0.168c-0.209-0.049-0.447-0.1-0.709-0.152
				c-0.363-0.074-0.697-0.162-0.998-0.256c-0.299-0.096-0.561-0.217-0.779-0.361c-0.217-0.145-0.395-0.324-0.527-0.537
				s-0.217-0.48-0.254-0.795c-0.041-0.326-0.006-0.623,0.104-0.889c0.109-0.268,0.273-0.5,0.492-0.699s0.484-0.361,0.795-0.488
				c0.313-0.127,0.65-0.215,1.016-0.264c0.313-0.041,0.605-0.049,0.885-0.021c0.277,0.027,0.533,0.074,0.77,0.148
				c0.234,0.072,0.453,0.168,0.646,0.279c0.195,0.113,0.371,0.232,0.529,0.361C128.584,116.355,128.361,116.588,127.914,117.051z"/>
			<path fill="#1A3275" d="M135.057,121.373c-0.52,0.086-1.008,0.08-1.455-0.021c-0.449-0.102-0.848-0.289-1.189-0.559
				c-0.344-0.271-0.631-0.625-0.863-1.057c-0.229-0.432-0.389-0.939-0.477-1.516c-0.088-0.578-0.088-1.107,0.002-1.592
				c0.088-0.482,0.254-0.906,0.49-1.271c0.238-0.363,0.549-0.664,0.934-0.896c0.381-0.234,0.826-0.395,1.328-0.477
				c0.742-0.123,1.396-0.066,1.977,0.172c0.576,0.238,1.049,0.695,1.416,1.369c-0.67,0.355-1.006,0.529-1.68,0.879
				c-0.15-0.252-0.348-0.443-0.586-0.576s-0.504-0.174-0.797-0.125c-0.227,0.037-0.426,0.119-0.596,0.244
				c-0.168,0.125-0.301,0.281-0.402,0.473c-0.102,0.193-0.168,0.416-0.199,0.67c-0.029,0.254-0.021,0.531,0.025,0.832
				c0.049,0.301,0.127,0.568,0.236,0.797s0.242,0.418,0.396,0.568c0.156,0.15,0.332,0.258,0.527,0.32
				c0.193,0.063,0.402,0.076,0.623,0.039c0.322-0.053,0.582-0.186,0.775-0.398c0.191-0.213,0.311-0.496,0.355-0.848
				c0.752,0.082,1.131,0.121,1.887,0.197c-0.088,0.779-0.363,1.404-0.822,1.871C136.502,120.936,135.867,121.24,135.057,121.373z"/>
			<path fill="#1A3275" d="M144.209,119.496c-0.041-0.203-0.061-0.305-0.102-0.508c-0.068,0.102-0.156,0.205-0.26,0.311
				c-0.105,0.105-0.229,0.207-0.377,0.303c-0.148,0.1-0.32,0.188-0.51,0.266c-0.188,0.076-0.404,0.139-0.646,0.188
				c-0.385,0.076-0.752,0.096-1.105,0.063c-0.35-0.033-0.668-0.127-0.953-0.277c-0.281-0.15-0.523-0.357-0.719-0.619
				c-0.197-0.264-0.33-0.588-0.4-0.973c-0.076-0.402-0.055-0.768,0.059-1.092c0.115-0.324,0.289-0.607,0.527-0.85
				c0.234-0.242,0.521-0.441,0.85-0.598c0.33-0.158,0.676-0.271,1.039-0.344c0.35-0.07,0.666-0.102,0.949-0.098
				c0.287,0.006,0.553,0.035,0.797,0.09c-0.031-0.145-0.045-0.217-0.076-0.361c-0.078-0.383-0.25-0.641-0.514-0.771
				c-0.264-0.133-0.605-0.156-1.027-0.072c-0.43,0.086-0.813,0.227-1.152,0.416c-0.338,0.191-0.656,0.434-0.959,0.729
				c-0.34-0.535-0.508-0.801-0.844-1.336c0.15-0.145,0.326-0.287,0.52-0.428c0.197-0.143,0.41-0.273,0.645-0.398
				s0.49-0.236,0.764-0.334c0.275-0.098,0.566-0.178,0.875-0.24c0.217-0.043,0.441-0.078,0.678-0.102
				c0.232-0.025,0.465-0.027,0.697-0.006c0.234,0.021,0.461,0.076,0.684,0.158c0.221,0.082,0.428,0.211,0.617,0.377
				c0.188,0.166,0.357,0.387,0.504,0.654c0.146,0.27,0.264,0.602,0.348,0.998c0.383,1.785,0.574,2.678,0.957,4.465
				C145.328,119.266,144.955,119.342,144.209,119.496z M142.367,118.412c0.346-0.068,0.633-0.188,0.863-0.354
				s0.422-0.344,0.572-0.537c-0.063-0.303-0.094-0.455-0.156-0.758c-0.205-0.029-0.428-0.039-0.674-0.033
				c-0.246,0.008-0.494,0.035-0.74,0.084c-0.193,0.039-0.371,0.09-0.539,0.152c-0.164,0.063-0.303,0.139-0.42,0.229
				s-0.203,0.195-0.258,0.313s-0.07,0.246-0.041,0.391c0.043,0.229,0.186,0.393,0.426,0.488
				C141.639,118.484,141.963,118.494,142.367,118.412z"/>
			<path fill="#1A3275" d="M151.611,118.025c-0.361,0.086-0.691,0.1-0.984,0.037s-0.541-0.176-0.748-0.338
				c0.227,0.973,0.338,1.459,0.564,2.432c-0.686,0.498-1.031,0.746-1.721,1.238c-0.869-3.887-1.305-5.832-2.174-9.721
				c0.732-0.164,1.1-0.246,1.83-0.416c0.047,0.203,0.07,0.303,0.117,0.506c0.109-0.236,0.281-0.445,0.51-0.629
				c0.23-0.182,0.523-0.314,0.881-0.4c0.443-0.105,0.867-0.125,1.273-0.055c0.402,0.07,0.775,0.229,1.107,0.469
				c0.336,0.244,0.635,0.572,0.891,0.988s0.459,0.92,0.607,1.508c0.143,0.566,0.193,1.094,0.156,1.578
				c-0.039,0.486-0.152,0.92-0.348,1.299s-0.459,0.699-0.795,0.957C152.445,117.736,152.057,117.918,151.611,118.025z
				 M150.92,116.391c0.469-0.109,0.787-0.365,0.959-0.76c0.176-0.396,0.188-0.904,0.035-1.525c-0.072-0.295-0.17-0.559-0.291-0.781
				s-0.262-0.404-0.426-0.543s-0.344-0.232-0.547-0.283c-0.201-0.049-0.42-0.045-0.654,0.01c-0.301,0.072-0.541,0.18-0.721,0.326
				c-0.178,0.145-0.318,0.322-0.41,0.529c0.256,1.104,0.383,1.654,0.639,2.758c0.063,0.057,0.143,0.109,0.236,0.16
				s0.205,0.09,0.324,0.119c0.123,0.031,0.254,0.047,0.396,0.049C150.607,116.449,150.76,116.43,150.92,116.391z"/>
			<path fill="#1A3275" d="M159.578,115.979c-0.535,0.148-1.037,0.195-1.506,0.145c-0.467-0.051-0.893-0.195-1.271-0.43
				s-0.707-0.559-0.982-0.965c-0.275-0.408-0.484-0.895-0.631-1.461c-0.146-0.564-0.199-1.092-0.16-1.58
				c0.041-0.486,0.166-0.924,0.377-1.313c0.209-0.387,0.496-0.721,0.865-0.996c0.369-0.277,0.809-0.482,1.322-0.625
				c0.439-0.121,0.871-0.17,1.297-0.148c0.422,0.023,0.813,0.129,1.168,0.316c0.357,0.186,0.68,0.457,0.961,0.813
				c0.279,0.357,0.504,0.814,0.664,1.365c0.039,0.137,0.084,0.297,0.133,0.484s0.088,0.375,0.113,0.566
				c-1.889,0.549-2.838,0.814-4.734,1.32c0.08,0.219,0.186,0.404,0.324,0.549c0.139,0.146,0.297,0.262,0.471,0.342
				s0.363,0.127,0.561,0.141c0.199,0.012,0.4-0.012,0.607-0.068c0.334-0.092,0.611-0.229,0.83-0.412
				c0.221-0.182,0.4-0.428,0.539-0.736c0.578,0.305,0.869,0.459,1.451,0.76c-0.205,0.443-0.502,0.834-0.893,1.172
				C160.695,115.555,160.191,115.811,159.578,115.979z M158.016,110.289c-0.432,0.119-0.754,0.318-0.973,0.6
				c-0.215,0.279-0.295,0.646-0.232,1.096c1.182-0.316,1.771-0.479,2.953-0.811c-0.176-0.391-0.418-0.662-0.732-0.811
				C158.721,110.215,158.379,110.189,158.016,110.289z"/>
			<path fill="#1A3275" d="M165.221,111.41c-0.059-0.193-0.086-0.289-0.146-0.482c-0.125-0.414-0.178-0.781-0.152-1.098
				c0.027-0.316,0.092-0.605,0.193-0.861c0.104-0.256,0.229-0.49,0.375-0.699s0.279-0.412,0.398-0.607
				c0.121-0.195,0.211-0.393,0.271-0.586c0.061-0.195,0.055-0.408-0.018-0.639c-0.098-0.303-0.279-0.521-0.545-0.652
				c-0.268-0.131-0.594-0.137-0.984-0.016c-0.459,0.143-0.77,0.389-0.932,0.736c-0.162,0.35-0.166,0.775-0.016,1.275
				c-0.723,0.219-1.084,0.326-1.809,0.541c-0.154-0.523-0.213-1.014-0.174-1.463c0.037-0.449,0.158-0.855,0.361-1.217
				c0.203-0.359,0.479-0.67,0.824-0.934c0.35-0.262,0.754-0.467,1.225-0.611c0.48-0.148,0.932-0.213,1.346-0.191
				c0.418,0.021,0.791,0.111,1.119,0.275c0.326,0.162,0.611,0.387,0.848,0.674s0.416,0.621,0.541,1.002
				c0.088,0.273,0.135,0.527,0.139,0.754c0.006,0.229-0.021,0.441-0.074,0.639c-0.053,0.193-0.125,0.381-0.219,0.553
				c-0.094,0.174-0.189,0.342-0.295,0.502c-0.104,0.158-0.207,0.316-0.305,0.473c-0.098,0.154-0.18,0.316-0.244,0.482
				c-0.064,0.168-0.107,0.34-0.121,0.52c-0.012,0.18,0.018,0.379,0.082,0.592c0.061,0.188,0.088,0.283,0.146,0.471
				C166.322,111.074,165.957,111.186,165.221,111.41z M166.986,113.814c-0.172,0.053-0.34,0.074-0.506,0.063
				c-0.162-0.012-0.314-0.051-0.451-0.115s-0.254-0.158-0.355-0.273s-0.178-0.25-0.225-0.404c-0.049-0.156-0.061-0.314-0.041-0.467
				s0.066-0.295,0.141-0.428c0.076-0.131,0.178-0.25,0.305-0.35c0.129-0.102,0.279-0.18,0.449-0.232
				c0.172-0.053,0.336-0.072,0.5-0.061c0.162,0.01,0.316,0.049,0.453,0.115c0.141,0.064,0.262,0.154,0.365,0.27
				c0.105,0.113,0.184,0.252,0.232,0.41c0.049,0.152,0.063,0.305,0.041,0.457c-0.021,0.154-0.072,0.299-0.15,0.43
				c-0.076,0.131-0.18,0.252-0.309,0.354S167.16,113.76,166.986,113.814z"/>
		</g>
	</g>
</g>
</svg>
