<?xml version="1.0" standalone="yes"?>

<svg version="1.1" viewBox="0.0 0.0 960.0 720.0" fill="none" stroke="none" stroke-linecap="square" stroke-miterlimit="10" xmlns="http://www.w3.org/2000/svg" xmlns:xlink="http://www.w3.org/1999/xlink"><clipPath id="p.0"><path d="m0 0l960.0 0l0 720.0l-960.0 0l0 -720.0z" clip-rule="nonzero"></path></clipPath><g clip-path="url(#p.0)"><path fill="#FFFFFF" fill-opacity="0.0" d="m0 0l960.0 0l0 720.0l-960.0 0z" fill-rule="nonzero"></path><path fill="#FFFFFF" fill-opacity="0.0" d="m0 0l473.5118 0l0 98.74016l-473.5118 0z" fill-rule="nonzero"></path><path fill="#FFFFFF" d="m24.265625 101159996q-2.203125 0 -3.75 -1.53125q-1.53125 -1.546875 -1.53125 -3.75l0 -56.640625q0 -2.203125 1.53125 -3.734375q1.546875 -1.546875 3.75 -1.546875l31.390625 0q2.109375 0 3.6875 1.546875q1.59375 1.53125 1.59375 3.734375q0 2.203125 -1.59375 3.796875q-1.578125 1.578125 -3.6875 1.578125l-26.015625 0l0 17.578125l22.375 0q2.109375 0 3.6875 1.578125q1.578125 1.578125 1.578125 3.75q0 2.15625 -1.53125 3.75q-1.53125 1.578125 -3.734375 1.578125l-22.375 0l0 17.65625l26.015625 0q2.109375 0 3.6875 1.59375q1.59375 1.578125 1.59375 3.734375q0 2.15625 -1.59375 3.75q-1.578125 1.578125 -3.6875 1.578125l-31.109375 0l-0.1875 -0.09375l-0.09375 0.09375zm91.0061 -20.453125q0 -7.296875 -16.890625 -10.453125l-0.203125 0q-7.484375 -1.453125 -12.953125 -4.03125q-5.46875 -2.59375 -8.015625 -6.671875q-2.546875 -4.09375 -2.546875 -8.40625q0 -8.359375 7.34375 -13.734375q7.34375 -5.375 16.953125 -5.375q4.21875 0 8.625 1.453125q4.421875 1.4375 6.578125 2.6875q2.171875 1.234375 5.71875 3.546875q1.625 1.15625 2.0625 3.171875q0.4375 2.015625 -0.671875 3.703125q-1.109375 1.671875 -3.125 2.109375q-2.015625 0.421875 -3.734375 -0.734375q-4.515625 -3.0625 -8.03125 -4.59375q-3.5 -1.546875 -7.421875 -1.546875q-6.34375 0 -10.375 2.984375q-4.03125 2.96875 -4.03125 6.328125q0 1.625 0.765625 2.78125q2.6875 4.421875 14.5 6.625l0.1875 0q8.0625 1.640625 13.25 4.03125q11.90625 5.859375 11.90625 16.125q0 8.9375 -7.875 14.65625q-7.875 5.703125 -18.140625 5.703125q-12.578125 -0.09375 -24.578125 -9.609375q-1.53125 -1.234375 -1.78125 -3.34375q-0.234375 -2.125 1.015625 -3.65625q1.25 -1.53125 3.359375 -1.765625q2.109375 -0.25 3.640625 1.09375q9.21875 7.484375 18.34375 7.390625q7.203125 0 11.65625 -3.3125q4.46875 -3.3125 4.46875 -7.15625zm39.641342 -30.8125q-7.0 7.203125 -7.0 16.90625q0 9.6875 7.140625 16.5625q7.15625 6.859375 16.5625 6.859375q9.421875 0 16.046875 -5.28125q1.625 -1.25 3.921875 -0.953125q2.3125 0.28125 3.75 2.0q1.34375 1.828125 1.046875 4.09375q-0.28125 2.25 -2.0 3.59375q-9.609375 7.484375 -22.1875 7.484375q-14.390625 0 -24.765625 -10.125q-10.359375 -10.125 -10.453125 -24.4375q0.09375 -14.203125 10.453125 -24.328125q10.375 -10.140625 24.765625 -10.234375q12.578125 0 22.1875 7.5q1.71875 1.4375 2.0 3.640625q0.296875 2.203125 -1.09375 4.03125q-1.390625 1.828125 -3.703125 2.125q-2.296875 0.28125 -3.921875 -1.0625q-6.4375 -5.28125 -15.890625 -5.28125q-9.453125 0 -16.859375 6.90625zm98.01596 47.90625l-4.703125 -12.484375l-23.328125 0l-4.703125 12.484375q-1.34375 3.359375 -4.65625 3.359375q-3.3125 0 -4.75 -2.34375q-1.4375 -2.359375 -0.578125 -4.859375l21.21875 -56.546875q0.671875 -1.53125 2.0625 -2.484375q1.390625 -0.96875 3.03125 -0.875q3.640625 -0.1875 5.078125 3.359375l21.218735 56.546875q0.875 2.5 -0.578125 4.859375q-1.4375 2.34375 -4.75 2.34375q-3.3124847 0 -4.5624847 -3.359375zm-24.1875 -23.046875l15.546875 0l-7.765625 -20.640625l-7.78125 20.640625zm69.703476 -40.796875q8.53125 0 14.578125 6.046875q6.0625 6.046875 6.0625 14.546875q0 8.5 -6.0625 14.5q-6.046875 6.0 -14.578125 6.0l-11.8125 0l0 20.828125q0 2.203125 -1.59375 3.75q-1.578125 1.53125 -3.78125 1.53125q-2.203125 0 -3.75 -1.53125q-1.53125 -1.546875 -1.53125 -3.75l0 -56.640625q0 -2.203125 1.53125 -3.734375q1.546875 -1.546875 3.75 -1.546875l17.1875 0zm-11.8125 10.65625l0 19.78125l11.8125 0q4.125 0 7.0 -2.875q2.890625 -2.890625 2.984375 -6.921875q-0.09375 -4.21875 -2.984375 -7.09375q-2.875 -2.890625 -7.0 -2.890625l-11.8125 0zm50.592957 56.546875q-2.203125 0 -3.75 -1.53125q-1.53125 -1.546875 -1.53125 -3.75l0 -56.640625q0 -2.203125 1.53125 -3.734375q1.546875 -1.546875 3.75 -1.546875l31.390625 0q2.109375 0 3.6875 1.546875q1.59375 1.53125 1.59375 3.734375q0 2.203125 -1.59375 3.796875q-1.578125 1.578125 -3.6875 1.578125l-26.015625 0l0 17.578125l22.375 0q2.109375 0 3.6875 1.578125q1.578125 1.578125 1.578125 3.75q0 2.15625 -1.53125 3.75q-1.53125 1.578125 -3.734375 1.578125l-22.375 0l0 17.65625l26.015625 0q2.109375 0 3.6875 1.59375q1.59375 1.578125 1.59375 3.734375q0 2.15625 -1.59375 3.75q-1.578125 1.578125 -3.6875 1.578125l-31.109375 0l-0.1875 -0.09375l-0.09375 0.09375zm91.0061 -20.453125q0 -7.296875 -16.890625 -10.453125l-0.203125 0q-7.484375 -1.453125 -12.953125 -4.03125q-5.46875 -2.59375 -8.015625 -6.671875q-2.546875 -4.09375 -2.546875 -8.40625q0 -8.359375 7.34375 -13.734375q7.34375 -5.375 16.953125 -5.375q4.21875 0 8.625 1.453125q4.421875 1.4375 6.578125 2.6875q2.171875 1.234375 5.71875 3.546875q1.625 1.15625 2.0625 3.171875q0.4375 2.015625 -0.671875 3.703125q-1.109375 1.671875 -3.125 2.109375q-2.015625 0.421875 -3.734375 -0.734375q-4.515625 -3.0625 -8.03125 -4.59375q-3.5 -1.546875 -7.421875 -1.546875q-6.34375 0 -10.375 2.984375q-4.03125 2.96875 -4.03125 6.328125q0 1.625 0.765625 2.78125q2.6875 4.421875 14.5 6.625l0.1875 0q8.0625 1.640625 13.25 4.03125q11.90625 5.859375 11.90625 16.125q0 8.9375 -7.875 14.65625q-7.875 5.703125 -18.140625 5.703125q-12.578125 -0.09375 -24.578125 -9.609375q-1.53125 -1.234375 -1.78125 -3.34375q-0.234375 -2.125 1.015625 -3.65625q1.25 -1.53125 3.359375 -1.765625q2.109375 -0.25 3.640625 1.09375q9.21875 7.484375 18.34375 7.390625q7.203125 0 11.65625 -3.3125q4.46875 -3.3125 4.46875 -7.15625z" fill-rule="nonzero"></path><path fill="#FFFFFF" fill-opacity="0.0" d="m4.2545934 74.53281l436.56693 0l0 105.00787l-436.56693 0z" fill-rule="nonzero"></path><path fill="#FFFFFF" d="m86.34834 118.86594q2.046875 2.046875 2.046875 5.0q0 2.9375 -2.125 5.046875q-2.109375 2.109375 -4.921875 2.109375l-20.34375 0l0 68.34375q0 2.953125 -2.0625 5.0q-2.046875 2.046875 -4.984375 2.046875q-2.9375 0 -5.0 -2.046875q-2.046875 -2.046875 -2.046875 -5.0l0 -68.34375l-20.21875 0q-2.9375 0 -4.984375 -2.109375q-2.046875 -2.109375 -2.046875 -5.046875q0 -2.953125 2.046875 -5.0q2.046875 -2.046875 4.984375 -2.046875l54.65625 0q2.953125 0 5.0 2.046875z" fill-rule="nonzero"></path><path fill="#FFFFFF" d="m67.6273 117.23622l362.86615 0l0 14.173233l-362.86615 0z" fill-rule="nonzero"></path><path fill="#FFFFFF" d="m422.6509 124.32284l0 0c0 -3.9138336 3.1727905 -7.0866165 7.086609 -7.0866165l0 0c1.8795166 0 3.6820068 0.7466202 5.011017 2.0756226c1.3289795 1.3289948 2.0756226 3.1315002 2.0756226 5.010994l0 0c0 3.913826 -3.1727905 7.0866165 -7.0866394 7.0866165l0 0c-3.9138184 0 -7.086609 -3.1727905 -7.086609 -7.0866165z" fill-rule="nonzero"></path><path fill="#FFFFFF" fill-opacity="0.0" d="m67.6273 105.144356l436.56693 0l0 105.00788l-436.56693 0z" fill-rule="nonzero"></path><path fill="#FFFFFF" d="m93.1898 196.13248q-9.546875 -10.1875 -9.546875 -24.390625q0 -14.203125 9.546875 -24.375q9.546875 -10.1875 23.265625 -10.1875q13.734383 0 23.281258 10.328125q9.5625 10.3125 9.5625 24.328125q0 14.015625 -9.703125 24.203125q-4.3125 4.796875 -10.359375 7.53125q-6.0468826 2.734375 -12.578133 2.734375q-13.921875 0 -23.46875 -10.171875zm1.390625 -24.375q0 9.6875 6.421875 16.65625q6.4375 6.953125 15.5 6.953125q9.078125 0 15.468758 -7.0625q6.390625 -7.0625 6.390625 -16.5625q0 -9.5 -6.34375 -16.546875q-6.3281326 -7.0625 -15.500008 -7.0625q-9.171875 0 -15.5625 6.96875q-6.375 6.953125 -6.375 16.65625zm73.63122 29.265625l0 -56.640625q0 -2.203125 1.53125 -3.734375q1.546875 -1.546875 3.75 -1.546875l11.328125 0q13.921875 0 23.703125 9.84375q9.796875 9.84375 9.796875 23.765625q0 13.90625 -9.796875 23.75q-9.78125 9.84375 -23.703125 9.84375l-11.328125 0q-2.203125 0 -3.75 -1.53125q-1.53125 -1.546875 -1.53125 -3.75zm10.65625 -51.265625l0 45.890625l5.953125 0q9.5 -0.09375 16.171875 -6.765625q6.671875 -6.671875 6.671875 -16.171875q0 -9.515625 -6.671875 -16.234375q-6.671875 -6.71875 -16.171875 -6.71875l-5.953125 0zm97.33646 53.1875l-4.703125 -12.484375l-23.32811 0l-4.703125 12.484375q-1.34375 3.359375 -4.65625 3.359375q-3.3125 0 -4.75 -2.34375q-1.4375 -2.359375 -0.578125 -4.859375l21.21875 -56.546875q0.671875 -1.53125 2.0624847 -2.484375q1.390625 -0.96875 3.03125 -0.875q3.640625 -0.1875 5.078125 3.359375l21.21875 56.546875q0.875 2.5 -0.578125 4.859375q-1.4375 2.34375 -4.75 2.34375q-3.3125 0 -4.5625 -3.359375zm-24.187485 -23.046875l15.54686 0l-7.765625 -20.640625l-7.7812347 20.640625zm85.43782 -37.90625q1.34375 -1.828125 3.5 -2.15625q2.171875 -0.34375 3.890625 0.953125q1.734375 1.296875 2.0625 3.453125q0.34375 2.15625 -0.90625 3.890625l-19.671875 26.96875l0 25.921875q0 2.203125 -1.546875 3.75q-1.5312195 1.53125 -3.7030945 1.53125q-2.15625 0 -3.734375 -1.53125q-1.578125 -1.546875 -1.578125 -3.75l0 -25.921875l-19.484375 -26.96875q-1.359375 -1.734375 -1.078125 -3.84375q0.296875 -2.109375 2.125 -3.453125q1.828125 -1.34375 3.9375 -1.0q2.109375 0.328125 3.359375 2.15625l16.421875 22.453125l16.40622 -22.453125z" fill-rule="nonzero"></path></g></svg>

