<?xml version="1.0" standalone="yes"?>

<svg width="960" height="720" xmlns="http://www.w3.org/2000/svg">
 <clipPath id="p.0">
  <path id="svg_1" clip-rule="nonzero" d="m0,0l960,0l0,720l-960,0l0,-720z"/>
 </clipPath>
 <g>
  <title>Layer 1</title>
  <g id="svg_2" clip-path="url(#p.0)">
   <path id="svg_3" fill-rule="nonzero" d="m5.999996,104.749954l2060.000004,0l0,1545.000168l-2060.000004,0l0,-1545.000168z" fill-opacity="0" fill="#FFFFFF"/>
   <path id="svg_4" fill-rule="nonzero" d="m5.999996,104.749954l1016.077702,0l0,211.880051l-1016.077702,0l0,-211.880051z" fill-opacity="0" fill="#FFFFFF"/>
   <path id="svg_5" fill-rule="nonzero" d="m58.069977,321.82251q-4.727524,0 -8.046875,-3.285858q-3.285809,-3.319366 -3.285809,-8.046875l0,-121.541351q0,-4.727539 3.285809,-8.013321q3.319351,-3.319382 8.046875,-3.319382l67.359093,0q4.526344,0 7.912712,3.319382q3.419937,3.285782 3.419937,8.013321q0,4.7276 -3.419937,8.147491q-3.386368,3.386383 -7.912712,3.386383l-55.825241,0l0,37.719696l48.013046,0q4.526367,0 7.912727,3.386414q3.386368,3.386383 3.386368,8.046875q0,4.626953 -3.285767,8.046875q-3.285767,3.386383 -8.013329,3.386383l-48.013046,0l0,37.88736l55.825241,0q4.526344,0 7.912712,3.419983q3.419937,3.386292 3.419937,8.013275q0,4.626984 -3.419937,8.046875q-3.386368,3.386475 -7.912712,3.386475l-66.755543,0l-0.402359,-0.201263l-0.201191,0.201263zm195.283951,-43.889069q0,-15.657898 -36.244476,-22.430603l-0.435822,0q-16.060257,-3.118164 -27.795349,-8.650482q-11.73497,-5.565704 -17.200165,-14.316711q-5.465134,-8.784485 -5.465134,-18.03833q0,-17.937866 15.758453,-29.471741q15.758484,-11.533905 36.378571,-11.533905q9.052734,0 18.507858,3.118225q9.488602,3.084641 14.115509,5.766937q4.660461,2.648743 12.2715,7.610992q3.486938,2.48111 4.425781,6.806244q0.938812,4.325317 -1.441742,7.946381q-2.380554,3.587616 -6.705719,4.526337q-4.325211,0.905273 -8.013306,-1.575897q-9.689789,-6.571503 -17.233734,-9.857391q-7.510437,-3.319305 -15.926147,-3.319305q-13.612656,0 -22.263,6.403931q-8.650391,6.370483 -8.650391,13.579193q0,3.486938 1.642838,5.968018q5.766953,9.488647 31.114655,14.216156l0.402313,0q17.300751,3.520508 28.432343,8.650452q25.548813,12.573242 25.548813,34.601501q0,19.178406 -16.898499,31.44986q-16.898392,12.237946 -38.926697,12.237946q-26.990616,-0.201111 -52.740555,-20.620117q-3.285843,-2.648773 -3.822281,-7.17514q-0.50296,-4.559875 2.179352,-7.845703q2.682343,-3.285736 7.20871,-3.788666q4.526337,-0.536438 7.812119,2.346985q19.781845,16.060242 39.362656,15.858978q15.45668,0 25.012405,-7.108032q9.589142,-7.108002 9.589142,-15.35611zm85.063736,-66.118469q-15.020813,15.456726 -15.020813,36.277954q0,20.787781 15.322571,35.540314q15.356171,14.719116 35.540405,14.719116q20.217804,0 34.433899,-11.332611q3.486938,-2.682312 8.415588,-2.045319q4.962341,0.603577 8.047028,4.291687q2.883362,3.922791 2.246368,8.784485q-0.603516,4.828125 -4.291656,7.711578q-20.620209,16.060333 -47.610718,16.060333q-30.879852,0 -53.142914,-21.726593q-22.229462,-21.726624 -22.430634,-52.438843q0.201172,-30.477509 22.430634,-52.204071q22.263062,-21.760147 53.142914,-21.961334q26.990509,0 47.610718,16.093781q3.688141,3.084625 4.291656,7.812164q0.636993,4.727631 -2.347107,8.650391q-2.983948,3.922913 -7.946289,4.559906q-4.92865,0.603516 -8.415588,-2.279846q-13.813782,-11.332764 -34.098724,-11.332764q-20.284821,0 -36.177338,14.819672zm210.325867,102.798798l-10.092041,-26.789307l-50.05835,0l-10.092041,26.789307q-2.883575,7.20874 -9.991608,7.20874q-7.107941,0 -10.19278,-5.029297q-3.084656,-5.062866 -1.240448,-10.42749l45.531921,-121.340149q1.441742,-3.285797 4.425629,-5.331039q2.984192,-2.078812 6.504639,-1.877655q7.812317,-0.402283 10.896667,7.208694l45.532043,121.340149q1.877686,5.364624 -1.24054,10.42749q-3.084534,5.029297 -10.19281,5.029297q-7.107971,0 -9.790283,-7.20874zm-51.902344,-49.454773l33.361084,0l-16.663818,-44.29129l-16.697266,44.29129zm149.572144,-87.543274q18.306519,0 31.282166,12.975586q13.009094,12.975616 13.009094,31.21521q0,18.239532 -13.009094,31.114594q-12.975647,12.874939 -31.282166,12.874939l-25.347717,0l0,44.693726q0,4.727509 -3.4198,8.046875q-3.386536,3.285858 -8.114197,3.285858q-4.727356,0 -8.046875,-3.285858q-3.285767,-3.319366 -3.285767,-8.046875l0,-121.541351q0,-4.727539 3.285767,-8.013321q3.319519,-3.319382 8.046875,-3.319382l36.881714,0zm-25.347717,22.866577l0,42.447266l25.347717,0q8.85144,0 15.020752,-6.169281q6.20282,-6.202759 6.403931,-14.85318q-0.201111,-9.052795 -6.403931,-15.222046q-6.169312,-6.202759 -15.020752,-6.202759l-25.347717,0zm108.564026,121.34021q-4.7276,0 -8.046875,-3.285858q-3.285767,-3.319366 -3.285767,-8.046875l0,-121.541351q0,-4.727539 3.285767,-8.013321q3.319275,-3.319382 8.046875,-3.319382l67.35907,0q4.526367,0 7.912781,3.319382q3.419922,3.285782 3.419922,8.013321q0,4.7276 -3.419922,8.147491q-3.386414,3.386383 -7.912781,3.386383l-55.825195,0l0,37.719696l48.013123,0q4.526123,0 7.912781,3.386414q3.386292,3.386383 3.386292,8.046875q0,4.626953 -3.28595,8.046875q-3.285706,3.386383 -8.013123,3.386383l-48.013123,0l0,37.88736l55.825195,0q4.526367,0 7.912781,3.419983q3.419922,3.386292 3.419922,8.013275q0,4.626984 -3.419922,8.046875q-3.386414,3.386475 -7.912781,3.386475l-66.755493,0l-0.402283,-0.201263l-0.201294,0.201263zm195.283936,-43.889069q0,-15.657898 -36.244385,-22.430603l-0.435974,0q-16.06012,-3.118164 -27.795166,-8.650482q-11.735046,-5.565704 -17.200256,-14.316711q-5.46521,-8.784485 -5.46521,-18.03833q0,-17.937866 15.758484,-29.471741q15.758423,-11.533905 36.378479,-11.533905q9.052795,0 18.508057,3.118225q9.488464,3.084641 14.115479,5.766937q4.660461,2.648743 12.271484,7.610992q3.486938,2.48111 4.425842,6.806244q0.938721,4.325317 -1.441833,7.946381q-2.380493,3.587616 -6.705688,4.526337q-4.325195,0.905273 -8.013367,-1.575897q-9.689819,-6.571503 -17.233765,-9.857391q-7.510315,-3.319305 -15.926208,-3.319305q-13.612488,0 -22.262817,6.403931q-8.650574,6.370483 -8.650574,13.579193q0,3.486938 1.643127,5.968018q5.766785,9.488647 31.114441,14.216156l0.402405,0q17.300781,3.520508 28.43219,8.650452q25.549011,12.573242 25.549011,34.601501q0,19.178406 -16.89856,31.44986q-16.898438,12.237946 -38.926697,12.237946q-26.990601,-0.201111 -52.740723,-20.620117q-3.285706,-2.648773 -3.822144,-7.17514q-0.502991,-4.559875 2.179321,-7.845703q2.68219,-3.285736 7.208557,-3.788666q4.526428,-0.536438 7.812195,2.346985q19.781982,16.060242 39.362793,15.858978q15.456604,0 25.012268,-7.108032q9.589233,-7.108002 9.589233,-15.35611z" fill="#FFFFFF"/>
   <path id="svg_6" fill-rule="nonzero" d="m15.129665,264.684875l936.800755,0l0,225.330139l-936.800755,0l0,-225.330139z" fill-opacity="0" fill="#FFFFFF"/>
   <path id="svg_7" fill-rule="nonzero" d="m191.289169,359.816528q4.392197,4.392151 4.392197,10.729126q0,6.303375 -4.559845,10.829742q-4.526398,4.526306 -10.561554,4.526306l-43.654297,0l0,146.654327q0,6.336914 -4.425735,10.729126q-4.392288,4.392212 -10.695679,4.392212q-6.30336,0 -10.729134,-4.392212q-4.392265,-4.392212 -4.392265,-10.729126l0,-146.654327l-43.386078,0q-6.303387,0 -10.695675,-4.526306q-4.392216,-4.526367 -4.392216,-10.829742q0,-6.336975 4.392216,-10.729126q4.392288,-4.392303 10.695675,-4.392303l117.283188,0q6.33696,0 10.729202,4.392303z" fill="#FFFFFF"/>
   <path id="svg_8" fill-rule="nonzero" d="m151.116913,356.318939l778.649323,0l0,30.412903l-778.649323,0l0,-30.412903z" fill="#FFFFFF"/>
   <path id="svg_9" fill-rule="nonzero" d="m912.938293,371.526031l0,0c0,-8.398346 6.808411,-15.206726 15.206848,-15.206726l0,0c4.033142,0 7.900818,1.602142 10.752808,4.453979c2.851746,2.851837 4.453918,6.719666 4.453918,10.752747l0,0c0,8.398438 -6.80835,15.206848 -15.206726,15.206848l0,0c-8.398438,0 -15.206848,-6.808411 -15.206848,-15.206848z" fill="#FFFFFF"/>
   <path id="svg_10" fill-rule="nonzero" d="m151.116913,330.37149l936.799469,0l0,225.32962l-936.799469,0l0,-225.32962z" fill-opacity="0" fill="#FFFFFF"/>
   <path id="svg_11" fill-rule="nonzero" d="m205.969803,525.617615q-20.486053,-21.860718 -20.486053,-52.338196q0,-30.477661 20.486053,-52.304718q20.485992,-21.860657 49.924118,-21.860657q29.471832,0 49.957672,22.162231q20.519623,22.12912 20.519623,52.204254q0,30.075256 -20.82132,51.935852q-9.253998,10.293274 -22.229523,16.160828q-12.975586,5.867493 -26.99054,5.867493q-29.874039,0 -50.360031,-21.827087zm2.983994,-52.304688q0,20.787659 13.780319,35.741455q13.813736,14.920288 33.260361,14.920288q19.480225,0 33.19342,-15.154968q13.713257,-15.154907 13.713257,-35.540283q0,-20.385559 -13.61261,-35.506836q-13.579193,-15.155029 -33.260529,-15.155029q-19.68132,0 -33.394531,14.953857q-13.679688,14.920227 -13.679688,35.741516zm158.000305,62.799011l0,-121.541199q0,-4.727448 3.285797,-8.013367q3.319427,-3.319336 8.046875,-3.319336l24.308258,0q29.874084,0 50.862976,21.122986q21.022491,21.122986 21.022491,50.997131q0,29.840454 -21.022491,50.963379q-20.988892,21.123169 -50.862976,21.123169l-24.308258,0q-4.727448,0 -8.046875,-3.285889q-3.285797,-3.319214 -3.285797,-8.046875zm22.866547,-110.007446l0,98.473694l12.774384,0q20.385468,-0.201233 34.702301,-14.517944q14.316681,-14.316711 14.316681,-34.702087q0,-20.418945 -14.316681,-34.836182q-14.316833,-14.41748 -34.702301,-14.41748l-12.774384,0zm208.867889,114.131531l-10.092163,-26.789307l-50.058167,0l-10.092102,26.789307q-2.883606,7.208679 -9.991577,7.208679q-7.108276,0 -10.192749,-5.029297q-3.084625,-5.062805 -1.240417,-10.427368l45.531677,-121.34024q1.441895,-3.285706 4.42572,-5.330872q2.984131,-2.078888 6.504639,-1.877808q7.812134,-0.402252 10.89679,7.208679l45.531982,121.34024q1.877502,5.364563 -1.240662,10.427368q-3.084595,5.029297 -10.192566,5.029297q-7.108093,0 -9.790405,-7.208679zm-51.902405,-49.454712l33.360962,0l-16.663696,-44.291382l-16.697266,44.291382zm183.335388,-81.340485q2.883423,-3.922882 7.510376,-4.626892q4.660461,-0.737671 8.348572,2.045166q3.721741,2.782898 4.425903,7.409882q0.737549,4.627045 -1.944702,8.348572l-42.212585,57.870483l0,55.623901q0,4.727661 -3.319336,8.046875q-3.285706,3.285889 -7.946167,3.285889q-4.626953,0 -8.013367,-3.285889q-3.386414,-3.319214 -3.386414,-8.046875l0,-55.623901l-41.810059,-57.870483q-2.917175,-3.721527 -2.313599,-8.247894q0.636963,-4.526367 4.559814,-7.410034q3.922913,-2.883362 8.44928,-2.145691q4.526367,0.70401 7.208618,4.626892l35.238586,48.180695l35.205078,-48.180695z" fill="#FFFFFF"/>
  </g>
 </g>
</svg>