<?xml version="1.0" encoding="utf-8"?>
<!-- Generator: Adobe Illustrator 16.0.3, SVG Export Plug-In . SVG Version: 6.00 Build 0)  -->
<!DOCTYPE svg PUBLIC "-//W3C//DTD SVG 1.1//EN" "http://www.w3.org/Graphics/SVG/1.1/DTD/svg11.dtd">
<svg version="1.1" id="Layer_1" xmlns="http://www.w3.org/2000/svg" xmlns:xlink="http://www.w3.org/1999/xlink" x="0px" y="0px"
	 width="487.063px" height="133px" viewBox="-0.313 0 487.063 133" enable-background="new -0.313 0 487.063 133"
	 xml:space="preserve">
<text transform="matrix(1 0 0 1 144 79.2363)" fill="#DCE8F3" font-family="'MyriadPro-Regular'" font-size="48">Escapes Today</text>
<g>
	<g enable-background="new    ">
		<path fill="#DCE8F3" d="M7.11,98.609c1.583-1.806,2.375-2.71,3.958-4.516c0.432-3.958,0.748-5.902,1.565-9.692
			c0.691,0.69,1.04,1.031,1.747,1.696c-0.393,1.776-0.568,2.67-0.879,4.483c-0.214,1.242-0.386,2.235-0.605,3.345
			c0.016,0.014,0.024,0.021,0.04,0.035c0.979-0.38,2.03-0.704,3.217-1.117c1.748-0.589,2.608-0.903,4.298-1.574
			c0.754,0.58,1.135,0.861,1.902,1.416c-3.652,1.371-5.553,1.963-9.482,2.922c-1.54,1.854-2.31,2.782-3.85,4.637
			C8.25,99.603,7.868,99.275,7.11,98.609z"/>
		<path fill="#DCE8F3" d="M26.822,106.081c-1.785,3.309-5.586,3.109-8.346,1.351c-3.09-1.969-4.179-5.315-2.272-7.9
			c2.02-2.737,5.333-2.736,8.141-0.957C27.256,100.42,28.298,103.346,26.822,106.081z M18.165,100.863
			c-1.274,1.826-0.853,4.19,1.147,5.461c1.954,1.241,4.281,0.649,5.421-1.335c0.858-1.494,1.042-3.867-1.173-5.272
			S19.271,99.278,18.165,100.863z"/>
		<path fill="#DCE8F3" d="M38.221,113.772c-0.354,0.988-0.64,1.868-0.831,2.647c-0.801-0.285-1.2-0.433-1.996-0.736
			c0.186-0.639,0.279-0.958,0.467-1.597c-0.02-0.008-0.031-0.011-0.051-0.019c-0.87,0.543-2.571,1.043-4.734,0.093
			c-1.912-0.84-3.771-2.74-2.175-5.936c1.062-2.127,1.592-3.188,2.654-5.315c0.773,0.386,1.162,0.573,1.943,0.938
			c-0.953,2.04-1.43,3.059-2.383,5.099c-0.818,1.75-0.689,3.271,1.296,4.123c1.464,0.628,2.831,0.229,3.506-0.382
			c0.222-0.2,0.417-0.49,0.538-0.804c0.901-2.327,1.351-3.487,2.251-5.814c0.799,0.309,1.201,0.458,2.006,0.746
			C39.716,109.601,39.217,110.989,38.221,113.772z"/>
		<path fill="#DCE8F3" d="M43.134,110.963c0.355-1.143,0.635-2.134,0.848-3.058c0.712,0.222,1.071,0.331,1.788,0.536
			c-0.193,0.774-0.29,1.16-0.481,1.936c0.038,0.011,0.057,0.017,0.095,0.027c0.898-1.163,2.354-1.652,3.734-1.316
			c0.234,0.057,0.393,0.114,0.57,0.199c-0.16,0.679-0.241,1.021-0.401,1.699c-0.206-0.091-0.416-0.164-0.703-0.234
			c-1.48-0.362-2.799,0.297-3.451,1.544c-0.118,0.226-0.246,0.498-0.332,0.802c-0.591,2.085-0.887,3.128-1.478,5.213
			c-0.909-0.257-1.361-0.39-2.264-0.67C41.889,114.97,42.304,113.634,43.134,110.963z"/>
		<path fill="#DCE8F3" d="M65.012,115.123c-2.621-0.115-3.931-0.222-6.539-0.533c-0.244,2.026-0.365,3.04-0.608,5.065
			c3.076,0.368,4.622,0.486,7.714,0.596c-0.022,0.612-0.033,0.92-0.055,1.532c-4.081-0.145-6.121-0.327-10.169-0.914
			c0.816-5.601,1.225-8.403,2.041-14.005c3.301,0.479,4.965,0.629,8.292,0.762c-0.024,0.612-0.038,0.922-0.063,1.534
			c-2.581-0.103-3.87-0.205-6.438-0.512c-0.214,1.776-0.321,2.664-0.534,4.44c2.563,0.307,3.85,0.412,6.425,0.525
			C65.052,114.219,65.039,114.519,65.012,115.123z"/>
		<path fill="#DCE8F3" d="M68.181,119.951c0.682,0.361,1.909,0.737,3.079,0.707c1.702-0.044,2.463-0.769,2.419-1.607
			c-0.047-0.882-0.73-1.326-2.403-1.774c-2.233-0.599-3.263-1.63-3.251-2.849c0.016-1.637,1.538-2.94,4.026-3.035
			c1.173-0.045,2.217,0.182,2.891,0.47c-0.172,0.552-0.261,0.825-0.44,1.376c-0.482-0.221-1.352-0.504-2.446-0.463
			c-1.265,0.047-1.962,0.682-1.951,1.438c0.012,0.84,0.736,1.22,2.346,1.658c2.146,0.585,3.319,1.362,3.436,2.869
			c0.138,1.778-1.54,3.206-4.644,3.284c-1.43,0.036-2.755-0.239-3.661-0.672C67.824,120.793,67.944,120.513,68.181,119.951z"/>
		<path fill="#DCE8F3" d="M88.254,119.438c-0.553,0.374-1.84,0.986-3.574,1.281c-3.897,0.663-6.665-1.2-6.974-4.292
			c-0.312-3.112,1.903-5.561,5.641-6.217c1.23-0.216,2.366-0.171,2.987-0.045c-0.07,0.599-0.108,0.899-0.185,1.498
			c-0.557-0.143-1.391-0.209-2.546-0.006c-2.672,0.47-3.914,2.328-3.649,4.432c0.294,2.333,2.38,3.548,4.9,3.107
			c1.311-0.229,2.122-0.671,2.725-1.031C87.847,118.677,87.981,118.93,88.254,119.438z"/>
		<path fill="#DCE8F3" d="M98.046,117.203c-0.232-0.464-0.347-0.695-0.577-1.159c-0.03,0.01-0.045,0.015-0.076,0.024
			c-0.443,0.983-1.584,2.096-3.392,2.596c-2.569,0.711-4.225-0.424-4.557-1.855c-0.556-2.394,1.716-4.204,6.228-5.635
			c-0.026-0.08-0.039-0.119-0.064-0.199c-0.258-0.8-0.973-2.125-3.307-1.455c-1.06,0.305-2.095,0.883-2.798,1.533
			c-0.31-0.425-0.462-0.637-0.767-1.064c0.817-0.76,2.076-1.451,3.489-1.862c3.429-0.998,4.938,0.643,5.612,2.564
			c0.503,1.435,0.755,2.152,1.259,3.587c0.292,0.832,0.629,1.625,1.013,2.225C99.286,116.792,98.873,116.933,98.046,117.203z
			 M96.113,112.377c-2.36,0.717-4.968,1.77-4.473,3.681c0.3,1.158,1.427,1.456,2.588,1.126c1.624-0.461,2.403-1.601,2.485-2.527
			c0.018-0.203,0.001-0.42-0.057-0.6C96.439,113.386,96.33,113.049,96.113,112.377z"/>
		<path fill="#DCE8F3" d="M101.001,108.857c-0.482-1.21-0.918-2.165-1.318-3.046c0.715-0.283,1.071-0.43,1.781-0.73
			c0.308,0.627,0.462,0.939,0.771,1.565c0.019-0.008,0.028-0.015,0.047-0.022c0.34-1.491,1.308-2.705,3.046-3.552
			c2.573-1.253,5.474-0.527,6.99,2.161c1.795,3.184,0.121,6.207-2.712,7.571c-1.59,0.766-3.244,0.845-4.36,0.227
			c-0.02,0.009-0.029,0.016-0.049,0.024c0.87,2.031,1.304,3.045,2.173,5.076c-0.915,0.392-1.375,0.582-2.297,0.949
			C103.444,114.992,102.63,112.947,101.001,108.857z M104.106,110.507c0.107,0.251,0.252,0.478,0.394,0.653
			c0.807,1.003,2.567,1.249,4.11,0.515c2.279-1.085,2.824-3.206,1.732-5.267c-0.954-1.8-2.889-2.721-4.978-1.725
			c-1.347,0.643-2.237,2.036-2.102,3.467c0.022,0.239,0.059,0.521,0.158,0.752C103.695,109.543,103.832,109.866,104.106,110.507z"/>
		<path fill="#DCE8F3" d="M116.184,103.488c1.375,2.089,3.698,1.853,5.695,0.451c1.431-1.003,2.137-1.832,2.688-2.621
			c0.453,0.32,0.681,0.478,1.137,0.794c-0.512,0.766-1.506,1.951-3.284,3.188c-3.44,2.395-6.651,1.837-8.217-0.799
			s-0.951-5.754,1.942-7.754c3.244-2.242,5.834-0.677,6.986,0.796c0.232,0.297,0.372,0.562,0.466,0.728
			C120.717,100.527,119.23,101.57,116.184,103.488z M121.061,98.544c-0.68-0.96-2.244-2.029-4.31-0.608
			c-1.858,1.278-1.777,3.237-1.25,4.418C117.769,100.925,118.884,100.163,121.061,98.544z"/>
		<path fill="#DCE8F3" d="M127.834,95.72c-0.161-0.15-0.24-0.226-0.401-0.376c-0.867-0.747-1.308-2.01-1.174-3.817
			c0.12-1.61,0.023-2.651-0.626-3.338c-0.736-0.778-1.815-0.741-2.977,0.282c-0.664,0.585-1.25,1.427-1.469,2.132
			c-0.522-0.253-0.782-0.38-1.299-0.639c0.299-0.901,1.129-2.048,2.085-2.912c2.076-1.875,4.015-1.761,5.144-0.633
			c1.01,1.01,1.045,2.439,0.943,4.183c-0.093,1.594,0.196,2.572,0.98,3.306c0.156,0.154,0.233,0.229,0.389,0.384
			C128.797,94.872,128.478,95.157,127.834,95.72z M129.297,98.344c-0.507-0.589-0.334-1.456,0.395-2.108
			c0.73-0.653,1.594-0.715,2.123-0.145c0.499,0.539,0.397,1.41-0.396,2.12C130.667,98.883,129.776,98.9,129.297,98.344z"/>
	</g>
</g>
<g id="Layer_1_1_">
	<g>
		
			<radialGradient id="SVGID_1_" cx="-357.8555" cy="-1254.0845" r="9.5078" gradientTransform="matrix(3.425 0 0 -1.5755 1298.3289 -1889.6875)" gradientUnits="userSpaceOnUse">
			<stop  offset="0" style="stop-color:#000000"/>
			<stop  offset="1" style="stop-color:#000000;stop-opacity:0"/>
		</radialGradient>
		<path fill="url(#SVGID_1_)" d="M105.24,86.122c0,8.274-14.58,14.979-32.564,14.979c-17.984,0-32.563-6.707-32.563-14.979l0,0
			c0-8.272,14.58-14.979,32.563-14.979C90.661,71.143,105.24,77.85,105.24,86.122L105.24,86.122z"/>
		
			<radialGradient id="SVGID_2_" cx="-157.0508" cy="-980.6504" r="23.2059" gradientTransform="matrix(2.0833 0 0 -2.0833 389.6641 -1992.9482)" gradientUnits="userSpaceOnUse">
			<stop  offset="0" style="stop-color:#D3E9FF"/>
			<stop  offset="0.1552" style="stop-color:#D3E9FF"/>
			<stop  offset="0.75" style="stop-color:#4074AE"/>
			<stop  offset="1" style="stop-color:#36486C"/>
		</radialGradient>
		<path fill="url(#SVGID_2_)" stroke="#39396C" stroke-width="0.5747" d="M103.93,62.565c0,17.263-13.996,31.258-31.256,31.258
			S41.419,79.827,41.419,62.565S55.413,31.31,72.674,31.31C89.938,31.31,103.93,45.304,103.93,62.565z"/>
		
			<radialGradient id="SVGID_3_" cx="-157.2578" cy="-1106.4009" r="25.2704" gradientTransform="matrix(2.0542 0 0 -1.7662 390.5558 -1915.1012)" gradientUnits="userSpaceOnUse">
			<stop  offset="0" style="stop-color:#FFFFFF"/>
			<stop  offset="1" style="stop-color:#FFFFFF;stop-opacity:0"/>
		</radialGradient>
		<path opacity="0.4216" fill="url(#SVGID_3_)" enable-background="new    " d="M90.099,49.324c0,8.273-7.801,14.98-17.423,14.98
			c-9.623,0-17.421-6.707-17.421-14.98c0-8.272,7.798-14.98,17.421-14.98C82.298,34.344,90.099,41.051,90.099,49.324z"/>
		<g transform="matrix(.98237,0,0,.98237,.12108,.23291)">
			<path fill-opacity="0.7135" d="M104.789,58.687L104.789,58.687l-0.881,0.995c-0.538-0.636-1.144-1.169-1.754-1.727l-1.347,0.199
				l-1.229-1.391v1.722l1.052,0.799l0.702,0.794l0.939-1.061c0.237,0.442,0.469,0.885,0.703,1.327v1.326l-1.058,1.193l-1.933,1.327
				l-1.464,1.459l-0.937-1.063l0.469-1.193l-0.934-1.062l-1.581-3.38l-1.35-1.526l-0.355,0.399l0.531,1.924l0.995,1.126
				c0.568,1.64,1.13,3.209,1.873,4.777c1.157,0,2.249-0.123,3.398-0.266v0.928l-1.407,3.448l-1.288,1.456l-1.054,2.261v3.711
				l0.351,1.458l-0.584,0.661l-1.29,0.798l-1.349,1.125l1.116,1.259l-1.524,1.328l0.291,0.863l-2.284,2.586h-1.524l-1.287,0.798
				h-0.823v-1.061l-0.35-2.123c-0.453-1.331-0.924-2.655-1.404-3.975c0-0.977,0.059-1.942,0.114-2.919l0.588-1.327l-0.823-1.593
				l0.062-2.188l-1.113-1.262l0.557-1.821l-0.906-1.029h-1.583l-0.527-0.596l-1.582,0.997l-0.645-0.733l-1.464,1.26l-2.989-3.381
				l-1.17-2.785l1.054-1.59l-0.583-0.663l1.286-3.052c1.057-1.316,2.164-2.579,3.281-3.846l1.993-0.531l2.225-0.264l1.524,0.399
				l2.168,2.186l0.761-0.86l1.053-0.133l1.993,0.662h1.524l1.056-0.928l0.469-0.662l-1.057-0.663l-1.758-0.132
				c-0.488-0.677-0.941-1.388-1.52-1.99l-0.588,0.264l-0.235,1.726l-1.056-1.193l-0.234-1.328l-1.173-0.926h-0.471l1.173,1.326
				l-0.468,1.192l-0.936,0.265l0.584-1.193l-1.056-0.528l-0.934-1.06l-1.759,0.396l-0.236,0.529l-1.054,0.665l-0.586,1.459
				l-1.464,0.729l-0.645-0.729h-0.701v-2.388l1.523-0.796h1.171l-0.236-0.927l-0.934-0.928l1.58-0.332l0.878-0.994l0.705-1.194
				h1.287l-0.352-0.926l0.823-0.531v1.062l1.756,0.398l1.756-1.458l0.118-0.664l1.521-1.06c-0.551,0.069-1.1,0.119-1.639,0.264
				v-1.194l0.585-1.326h-0.585l-1.287,1.194l-0.354,0.664l0.354,0.93l-0.588,1.591l-0.935-0.531l-0.819-0.927l-1.291,0.927
				l-0.467-2.121l2.224-1.458v-0.796l1.409-0.928l2.226-0.531l1.524,0.531l2.812,0.53l-0.702,0.795h-1.526l1.526,1.592l1.17-1.326
				l0.355-0.583c0,0,4.494,4.027,7.063,8.43C103.581,52.438,104.789,57.633,104.789,58.687L104.789,58.687z"/>
			<path fill-opacity="0.7135" d="M75.772,40.185l-0.117,0.795l0.823,0.531l1.403-0.928l-0.701-0.795l-0.94,0.53L75.772,40.185"/>
			<path fill-opacity="0.7135" d="M77.062,34.748l-3.048-1.193l-3.513,0.397l-4.336,1.194l-0.82,0.796l2.694,1.856v1.061
				l-1.055,1.061l1.407,2.787l0.933-0.533l1.175-1.855c1.811-0.56,3.434-1.194,5.153-1.989L77.062,34.748"/>
			<path fill-opacity="0.7135" d="M80.224,45.89l-0.469-1.195l-0.821,0.266l0.236,1.457L80.224,45.89"/>
			<path fill-opacity="0.7135" d="M80.693,45.621l-0.236,1.594l1.29-0.265l0.936-0.928l-0.82-0.795
				c-0.275-0.732-0.593-1.419-0.936-2.122h-0.702v0.795l0.467,0.531v1.19"/>
			<path fill-opacity="0.7135" d="M63.353,70.819l-0.938-1.856l-1.757-0.399l-0.938-2.521l-2.343,0.264l-1.991-1.457l-2.11,1.857V67
				c-0.639-0.184-1.423-0.211-1.992-0.562l-0.469-1.323v-1.459l-1.405,0.133l0.352-2.785h-0.821l-0.82,1.062l-0.821,0.396
				L46.13,61.8l-0.118-1.459l0.235-1.593l1.759-1.325h1.405l0.234-0.796l1.757,0.396l1.29,1.593l0.235-2.652l2.227-1.857l0.82-1.99
				l1.639-0.664l0.938-1.326l2.109-0.399l1.055-1.59H58.55l1.993-0.929h1.405l1.993-0.663l0.236-0.793l-0.703-0.664l-0.821-0.265
				l0.235-0.796l-0.584-1.193l-1.408,0.529l0.236-1.06l-1.64-0.93l-1.288,2.254l0.117,0.796l-1.289,0.532l-0.821,1.723l-0.351-1.591
				l-2.227-0.929l-0.351-1.192l2.929-1.725l1.29-1.194l0.118-1.459l-0.703-0.399l-0.937-0.133l-0.586,1.459
				c0,0-0.979,0.192-1.231,0.254c-3.218,2.965-9.719,9.365-11.229,21.448c0.06,0.28,1.094,1.904,1.094,1.904l2.46,1.458l2.461,0.664
				l1.055,1.326l1.64,1.193l0.937-0.132l0.703,0.316v0.215l-0.937,2.52l-0.703,1.058l0.234,0.535l-0.586,1.988l2.109,3.847
				l2.109,1.859l0.938,1.325l-0.118,2.785l0.704,1.592l-0.704,3.05c0,0-0.054-0.019,0.035,0.285
				c0.089,0.306,3.754,2.343,3.987,2.167l0.43-0.33l-0.235-0.661l0.937-0.929l0.351-0.925l1.523-0.535l1.173-2.919l-0.352-0.792
				l0.819-1.191l1.759-0.403l0.937-2.12l-0.235-2.653l1.406-1.989l0.235-1.991C67.17,72.786,65.261,71.803,63.353,70.819"/>
			<path fill-opacity="0.7135" d="M60.775,40.715l1.171,0.795h0.938v-0.928l-1.172-0.53L60.775,40.715"/>
			<path fill-opacity="0.7135" d="M57.729,39.656l-0.586,1.458h1.172l0.586-1.326l1.523-1.062l1.171,0.398l2.344,1.591l1.175-1.061
				l-1.291-0.531l-0.586-1.193l-2.225-0.264l-0.119-0.664l-1.055,0.266l-0.467,0.929l-0.586-1.195l-0.235,0.531l0.117,1.326
				L57.729,39.656"/>
			<path fill-opacity="0.7135" d="M61.945,36.339l0.588-0.53l1.172-0.265c0.803-0.39,1.609-0.653,2.46-0.928l-0.467-0.795
				l-1.513,0.218l-0.716,0.712l-1.178,0.171l-1.047,0.492l-0.508,0.246l-0.311,0.418L61.945,36.339"/>
			<path fill-opacity="0.7135" d="M63.937,48.938l0.705-1.061l-1.056-0.795L63.937,48.938"/>
		</g>
		<g transform="matrix(.98237,0,0,.98237,-8.095179e-2,3.088300e-2)">
			<g>
				<g>
					
						<radialGradient id="SVGID_4_" cx="-140.1621" cy="-1080.4264" r="32.643" fx="-139.9211" fy="-1080.1847" gradientTransform="matrix(1.9061 0 0 -1.9061 332.2469 -2007.0164)" gradientUnits="userSpaceOnUse">
						<stop  offset="0" style="stop-color:#FFFFFF"/>
						<stop  offset="0.3793" style="stop-color:#FEFEFE"/>
						<stop  offset="1" style="stop-color:#1D1D1D"/>
					</radialGradient>
					<path fill="url(#SVGID_4_)" d="M104.992,58.56L104.992,58.56l-0.88,0.995c-0.538-0.635-1.141-1.168-1.754-1.726l-1.348,0.198
						l-1.23-1.39v1.722l1.058,0.798l0.7,0.795l0.938-1.059c0.237,0.441,0.467,0.885,0.704,1.326v1.326l-1.058,1.193l-1.933,1.327
						l-1.462,1.461l-0.94-1.065l0.471-1.193l-0.937-1.061l-1.582-3.381l-1.348-1.524l-0.353,0.398l0.531,1.923l0.993,1.127
						c0.57,1.64,1.13,3.208,1.878,4.778c1.157,0,2.246-0.124,3.398-0.267v0.928l-1.408,3.448l-1.289,1.458l-1.056,2.256v3.713
						l0.355,1.459l-0.588,0.66l-1.291,0.796l-1.346,1.125l1.113,1.259l-1.522,1.331l0.293,0.859l-2.287,2.591h-1.522L89,87.941
						h-0.821v-1.061l-0.349-2.124c-0.454-1.331-0.926-2.65-1.406-3.976c0-0.974,0.06-1.94,0.116-2.917l0.588-1.327l-0.822-1.59
						l0.06-2.191l-1.112-1.263l0.558-1.823l-0.907-1.029h-1.583l-0.53-0.597l-1.58,0.995l-0.644-0.732l-1.466,1.261l-2.988-3.381
						l-1.173-2.786l1.055-1.59l-0.585-0.662l1.287-3.054c1.058-1.314,2.164-2.579,3.28-3.845l1.992-0.531l2.226-0.263l1.526,0.399
						l2.165,2.186l0.764-0.861l1.053-0.132l1.993,0.662h1.524l1.054-0.928l0.469-0.663l-1.055-0.662l-1.758-0.134
						c-0.488-0.676-0.941-1.388-1.523-1.989l-0.585,0.264l-0.236,1.725l-1.055-1.192L88.3,50.8l-1.171-0.926h-0.471l1.173,1.326
						l-0.469,1.193l-0.937,0.265l0.586-1.193l-1.059-0.528l-0.934-1.061l-1.759,0.397l-0.235,0.529l-1.055,0.664l-0.587,1.459
						l-1.462,0.729l-0.646-0.729h-0.701v-2.388l1.521-0.796h1.175l-0.239-0.926l-0.936-0.93l1.582-0.33l0.88-0.994l0.702-1.194h1.29
						l-0.355-0.928l0.823-0.53v1.061l1.756,0.397l1.756-1.458l0.119-0.665l1.522-1.061c-0.551,0.069-1.102,0.12-1.641,0.265v-1.195
						l0.586-1.326h-0.586l-1.285,1.194l-0.352,0.664l0.352,0.93l-0.586,1.589l-0.935-0.53l-0.819-0.927l-1.29,0.927l-0.468-2.12
						l2.223-1.458v-0.796l1.406-0.928l2.226-0.532l1.524,0.532l2.813,0.531l-0.703,0.795h-1.523l1.523,1.591l1.173-1.326
						l0.356-0.583c0,0,4.49,4.028,7.061,8.431C103.79,52.312,104.992,57.506,104.992,58.56L104.992,58.56z"/>
				</g>
			</g>
			<g>
				<g>
					
						<radialGradient id="SVGID_5_" cx="-140.1621" cy="-1080.416" r="32.6212" fx="-139.9212" fy="-1080.1744" gradientTransform="matrix(1.9061 0 0 -1.9061 332.2469 -2007.0164)" gradientUnits="userSpaceOnUse">
						<stop  offset="0" style="stop-color:#FFFFFF"/>
						<stop  offset="0.3793" style="stop-color:#FEFEFE"/>
						<stop  offset="1" style="stop-color:#1D1D1D"/>
					</radialGradient>
					<path fill="url(#SVGID_5_)" d="M75.98,40.06l-0.119,0.795l0.823,0.531l1.404-0.928l-0.703-0.796l-0.939,0.531L75.98,40.06"/>
				</g>
			</g>
			<g>
				<g>
					
						<radialGradient id="SVGID_6_" cx="-140.1606" cy="-1080.4309" r="32.6502" fx="-139.9195" fy="-1080.1893" gradientTransform="matrix(1.9061 0 0 -1.9061 332.2469 -2007.0164)" gradientUnits="userSpaceOnUse">
						<stop  offset="0" style="stop-color:#FFFFFF"/>
						<stop  offset="0.3793" style="stop-color:#FEFEFE"/>
						<stop  offset="1" style="stop-color:#1D1D1D"/>
					</radialGradient>
					<path fill="url(#SVGID_6_)" d="M77.269,34.622l-3.047-1.193l-3.513,0.397l-4.337,1.193l-0.821,0.796l2.694,1.856v1.062
						l-1.055,1.059l1.406,2.786l0.935-0.532l1.176-1.856c1.811-0.559,3.432-1.193,5.152-1.989L77.269,34.622"/>
				</g>
			</g>
			<g>
				<g>
					
						<radialGradient id="SVGID_7_" cx="-140.1665" cy="-1080.4264" r="32.6642" fx="-139.9253" fy="-1080.1844" gradientTransform="matrix(1.9061 0 0 -1.9061 332.2469 -2007.0164)" gradientUnits="userSpaceOnUse">
						<stop  offset="0" style="stop-color:#FFFFFF"/>
						<stop  offset="0.3793" style="stop-color:#FEFEFE"/>
						<stop  offset="1" style="stop-color:#1D1D1D"/>
					</radialGradient>
					<path fill="url(#SVGID_7_)" d="M80.433,45.764l-0.471-1.194l-0.821,0.265l0.235,1.458L80.433,45.764"/>
				</g>
			</g>
			<g>
				<g>
					
						<radialGradient id="SVGID_8_" cx="-140.1606" cy="-1080.4264" r="32.6425" fx="-139.9194" fy="-1080.1847" gradientTransform="matrix(1.9061 0 0 -1.9061 332.2469 -2007.0164)" gradientUnits="userSpaceOnUse">
						<stop  offset="0" style="stop-color:#FFFFFF"/>
						<stop  offset="0.3793" style="stop-color:#FEFEFE"/>
						<stop  offset="1" style="stop-color:#1D1D1D"/>
					</radialGradient>
					<path fill="url(#SVGID_8_)" d="M80.897,45.495l-0.235,1.594l1.29-0.265l0.936-0.927L82.07,45.1
						c-0.276-0.732-0.592-1.418-0.937-2.121H80.43v0.795l0.467,0.531V45.495"/>
				</g>
			</g>
			<g>
				<g>
					
						<radialGradient id="SVGID_9_" cx="-140.1631" cy="-1080.4274" r="32.6494" fx="-139.922" fy="-1080.1855" gradientTransform="matrix(1.9061 0 0 -1.9061 332.2469 -2007.0164)" gradientUnits="userSpaceOnUse">
						<stop  offset="0" style="stop-color:#FFFFFF"/>
						<stop  offset="0.3793" style="stop-color:#FEFEFE"/>
						<stop  offset="1" style="stop-color:#1D1D1D"/>
					</radialGradient>
					<path fill="url(#SVGID_9_)" d="M63.558,70.695l-0.937-1.859l-1.757-0.4l-0.937-2.518l-2.344,0.265l-1.991-1.458l-2.11,1.858
						v0.292c-0.638-0.184-1.423-0.211-1.991-0.561l-0.469-1.325v-1.46l-1.405,0.134l0.352-2.784h-0.821l-0.819,1.061l-0.821,0.396
						l-1.172-0.661l-0.117-1.459l0.235-1.593l1.759-1.325h1.405l0.234-0.797l1.757,0.397l1.29,1.594l0.235-2.654l2.227-1.855
						l0.82-1.991l1.64-0.663l0.937-1.326l2.109-0.401l1.055-1.59h-3.163l1.992-0.928h1.405l1.992-0.664l0.237-0.794l-0.705-0.664
						l-0.82-0.266l0.235-0.795l-0.586-1.192l-1.406,0.528l0.235-1.06l-1.64-0.928L58.408,43.5l0.117,0.796l-1.289,0.533
						l-0.821,1.722l-0.351-1.591l-2.228-0.928l-0.352-1.193l2.931-1.725l1.289-1.194l0.119-1.458l-0.702-0.398l-0.938-0.134
						l-0.586,1.46c0,0-0.98,0.191-1.231,0.254c-3.217,2.965-9.719,9.364-11.229,21.448c0.061,0.279,1.094,1.905,1.094,1.905
						l2.46,1.457l2.46,0.665l1.055,1.325l1.639,1.195l0.938-0.131l0.702,0.316v0.213l-0.936,2.519l-0.704,1.059l0.235,0.533
						l-0.586,1.989l2.109,3.845l2.109,1.859l0.939,1.326l-0.118,2.787l0.704,1.588l-0.704,3.052c0,0-0.055-0.02,0.034,0.287
						c0.089,0.303,3.755,2.34,3.987,2.166l0.43-0.329l-0.234-0.663l0.936-0.927l0.352-0.925l1.523-0.535l1.172-2.919l-0.351-0.79
						l0.818-1.194l1.758-0.404l0.937-2.118l-0.235-2.651l1.405-1.992l0.235-1.989C67.375,72.66,65.467,71.677,63.558,70.695"/>
				</g>
			</g>
			<g>
				<g>
					
						<radialGradient id="SVGID_10_" cx="-140.1621" cy="-1080.4155" r="32.5883" fx="-139.9213" fy="-1080.1742" gradientTransform="matrix(1.9061 0 0 -1.9061 332.2469 -2007.0164)" gradientUnits="userSpaceOnUse">
						<stop  offset="0" style="stop-color:#FFFFFF"/>
						<stop  offset="0.3793" style="stop-color:#FEFEFE"/>
						<stop  offset="1" style="stop-color:#1D1D1D"/>
					</radialGradient>
					<path fill="url(#SVGID_10_)" d="M60.981,40.589l1.172,0.795h0.937v-0.928l-1.172-0.53L60.981,40.589"/>
				</g>
			</g>
			<g>
				<g>
					
						<radialGradient id="SVGID_11_" cx="-140.1621" cy="-1080.4259" r="32.6377" fx="-139.921" fy="-1080.1841" gradientTransform="matrix(1.9061 0 0 -1.9061 332.2469 -2007.0164)" gradientUnits="userSpaceOnUse">
						<stop  offset="0" style="stop-color:#FFFFFF"/>
						<stop  offset="0.3793" style="stop-color:#FEFEFE"/>
						<stop  offset="1" style="stop-color:#1D1D1D"/>
					</radialGradient>
					<path fill="url(#SVGID_11_)" d="M57.934,39.529l-0.586,1.458h1.171l0.587-1.327l1.523-1.061l1.172,0.398l2.344,1.591
						l1.173-1.06l-1.29-0.532l-0.586-1.193l-2.226-0.265l-0.118-0.664l-1.055,0.265l-0.468,0.929l-0.586-1.195l-0.234,0.531
						l0.118,1.326L57.934,39.529"/>
				</g>
			</g>
			<g>
				<g>
					
						<radialGradient id="SVGID_12_" cx="-140.1611" cy="-1080.4209" r="32.6255" fx="-139.9201" fy="-1080.1793" gradientTransform="matrix(1.9061 0 0 -1.9061 332.2469 -2007.0164)" gradientUnits="userSpaceOnUse">
						<stop  offset="0" style="stop-color:#FFFFFF"/>
						<stop  offset="0.3793" style="stop-color:#FEFEFE"/>
						<stop  offset="1" style="stop-color:#1D1D1D"/>
					</radialGradient>
					<path fill="url(#SVGID_12_)" d="M62.153,36.213l0.586-0.53l1.173-0.264c0.802-0.391,1.608-0.653,2.46-0.928l-0.467-0.796
						l-1.512,0.218l-0.715,0.712l-1.179,0.172l-1.049,0.493l-0.508,0.246l-0.311,0.417L62.153,36.213"/>
				</g>
			</g>
			<g>
				<g>
					
						<radialGradient id="SVGID_13_" cx="-140.1616" cy="-1080.4259" r="32.6315" fx="-139.9206" fy="-1080.1843" gradientTransform="matrix(1.9061 0 0 -1.9061 332.2469 -2007.0164)" gradientUnits="userSpaceOnUse">
						<stop  offset="0" style="stop-color:#FFFFFF"/>
						<stop  offset="0.3793" style="stop-color:#FEFEFE"/>
						<stop  offset="1" style="stop-color:#1D1D1D"/>
					</radialGradient>
					<path fill="url(#SVGID_13_)" d="M64.144,48.814l0.703-1.061l-1.056-0.796L64.144,48.814"/>
				</g>
			</g>
		</g>
		
			<radialGradient id="SVGID_14_" cx="-159.0513" cy="-977.9453" r="33.4484" gradientTransform="matrix(2.0833 0 0 -2.0833 389.6641 -1992.9482)" gradientUnits="userSpaceOnUse">
			<stop  offset="0" style="stop-color:#FFFFFF"/>
			<stop  offset="1" style="stop-color:#FFFFFF;stop-opacity:0.1649"/>
		</radialGradient>
		<path fill="none" stroke="url(#SVGID_14_)" stroke-width="0.5747" d="M102.343,62.565c0,16.387-13.283,29.67-29.667,29.67
			c-16.385,0-29.668-13.283-29.668-29.67c0-16.386,13.283-29.667,29.668-29.667C89.06,32.897,102.343,46.18,102.343,62.565z"/>
	</g>
</g>
<g>
	<g>
		<path fill="#DCE8F3" d="M28.442,28.29c-6.541-3.276-10.051-4.73-17.461-7.18c1.114-0.835,1.683-1.241,2.836-2.028
			c3.572,1.435,5.308,2.204,8.668,3.829c2.079,0.996,4.042,2.073,5.49,2.954c0.021-0.013,0.032-0.018,0.053-0.031
			c-0.875-1.275-1.682-2.937-2.463-4.78c-1.22-2.883-1.753-4.355-2.662-7.345c1.244-0.634,1.872-0.939,3.145-1.526
			c3.15,1.92,4.666,2.923,7.565,4.999c1.69,1.217,3.291,2.48,4.509,3.685c0.023-0.009,0.034-0.014,0.057-0.023
			c-0.562-1.535-0.95-3.157-1.315-4.989c-0.54-2.985-0.73-4.498-0.946-7.546c1.316-0.434,1.98-0.639,3.316-1.027
			c-0.134,6.111,0.155,9.134,1.405,14.999c-1.017,0.382-1.521,0.582-2.518,1c-2.851-2.183-4.346-3.235-7.465-5.257
			c-1.917-1.236-3.373-2.181-4.708-3.234c-0.026,0.013-0.04,0.02-0.066,0.033c0.622,1.375,1.145,2.774,1.767,4.671
			c1.063,3.031,1.68,4.521,3.082,7.427C29.802,27.449,29.344,27.722,28.442,28.29z"/>
		<path fill="#DCE8F3" d="M41.782,5.775c1.352-0.35,2.032-0.513,3.399-0.817c0.967,2.431,1.45,3.646,2.417,6.077
			c0.028-0.006,0.041-0.009,0.069-0.015c0.289-0.611,0.909-1.224,1.763-1.721c0.825-0.48,1.893-0.901,3.099-1.097
			c2.378-0.386,6.369,0.022,6.984,3.498c0.425,2.397,0.638,3.596,1.062,5.994c-1.067,0.105-1.601,0.167-2.663,0.307
			c-0.542-2.299-0.813-3.448-1.354-5.748c-0.38-1.613-1.75-2.879-4.697-2.366c-2.024,0.353-3.255,1.579-3.466,2.593
			c-0.056,0.267-0.005,0.547,0.131,0.89c0.935,2.351,1.402,3.525,2.337,5.876c-1.039,0.231-1.557,0.356-2.584,0.622
			C45.679,14.229,44.381,11.412,41.782,5.775z"/>
		<path fill="#DCE8F3" d="M66.178,12.579c0.196,2.495,2.626,3.444,5.382,3.529c1.972,0.061,3.18-0.081,4.263-0.29
			c0.114,0.541,0.168,0.812,0.271,1.354c-0.995,0.211-2.638,0.416-4.978,0.354c-4.528-0.121-7.449-1.933-7.774-4.989
			c-0.325-3.056,2.62-5.737,7.873-5.617c5.885,0.134,6.936,3.334,6.619,5.188c-0.064,0.375-0.181,0.658-0.247,0.842
			C73.045,12.521,70.746,12.447,66.178,12.579z M74.995,11.414c0.17-1.169-0.486-3.106-4.089-3.179
			c-3.239-0.065-4.585,1.734-4.76,3.021C69.686,11.155,71.462,11.187,74.995,11.414z"/>
		<path fill="#DCE8F3" d="M81.858,11.171c0.287-1.177,0.5-2.194,0.614-3.139c1.128,0.152,1.689,0.236,2.811,0.42
			c-0.185,0.787-0.277,1.18-0.465,1.966c0.056,0.009,0.084,0.014,0.141,0.023c1.169-1.204,3.384-1.703,5.511-1.237
			c0.361,0.079,0.605,0.157,0.876,0.263c-0.272,0.667-0.408,0.999-0.681,1.666c-0.297-0.112-0.603-0.203-1.023-0.294
			c-2.169-0.47-4.059,0.233-4.858,1.51c-0.144,0.23-0.298,0.508-0.391,0.815c-0.639,2.113-0.96,3.169-1.6,5.282
			c-1.042-0.176-1.564-0.255-2.613-0.398C80.853,15.297,81.188,13.922,81.858,11.171z"/>
		<path fill="#DCE8F3" d="M93.252,15.849c-1.109,2.357,0.667,3.946,3.211,4.847c1.821,0.645,3.035,0.876,4.164,1.012
			c-0.172,0.534-0.26,0.801-0.442,1.332c-1.049-0.108-2.707-0.417-4.872-1.172c-4.189-1.46-5.964-3.976-4.685-6.888
			c1.28-2.912,5.403-4.534,10.271-2.861c5.455,1.875,4.807,5.163,3.548,6.776c-0.254,0.326-0.513,0.552-0.67,0.703
			C99.709,17.816,97.588,17.068,93.252,15.849z M102.127,17.396c0.765-1.027,1.145-3.017-2.199-4.155
			c-3.006-1.023-5.191,0.243-6.021,1.378C97.267,15.565,98.917,16.121,102.127,17.396z"/>
		<path fill="#DCE8F3" d="M117.109,14.627c-2.156,1.006-5.251,2.13-6.847,2.5c-0.755-0.301-1.134-0.447-1.896-0.73
			c1.574-0.728,4.011-2.149,5.498-3.226C115.173,13.728,115.823,14.02,117.109,14.627z"/>
		<path fill="#DCE8F3" d="M107.648,24.918c0.415,0.672,1.306,1.66,2.426,2.359c1.629,1.016,2.96,1.046,3.716,0.427
			c0.794-0.651,0.61-1.481-0.728-2.961c-1.791-1.98-2.249-3.422-1.292-4.406c1.286-1.324,4.36-1.372,7.468,0.655
			c1.465,0.955,2.443,2.061,2.893,2.863c-0.751,0.2-1.125,0.304-1.867,0.515c-0.296-0.563-0.981-1.515-2.295-2.369
			c-1.518-0.987-2.919-1.002-3.547-0.41c-0.698,0.657-0.152,1.439,1.135,2.957c1.716,2.024,1.944,3.495,0.519,4.563
			c-1.683,1.262-4.367,0.957-7.213-0.814c-1.312-0.816-2.337-1.736-2.9-2.557C106.631,25.407,106.968,25.242,107.648,24.918z"/>
	</g>
</g>
</svg>
