<?xml version="1.0" encoding="utf-8"?>
<!-- Generator: Adobe Illustrator 16.0.0, SVG Export Plug-In . SVG Version: 6.00 Build 0)  -->
<!DOCTYPE svg PUBLIC "-//W3C//DTD SVG 1.1//EN" "http://www.w3.org/Graphics/SVG/1.1/DTD/svg11.dtd">
<svg version="1.1" id="Layer_1" xmlns="http://www.w3.org/2000/svg" xmlns:xlink="http://www.w3.org/1999/xlink" x="0px" y="0px"
	 width="468.5px" height="133px" viewBox="0 0 468.5 133" enable-background="new 0 0 468.5 133" xml:space="preserve">
<text transform="matrix(1 0 0 1 125 60.0801)" fill="#1A3275" font-family="'MyriadPro-Regular'" font-size="48">Escapes Today</text>
<text transform="matrix(1 0 0 1 128 86.5166)" fill="#1A3275" font-family="'MyriadPro-Regular'" font-size="21">Where’s Your Escape?</text>
<g id="Layer_1_1_">
	<g>
		
			<radialGradient id="SVGID_1_" cx="-617.5908" cy="-913.2358" r="13.2424" gradientTransform="matrix(3.425 0 0 -1.5755 2175.1309 -1344.5649)" gradientUnits="userSpaceOnUse">
			<stop  offset="0" style="stop-color:#000000"/>
			<stop  offset="1" style="stop-color:#000000;stop-opacity:0"/>
		</radialGradient>
		<path fill="url(#SVGID_1_)" d="M105.24,94.238c0,11.525-20.306,20.863-45.355,20.863c-25.048,0-45.354-9.341-45.354-20.863l0,0
			c0-11.521,20.307-20.863,45.354-20.863C84.934,73.375,105.24,82.717,105.24,94.238L105.24,94.238z"/>
		
			<radialGradient id="SVGID_2_" cx="-421.1123" cy="-631.7432" r="32.3209" gradientTransform="matrix(2.0833 0 0 -2.0833 922.9888 -1272.1255)" gradientUnits="userSpaceOnUse">
			<stop  offset="0" style="stop-color:#D3E9FF"/>
			<stop  offset="0.1552" style="stop-color:#D3E9FF"/>
			<stop  offset="0.75" style="stop-color:#4074AE"/>
			<stop  offset="1" style="stop-color:#36486C"/>
		</radialGradient>
		<path fill="url(#SVGID_2_)" stroke="#39396C" stroke-width="0.8005" d="M103.416,61.429c0,24.043-19.493,43.535-43.533,43.535
			S16.351,85.471,16.351,61.429c0-24.042,19.491-43.532,43.532-43.532C83.927,17.897,103.416,37.387,103.416,61.429z"/>
		
			<radialGradient id="SVGID_3_" cx="-420.4722" cy="-754.522" r="35.1986" gradientTransform="matrix(2.0542 0 0 -1.7662 916.4311 -1303.9956)" gradientUnits="userSpaceOnUse">
			<stop  offset="0" style="stop-color:#FFFFFF"/>
			<stop  offset="1" style="stop-color:#FFFFFF;stop-opacity:0"/>
		</radialGradient>
		<path opacity="0.4216" fill="url(#SVGID_3_)" enable-background="new    " d="M84.151,42.987
			c0,11.523-10.865,20.864-24.266,20.864c-13.402,0-24.264-9.341-24.264-20.864c0-11.522,10.862-20.864,24.264-20.864
			C73.286,22.123,84.151,31.464,84.151,42.987z"/>
		<g transform="matrix(.98237,0,0,.98237,.12108,.23291)">
			<path fill-opacity="0.7135" d="M103.918,55.659L103.918,55.659l-1.227,1.386c-0.75-0.885-1.593-1.627-2.443-2.404l-1.877,0.276
				l-1.712-1.937v2.399l1.465,1.112l0.978,1.107l1.308-1.477c0.33,0.616,0.654,1.232,0.98,1.848v1.846l-1.473,1.662l-2.692,1.848
				l-2.039,2.034l-1.306-1.481l0.653-1.661l-1.301-1.478L91.03,56.03l-1.88-2.124l-0.495,0.554l0.74,2.679l1.386,1.57
				c0.791,2.284,1.574,4.468,2.609,6.652c1.611,0,3.132-0.171,4.732-0.371v1.293l-1.959,4.804l-1.793,2.028l-1.469,3.148v5.168
				l0.489,2.032l-0.813,0.921l-1.796,1.111l-1.879,1.568l1.553,1.753l-2.122,1.849l0.405,1.202l-3.182,3.603h-2.122l-1.793,1.111
				h-1.146v-1.477l-0.488-2.957c-0.631-1.855-1.286-3.698-1.955-5.537c0-1.36,0.082-2.706,0.159-4.066l0.819-1.847l-1.146-2.22
				l0.086-3.047l-1.551-1.758l0.776-2.537l-1.262-1.432h-2.205l-0.734-0.831l-2.203,1.389l-0.898-1.021l-2.04,1.755l-4.163-4.708
				l-1.63-3.88l1.468-2.215l-0.812-0.922l1.792-4.251c1.471-1.833,3.013-3.592,4.57-5.357l2.775-0.739l3.1-0.368l2.122,0.555
				l3.019,3.045l1.06-1.199l1.467-0.185l2.775,0.922h2.123l1.471-1.293l0.653-0.922l-1.472-0.923l-2.449-0.184
				c-0.679-0.943-1.311-1.933-2.116-2.771l-0.819,0.368l-0.327,2.403l-1.47-1.662l-0.326-1.849l-1.633-1.29h-0.656l1.633,1.846
				l-0.652,1.661l-1.304,0.37l0.813-1.662l-1.47-0.736l-1.301-1.477l-2.449,0.552l-0.329,0.737l-1.467,0.926l-0.817,2.033
				l-2.039,1.015l-0.899-1.015h-0.977V44.49l2.122-1.109h1.63l-0.328-1.291l-1.302-1.293l2.2-0.462l1.223-1.383l0.982-1.664h1.793
				l-0.49-1.29l1.146-0.74v1.479l2.446,0.554l2.446-2.031l0.163-0.925l2.12-1.477c-0.768,0.096-1.533,0.166-2.283,0.369v-1.664
				l0.814-1.847h-0.814l-1.793,1.663l-0.493,0.924l0.493,1.295l-0.819,2.215l-1.303-0.739l-1.14-1.291l-1.799,1.291l-0.65-2.954
				l3.097-2.031v-1.108l1.962-1.293l3.1-0.74l2.123,0.74l3.916,0.739l-0.977,1.107h-2.125l2.125,2.216l1.63-1.846l0.495-0.812
				c0,0,6.258,5.609,9.838,11.742C102.236,46.955,103.918,54.19,103.918,55.659L103.918,55.659z"/>
			<path fill-opacity="0.7135" d="M63.504,29.89l-0.163,1.107l1.146,0.74l1.954-1.293l-0.977-1.107l-1.309,0.739L63.504,29.89"/>
			<path fill-opacity="0.7135" d="M65.3,22.317l-4.245-1.663l-4.892,0.553l-6.04,1.663l-1.142,1.109l3.752,2.585v1.478l-1.469,1.477
				l1.96,3.882l1.3-0.742l1.636-2.585c2.522-0.779,4.783-1.663,7.178-2.77L65.3,22.317"/>
			<path fill-opacity="0.7135" d="M69.705,37.835l-0.653-1.664l-1.143,0.37l0.329,2.03L69.705,37.835"/>
			<path fill-opacity="0.7135" d="M70.358,37.46l-0.328,2.22l1.796-0.37l1.304-1.292l-1.142-1.108
				c-0.384-1.02-0.826-1.976-1.305-2.955h-0.978v1.107l0.65,0.739v1.658"/>
			<path fill-opacity="0.7135" d="M46.206,72.556L44.9,69.971l-2.447-0.555l-1.306-3.512l-3.263,0.368l-2.773-2.029l-2.939,2.585
				v0.408c-0.89-0.257-1.982-0.294-2.774-0.781l-0.653-1.844V62.58l-1.957,0.184l0.49-3.878h-1.143l-1.141,1.478l-1.143,0.552
				l-1.632-0.922l-0.164-2.033l0.327-2.218l2.449-1.845h1.957l0.326-1.11l2.447,0.552l1.796,2.218l0.327-3.695l3.102-2.585
				l1.142-2.772l2.284-0.924l1.306-1.846l2.938-0.557l1.47-2.214h-4.408l2.775-1.294h1.956l2.776-0.923l0.328-1.105l-0.98-0.924
				l-1.143-0.37l0.327-1.108l-0.813-1.662l-1.961,0.737l0.329-1.477l-2.284-1.294l-1.794,3.138l0.163,1.109l-1.796,0.741l-1.143,2.4
				l-0.489-2.216l-3.101-1.294l-0.49-1.661l4.08-2.403l1.796-1.663l0.164-2.032l-0.979-0.555l-1.306-0.185l-0.816,2.032
				c0,0-1.364,0.268-1.715,0.354C28.92,33.44,19.866,42.354,17.763,59.183c0.084,0.391,1.524,2.652,1.524,2.652l3.426,2.031
				l3.427,0.924l1.47,1.848l2.284,1.661l1.305-0.185l0.979,0.44v0.299l-1.305,3.51l-0.98,1.474l0.327,0.744l-0.816,2.77l2.938,5.358
				l2.938,2.59l1.307,1.844l-0.165,3.881l0.98,2.217l-0.98,4.248c0,0-0.076-0.027,0.049,0.397c0.125,0.426,5.229,3.264,5.553,3.018
				l0.599-0.458l-0.326-0.922l1.305-1.294l0.49-1.29l2.121-0.744l1.633-4.066l-0.49-1.103l1.14-1.659l2.449-0.56l1.306-2.953
				l-0.328-3.695l1.958-2.772l0.328-2.773C51.523,75.296,48.865,73.927,46.206,72.556"/>
			<path fill-opacity="0.7135" d="M42.616,30.628l1.63,1.108h1.307v-1.293l-1.631-0.739L42.616,30.628"/>
			<path fill-opacity="0.7135" d="M38.374,29.152l-0.816,2.031h1.632l0.816-1.847l2.122-1.478l1.631,0.554l3.264,2.216l1.635-1.477
				l-1.798-0.74l-0.816-1.662l-3.099-0.368l-0.165-0.925l-1.469,0.371l-0.651,1.294l-0.816-1.665l-0.326,0.74l0.163,1.846
				L38.374,29.152"/>
			<path fill-opacity="0.7135" d="M44.246,24.533l0.818-0.738l1.632-0.369c1.118-0.543,2.241-0.91,3.426-1.293l-0.65-1.108
				l-2.108,0.303l-0.997,0.992l-1.641,0.238l-1.459,0.685l-0.708,0.343l-0.433,0.581L44.246,24.533"/>
			<path fill-opacity="0.7135" d="M47.02,42.081l0.982-1.477l-1.471-1.108L47.02,42.081"/>
		</g>
		<g transform="matrix(.98237,0,0,.98237,-8.095179e-2,3.088300e-2)">
			<g>
				<g>
					
						<radialGradient id="SVGID_4_" cx="-409.4377" cy="-725.2859" r="45.4659" fx="-409.1021" fy="-724.9493" gradientTransform="matrix(1.9061 0 0 -1.9061 828.9636 -1335.6725)" gradientUnits="userSpaceOnUse">
						<stop  offset="0" style="stop-color:#FFFFFF"/>
						<stop  offset="0.3793" style="stop-color:#FEFEFE"/>
						<stop  offset="1" style="stop-color:#1D1D1D"/>
					</radialGradient>
					<path fill="url(#SVGID_4_)" d="M104.12,55.402L104.12,55.402l-1.225,1.385c-0.75-0.885-1.589-1.626-2.443-2.403l-1.879,0.276
						l-1.712-1.937v2.399l1.473,1.112l0.976,1.108l1.306-1.475c0.33,0.615,0.65,1.232,0.98,1.847v1.847l-1.473,1.661l-2.692,1.849
						l-2.036,2.035l-1.309-1.483l0.656-1.661l-1.306-1.478l-2.203-4.709l-1.877-2.122l-0.492,0.553l0.739,2.679l1.384,1.57
						c0.793,2.284,1.574,4.467,2.615,6.653c1.611,0,3.128-0.172,4.732-0.373v1.294l-1.96,4.803l-1.796,2.032l-1.471,3.14v5.171
						l0.495,2.034l-0.819,0.918l-1.798,1.11l-1.874,1.567l1.55,1.754l-2.12,1.853l0.408,1.197l-3.186,3.608h-2.12l-1.796,1.108
						h-1.143v-1.477l-0.487-2.958c-0.632-1.855-1.289-3.693-1.958-5.539c0-1.357,0.083-2.703,0.162-4.063l0.818-1.847l-1.145-2.215
						l0.084-3.051l-1.549-1.76l0.777-2.54l-1.263-1.432h-2.205L73.2,68.608l-2.201,1.386l-0.897-1.018l-2.042,1.755l-4.161-4.709
						l-1.633-3.881l1.47-2.214l-0.815-0.922l1.793-4.252c1.473-1.832,3.014-3.592,4.569-5.357l2.775-0.739l3.1-0.367l2.125,0.556
						l3.016,3.045l1.063-1.2l1.467-0.184l2.776,0.922h2.122l1.468-1.294l0.653-0.923L88.38,48.29l-2.449-0.186
						c-0.68-0.942-1.311-1.933-2.122-2.77l-0.814,0.367l-0.329,2.403l-1.469-1.661l-0.325-1.85l-1.631-1.289h-0.655l1.633,1.846
						l-0.653,1.662l-1.305,0.369l0.815-1.662l-1.474-0.736L76.3,43.305l-2.449,0.553l-0.327,0.736l-1.469,0.925l-0.817,2.032
						l-2.037,1.016l-0.899-1.016h-0.977v-3.325l2.119-1.109h1.636l-0.332-1.291l-1.304-1.294l2.203-0.461l1.226-1.383l0.977-1.663
						h1.797l-0.494-1.292l1.146-0.739v1.478l2.446,0.553l2.446-2.031l0.166-0.926l2.12-1.477c-0.768,0.096-1.536,0.166-2.286,0.369
						v-1.664l0.816-1.847h-0.816L79.4,31.113l-0.49,0.924l0.49,1.295l-0.815,2.214l-1.303-0.739l-1.14-1.291l-1.796,1.291
						l-0.653-2.953l3.097-2.031v-1.109l1.958-1.292l3.1-0.741l2.123,0.741l3.917,0.739l-0.978,1.108h-2.122l2.122,2.215l1.634-1.846
						l0.495-0.812c0,0,6.254,5.609,9.834,11.742C102.446,46.699,104.12,53.934,104.12,55.402L104.12,55.402z"/>
				</g>
			</g>
			<g>
				<g>
					
						<radialGradient id="SVGID_5_" cx="-409.4402" cy="-725.2715" r="45.442" fx="-409.1047" fy="-724.935" gradientTransform="matrix(1.9061 0 0 -1.9061 828.9636 -1335.6725)" gradientUnits="userSpaceOnUse">
						<stop  offset="0" style="stop-color:#FFFFFF"/>
						<stop  offset="0.3793" style="stop-color:#FEFEFE"/>
						<stop  offset="1" style="stop-color:#1D1D1D"/>
					</radialGradient>
					<path fill="url(#SVGID_5_)" d="M63.713,29.634l-0.166,1.108l1.146,0.739l1.956-1.292L65.67,29.08l-1.308,0.739L63.713,29.634"
						/>
				</g>
			</g>
			<g>
				<g>
					
						<radialGradient id="SVGID_6_" cx="-409.4357" cy="-725.2938" r="45.4814" fx="-409.1" fy="-724.9572" gradientTransform="matrix(1.9061 0 0 -1.9061 828.9636 -1335.6725)" gradientUnits="userSpaceOnUse">
						<stop  offset="0" style="stop-color:#FFFFFF"/>
						<stop  offset="0.3793" style="stop-color:#FEFEFE"/>
						<stop  offset="1" style="stop-color:#1D1D1D"/>
					</radialGradient>
					<path fill="url(#SVGID_6_)" d="M65.508,22.061l-4.244-1.662l-4.893,0.553l-6.04,1.662l-1.143,1.109l3.753,2.585v1.478
						l-1.469,1.476l1.958,3.881l1.302-0.742l1.637-2.585c2.522-0.779,4.781-1.663,7.176-2.771L65.508,22.061"/>
				</g>
			</g>
			<g>
				<g>
					
						<radialGradient id="SVGID_7_" cx="-409.4367" cy="-725.2864" r="45.4721" fx="-409.1008" fy="-724.9495" gradientTransform="matrix(1.9061 0 0 -1.9061 828.9636 -1335.6725)" gradientUnits="userSpaceOnUse">
						<stop  offset="0" style="stop-color:#FFFFFF"/>
						<stop  offset="0.3793" style="stop-color:#FEFEFE"/>
						<stop  offset="1" style="stop-color:#1D1D1D"/>
					</radialGradient>
					<path fill="url(#SVGID_7_)" d="M69.914,37.579l-0.656-1.664l-1.143,0.37l0.328,2.03L69.914,37.579"/>
				</g>
			</g>
			<g>
				<g>
					
						<radialGradient id="SVGID_8_" cx="-409.4323" cy="-725.2854" r="45.4545" fx="-409.0964" fy="-724.9489" gradientTransform="matrix(1.9061 0 0 -1.9061 828.9636 -1335.6725)" gradientUnits="userSpaceOnUse">
						<stop  offset="0" style="stop-color:#FFFFFF"/>
						<stop  offset="0.3793" style="stop-color:#FEFEFE"/>
						<stop  offset="1" style="stop-color:#1D1D1D"/>
					</radialGradient>
					<path fill="url(#SVGID_8_)" d="M70.562,37.205l-0.327,2.22l1.796-0.37l1.304-1.291l-1.14-1.109
						c-0.384-1.02-0.825-1.975-1.305-2.955h-0.979v1.108l0.651,0.739V37.205"/>
				</g>
			</g>
			<g>
				<g>
					
						<radialGradient id="SVGID_9_" cx="-409.4387" cy="-725.2875" r="45.4735" fx="-409.103" fy="-724.9507" gradientTransform="matrix(1.9061 0 0 -1.9061 828.9636 -1335.6725)" gradientUnits="userSpaceOnUse">
						<stop  offset="0" style="stop-color:#FFFFFF"/>
						<stop  offset="0.3793" style="stop-color:#FEFEFE"/>
						<stop  offset="1" style="stop-color:#1D1D1D"/>
					</radialGradient>
					<path fill="url(#SVGID_9_)" d="M46.412,72.302l-1.306-2.59l-2.447-0.556l-1.305-3.507l-3.264,0.37l-2.774-2.031l-2.939,2.586
						v0.408c-0.889-0.257-1.981-0.292-2.773-0.78l-0.653-1.847v-2.032l-1.957,0.186l0.49-3.879h-1.143L25.2,60.109l-1.143,0.551
						l-1.633-0.921l-0.163-2.033l0.328-2.217l2.449-1.846h1.957l0.326-1.11l2.447,0.552l1.796,2.219l0.327-3.696l3.102-2.584
						l1.142-2.773l2.284-0.923l1.305-1.846l2.938-0.558l1.469-2.215h-4.406l2.775-1.293h1.957l2.775-0.925l0.329-1.105l-0.982-0.925
						l-1.142-0.371l0.327-1.107l-0.816-1.661l-1.958,0.736l0.327-1.477l-2.284-1.293l-1.795,3.138l0.163,1.109l-1.795,0.742
						l-1.144,2.399l-0.489-2.216l-3.102-1.293l-0.491-1.662l4.081-2.403l1.796-1.663l0.165-2.03l-0.979-0.555l-1.306-0.186
						l-0.816,2.033c0,0-1.364,0.266-1.715,0.354c-4.481,4.129-13.536,13.042-15.639,29.873c0.084,0.389,1.524,2.652,1.524,2.652
						l3.426,2.031l3.427,0.925l1.47,1.846l2.283,1.664l1.306-0.183l0.978,0.44V68.6l-1.304,3.509l-0.98,1.474l0.327,0.743
						l-0.816,2.77l2.938,5.355l2.938,2.59l1.307,1.847l-0.164,3.881l0.98,2.213l-0.98,4.251c0,0-0.077-0.028,0.048,0.399
						c0.124,0.423,5.229,3.26,5.553,3.018l0.599-0.458l-0.326-0.924l1.304-1.291l0.491-1.289l2.122-0.745l1.632-4.066l-0.489-1.1
						l1.14-1.662l2.448-0.563l1.306-2.95l-0.327-3.692l1.956-2.775l0.327-2.77C51.728,75.04,49.071,73.67,46.412,72.302"/>
				</g>
			</g>
			<g>
				<g>
					
						<radialGradient id="SVGID_10_" cx="-409.4362" cy="-725.2784" r="45.4293" fx="-409.1006" fy="-724.942" gradientTransform="matrix(1.9061 0 0 -1.9061 828.9636 -1335.6725)" gradientUnits="userSpaceOnUse">
						<stop  offset="0" style="stop-color:#FFFFFF"/>
						<stop  offset="0.3793" style="stop-color:#FEFEFE"/>
						<stop  offset="1" style="stop-color:#1D1D1D"/>
					</radialGradient>
					<path fill="url(#SVGID_10_)" d="M42.822,30.372l1.632,1.107h1.306v-1.292l-1.632-0.739L42.822,30.372"/>
				</g>
			</g>
			<g>
				<g>
					
						<radialGradient id="SVGID_11_" cx="-409.4372" cy="-725.2854" r="45.4571" fx="-409.1015" fy="-724.9486" gradientTransform="matrix(1.9061 0 0 -1.9061 828.9636 -1335.6725)" gradientUnits="userSpaceOnUse">
						<stop  offset="0" style="stop-color:#FFFFFF"/>
						<stop  offset="0.3793" style="stop-color:#FEFEFE"/>
						<stop  offset="1" style="stop-color:#1D1D1D"/>
					</radialGradient>
					<path fill="url(#SVGID_11_)" d="M38.579,28.895l-0.816,2.031h1.631l0.817-1.848l2.121-1.478l1.633,0.555l3.264,2.216
						l1.633-1.477l-1.796-0.74l-0.816-1.663l-3.101-0.369l-0.165-0.924l-1.469,0.37l-0.652,1.294l-0.816-1.664l-0.326,0.74
						l0.164,1.847L38.579,28.895"/>
				</g>
			</g>
			<g>
				<g>
					
						<radialGradient id="SVGID_12_" cx="-409.4367" cy="-725.2775" r="45.4374" fx="-409.1011" fy="-724.9411" gradientTransform="matrix(1.9061 0 0 -1.9061 828.9636 -1335.6725)" gradientUnits="userSpaceOnUse">
						<stop  offset="0" style="stop-color:#FFFFFF"/>
						<stop  offset="0.3793" style="stop-color:#FEFEFE"/>
						<stop  offset="1" style="stop-color:#1D1D1D"/>
					</radialGradient>
					<path fill="url(#SVGID_12_)" d="M44.454,24.276l0.816-0.738l1.633-0.369c1.117-0.544,2.24-0.91,3.426-1.293l-0.65-1.108
						l-2.106,0.303l-0.996,0.992l-1.642,0.239l-1.461,0.686l-0.708,0.342l-0.433,0.581L44.454,24.276"/>
				</g>
			</g>
			<g>
				<g>
					
						<radialGradient id="SVGID_13_" cx="-409.4367" cy="-725.2844" r="45.4386" fx="-409.1011" fy="-724.9481" gradientTransform="matrix(1.9061 0 0 -1.9061 828.9636 -1335.6725)" gradientUnits="userSpaceOnUse">
						<stop  offset="0" style="stop-color:#FFFFFF"/>
						<stop  offset="0.3793" style="stop-color:#FEFEFE"/>
						<stop  offset="1" style="stop-color:#1D1D1D"/>
					</radialGradient>
					<path fill="url(#SVGID_13_)" d="M47.228,41.827l0.98-1.477l-1.47-1.108L47.228,41.827"/>
				</g>
			</g>
		</g>
		
			<radialGradient id="SVGID_14_" cx="-423.8984" cy="-627.9761" r="46.5852" gradientTransform="matrix(2.0833 0 0 -2.0833 922.9888 -1272.1255)" gradientUnits="userSpaceOnUse">
			<stop  offset="0" style="stop-color:#FFFFFF"/>
			<stop  offset="1" style="stop-color:#FFFFFF;stop-opacity:0.1649"/>
		</radialGradient>
		<path fill="none" stroke="url(#SVGID_14_)" stroke-width="0.8005" d="M101.205,61.429c0,22.823-18.5,41.323-41.319,41.323
			c-22.821,0-41.321-18.5-41.321-41.323c0-22.823,18.501-41.32,41.321-41.32C82.705,20.107,101.205,38.608,101.205,61.429z"/>
	</g>
</g>
</svg>
